<?xml version="1.0" encoding="utf-8"?>
<!-- Generator: Adobe Illustrator 22.0.1, SVG Export Plug-In . SVG Version: 6.00 Build 0)  -->
<svg version="1.1" xmlns="http://www.w3.org/2000/svg" xmlns:xlink="http://www.w3.org/1999/xlink" x="0px" y="0px"
	 viewBox="0 0 500 500" style="enable-background:new 0 0 500 500;" xml:space="preserve">
<style type="text/css">
	.st0{fill:#EBEBEB;}
	.st1{fill:#DBDBDB;}
	.st2{fill:#C7C7C7;}
	.st3{fill:#A6A6A6;}
	.st4{fill:#E92916;}
	.st5{fill:#FFFFFF;}
	.st6{fill:#F8F8F8;}
	.st7{fill:#263238;}
	.st8{fill:#455A64;}
	.st9{fill:#F7A9A0;}
	.st10{fill:#37474F;}
	.st11{opacity:0.1;enable-background:new    ;}
	.st12{fill:#FF9BBC;}
	.st13{fill:#F2F2F2;}
	.st14{fill:none;}
	.st15{font-family:'RoundedElegance-Regular';}
	.st16{font-size:10px;}
	.st17{stroke:#000000;stroke-width:0.25;stroke-miterlimit:10;}
	.st18{fill:#FFFFFF;stroke:#FFFFFF;stroke-width:0.25;stroke-miterlimit:10;}
	.st19{font-family:'MyriadPro-Regular';}
	.st20{font-size:12px;}
	.st21{fill:#FFFFFF;stroke:#FFFFFF;stroke-miterlimit:10;}
	.st22{fill:#FFFFFF;stroke:#FFFFFF;stroke-width:0.5;stroke-miterlimit:10;}
	.st23{fill:none;stroke:#959595;stroke-miterlimit:10;}
	.st24{fill:#DB0C10;stroke:#DB0C10;stroke-miterlimit:10;}
</style>
<g id="Calque_1">
	<g id="freepik--background-complete--inject-14">
		<polygon class="st0" points="316.1,380.1 444.2,380.1 448.3,298.8 312,298.8 		"/>
		<path class="st1" d="M434.8,336H322l-1.5-28.2h116.2L434.8,336z M322.9,335h110.9l1.7-26.2H321.5L322.9,335z"/>
		<path class="st1" d="M433.3,368.5h-108L324,343h110.9L433.3,368.5z M326.2,367.5h106.2l1.5-23.5H325L326.2,367.5z"/>
		<path class="st1" d="M391.4,325h-23.9l-0.9-6.8h25.7L391.4,325z M368.4,324h22.2l0.6-4.8h-23.4L368.4,324z"/>
		<path class="st1" d="M391.4,359.1h-23.9l-0.9-6.8h25.7L391.4,359.1z M368.4,358.1h22.2l0.6-4.8h-23.4L368.4,358.1z"/>
		<polygon class="st0" points="333.9,380.1 332.6,388.9 330.1,406.7 325.2,406.7 325.2,380.1 		"/>
		<polygon class="st1" points="333.9,380.1 332.6,388.9 325.2,388.9 325.2,380.1 		"/>
		<polygon class="st0" points="426.4,380.1 427.7,388.9 430.2,406.7 435.1,406.7 435.1,380.1 		"/>
		<polygon class="st1" points="426.4,380.1 427.7,388.9 435.1,388.9 435.1,380.1 		"/>
		<path class="st0" d="M82.6,327.1l-13.1,0.3l-6.7,0.1c-2.2,0-4.5,0-6.7,0h-0.4v-0.4l-0.1-11.2v-0.5h0.5l13.2,0.1
			c4.4,0,8.8,0.1,13.2,0.2h0.3v0.3c0,1.9-0.1,3.8-0.1,5.6L82.6,327.1z M82.6,327.1l-0.1-5.7c0-1.9-0.1-3.7-0.1-5.5l0.3,0.3
			c-4.4,0-8.8,0.2-13.2,0.2l-13.2,0.1l0.5-0.5v11.2l-0.5-0.5c2.2,0,4.4,0,6.5,0l6.6,0.1L82.6,327.1z"/>
		<path class="st0" d="M67.8,341.2l-13.1,0.3l-6.7,0.1c-2.2,0-4.5,0-6.7,0h-0.4v-0.4L40.8,330v-0.5h0.5l13.2,0.1
			c4.4,0,8.8,0.1,13.2,0.2h0.3v0.3c0,1.9-0.1,3.8-0.1,5.6L67.8,341.2z M67.8,341.2l-0.1-5.7c-0.1-1.9-0.1-3.7-0.1-5.5l0.3,0.3
			c-4.4,0-8.8,0.2-13.2,0.2l-13.2,0.1l0.5-0.5l0,11.2l-0.5-0.5c2.2,0,4.4,0,6.5,0l6.6,0.1L67.8,341.2z"/>
		<path class="st0" d="M406.5,202.5l-13.1,0.3l-6.7,0.1c-2.2,0.1-4.5,0-6.7,0.1h-0.4v-0.4l-0.1-11.2v-0.5h0.5l13.2,0.1
			c4.4,0,8.8,0.1,13.2,0.2h0.3v0.3c0,1.9-0.1,3.8-0.1,5.7L406.5,202.5z M406.5,202.5l-0.1-5.6c0-1.9-0.1-3.7-0.1-5.5l0.3,0.3
			c-4.4,0-8.8,0.1-13.2,0.2l-13.3,0.1l0.5-0.5v11.2l-0.5-0.4c2.2,0,4.4,0,6.5,0l6.6,0.1L406.5,202.5z"/>
		<path class="st0" d="M391.7,216.6l-13.1,0.3L372,217c-2.2,0-4.5,0-6.7,0.1h-0.4v-0.4l0-11.2v-0.5h0.5l13.2,0.1
			c4.4,0,8.8,0.1,13.2,0.2h0.2v0.3c0,1.9-0.1,3.8-0.1,5.7L391.7,216.6z M391.7,216.6l-0.1-5.6c0-1.9-0.1-3.7-0.1-5.5l0.3,0.3
			c-4.4,0.1-8.8,0.1-13.2,0.2l-13.2,0.1l0.5-0.5l0,11.2l-0.5-0.4c2.2,0,4.4,0,6.5,0.1l6.6,0.1L391.7,216.6z"/>
		<path class="st0" d="M377,202.5l-13.1,0.3l-6.7,0.1c-2.2,0.1-4.5,0-6.7,0.1h-0.5v-0.4v-11.2v-0.5h0.5l13.2,0.1
			c4.4,0,8.8,0.1,13.2,0.2h0.3v0.3c0,1.9-0.1,3.8-0.1,5.7L377,202.5z M377,202.5l-0.1-5.6c0-1.9-0.1-3.7-0.1-5.5l0.3,0.3
			c-4.4,0-8.8,0.1-13.2,0.2l-13.2,0.1l0.5-0.5l0,11.2l-0.4-0.4c2.2,0,4.4,0,6.5,0l6.6,0.1L377,202.5z"/>
		<path class="st0" d="M458.7,341.2l-13.1,0.3l-6.7,0.1c-2.2,0-4.5,0-6.7,0h-0.5v-0.4l0-11.2v-0.5h0.5l13.2,0.1
			c4.4,0,8.8,0.1,13.2,0.2h0.3v0.3c0,1.9-0.1,3.8-0.1,5.6L458.7,341.2z M458.7,341.2l-0.1-5.7c0-1.9-0.1-3.7-0.1-5.5l0.3,0.3
			c-4.4,0-8.8,0.2-13.2,0.2l-13.2,0.1l0.5-0.5l-0.1,11.2l-0.4-0.5c2.2,0,4.4,0,6.5,0l6.6,0.1L458.7,341.2z"/>
		<path class="st0" d="M443.9,67.5l-13.1,0.3l-6.7,0.1c-2.2,0-4.5,0-6.7,0.1H417v-0.4V56.3v-0.5h0.5l13.2,0.1
			c4.4,0,8.8,0.1,13.2,0.2h0.3v0.3c0,1.9-0.1,3.8-0.1,5.7L443.9,67.5z M443.9,67.5l-0.1-5.7c0-1.9-0.1-3.7-0.1-5.5l0.3,0.3
			c-4.4,0-8.8,0.2-13.2,0.2l-13.2,0.1l0.5-0.5l-0.1,11.2l-0.4-0.4c2.2,0,4.4,0,6.5,0.1l6.6,0.1L443.9,67.5z"/>
		<path class="st0" d="M458.7,81.6l-13.1,0.3l-6.7,0.1c-2.2,0-4.5,0-6.7,0.1h-0.5v-0.4l0-11.2v-0.5h0.5l13.2,0.1
			c4.4,0,8.8,0.1,13.2,0.2h0.3v0.3c0,1.9-0.1,3.8-0.1,5.7L458.7,81.6z M458.7,81.6l-0.1-5.7c0-1.9-0.1-3.7-0.1-5.5l0.3,0.3
			c-4.4,0-8.8,0.2-13.2,0.2l-13.2,0.1l0.5-0.5l-0.1,11.2l-0.4-0.4c2.2,0,4.4,0,6.5,0.1l6.6,0.1L458.7,81.6z"/>
		<path class="st0" d="M82.6,67.5l-13.1,0.3l-6.7,0.1c-2.2,0-4.5,0-6.7,0.1h-0.4v-0.4l-0.1-11.2v-0.5h0.5l13.2,0.1
			c4.4,0,8.8,0.1,13.2,0.2h0.3v0.3c0,1.9-0.1,3.8-0.1,5.7L82.6,67.5z M82.6,67.5l-0.1-5.7c0-1.9-0.1-3.7-0.1-5.5l0.3,0.3
			c-4.4,0-8.8,0.2-13.2,0.2l-13.2,0.1l0.5-0.5v11.2L56.1,67c2.2,0,4.4,0,6.5,0.1l6.6,0.1L82.6,67.5z"/>
		<rect x="429.8" class="st2" width="1" height="87.6"/>
		<polygon class="st0" points="399.8,117 402.3,122.4 458.3,122.4 460.7,117 436.9,100.5 423.7,100.5 		"/>
		<polygon class="st1" points="422,84.6 423.7,100.5 436.9,100.5 438.5,84.6 		"/>
		<polygon class="st1" points="399.8,117 402.3,122.4 458.3,122.4 460.7,117 		"/>
		<rect x="364.4" class="st2" width="1" height="70.3"/>
		<polygon class="st0" points="334.5,99.6 336.9,105 392.9,105 395.4,99.6 371.5,83.1 358.3,83.1 		"/>
		<polygon class="st1" points="356.7,67.2 358.3,83.1 371.5,83.1 373.2,67.2 		"/>
		<polygon class="st1" points="334.5,99.6 336.9,105 392.9,105 395.4,99.6 		"/>
		<path class="st1" d="M449.3,170.6l0.2,77.6c0,4.3-3.5,7.9-7.8,7.9l-123.1,0.3c-4.3,0-7.9-3.5-7.9-7.8l-0.2-77.6
			c0-4,3.3-7.3,7.3-7.3c0,0,0,0,0,0l124.2-0.3C446,163.4,449.3,166.6,449.3,170.6z"/>
		<path class="st3" d="M429.5,237.4c0,4-3.2,7.2-7.2,7.2c-4,0-7.2-3.2-7.2-7.2c0-4,3.2-7.2,7.2-7.2c0,0,0,0,0,0
			C426.2,230.2,429.5,233.4,429.5,237.4z"/>
		<path class="st4" d="M438.4,237.3c0,4-3.2,7.2-7.2,7.2c-4,0-7.2-3.2-7.2-7.2c0-4,3.2-7.2,7.2-7.2
			C435.1,230.1,438.4,233.4,438.4,237.3z"/>
		<path class="st4" d="M326.4,177l17.6,0c2.3,0,4.2,1.9,4.2,4.2l0,9.6c0,2.3-1.9,4.2-4.2,4.2l-17.6,0c-2.3,0-4.2-1.9-4.2-4.2l0-9.6
			C322.2,178.9,324.1,177,326.4,177z"/>
		<path class="st5" d="M433.3,186.6h-11.8c-2.7,0-4.9-2.2-4.9-4.9c0,0,0,0,0,0l0,0c0-2.7,2.2-4.9,4.9-4.9h11.8c2.7,0,5,2.2,5,4.9
			c0,0,0,0,0,0l0,0C438.3,184.4,436.1,186.6,433.3,186.6C433.4,186.6,433.3,186.6,433.3,186.6z"/>
		<path class="st6" d="M321.3,211.4l-1.1,0.6c0,0-0.1,0-0.1,0.1c-0.1,0-0.2,0-0.2-0.1c-0.1-0.1,0-0.3,0.1-0.3c0,0,0,0,0,0l1.5-0.9
			c0.1-0.1,0.3,0,0.4,0.1c0,0.1,0,0.1,0,0.2v6.9c0,0.1-0.1,0.3-0.3,0.3l0,0c-0.1,0-0.3-0.1-0.3-0.3l0,0L321.3,211.4z"/>
		<path class="st6" d="M323.7,217.7l3.5-3.2c0.4-0.4,0.6-0.9,0.6-1.4c0-1.1-0.9-1.9-2-1.9c-0.5,0-1,0.2-1.3,0.5l-0.4,0.3
			c-0.1,0.1-0.3,0.1-0.4,0c0,0,0,0,0,0c-0.1-0.1-0.1-0.2,0-0.3c0,0,0,0,0,0l0.4-0.4c0.5-0.4,1.1-0.6,1.7-0.6c1.4,0,2.4,1.1,2.5,2.4
			c0,0.7-0.3,1.4-0.8,1.8l-3,2.7h3.6c0.1,0,0.2,0.2,0.2,0.3c0,0.1-0.1,0.2-0.2,0.2h-4.2c-0.1,0-0.1,0-0.2-0.1
			C323.6,218,323.6,217.8,323.7,217.7z"/>
		<path class="st6" d="M334.7,211.1l-2,2c0.5,0.1,0.9,0.3,1.3,0.7c0.5,0.5,0.7,1.1,0.8,1.8c0,1.4-1.1,2.6-2.5,2.6
			c-0.7,0-1.3-0.3-1.8-0.7c-0.1-0.1-0.1-0.3,0-0.4c0.1-0.1,0.2-0.1,0.3,0c0.4,0.4,0.9,0.6,1.4,0.6c1.1,0,2-0.9,2-2s-0.9-2-2-2
			c-0.1,0-0.2,0-0.2-0.1l0,0c-0.1-0.1-0.1-0.3,0-0.4c0,0,0,0,0,0l1.9-1.9H331c-0.1,0-0.3-0.1-0.3-0.2c0,0,0,0,0,0
			c0-0.1,0.1-0.3,0.3-0.3c0,0,0,0,0,0h3.5c0.1,0,0.3,0.1,0.3,0.2c0,0,0,0,0,0c0,0,0,0.1,0,0.1C334.8,211.1,334.7,211.1,334.7,211.1z
			"/>
		<path class="st6" d="M341,216.6h-4.1c-0.1,0-0.1,0-0.2-0.1c-0.1-0.1-0.1-0.3,0-0.4c0,0,0,0,0,0l4.4-5.4l0,0c0.1-0.1,0.3-0.1,0.4,0
			c0,0,0,0,0,0c0,0,0.1,0.1,0.1,0.1c0,0,0,0,0,0.1v5.2h0.5c0.1,0,0.3,0.1,0.3,0.3c0,0.1-0.1,0.3-0.3,0.3h-0.5v1.3
			c0,0.1-0.1,0.3-0.3,0.3c0,0,0,0,0,0c-0.1,0-0.3-0.1-0.3-0.2L341,216.6z M341,216.1v-4.4l-3.6,4.4L341,216.1z"/>
		<path class="st6" d="M350.5,217.4c-0.1-0.1-0.1-0.3,0-0.4c0.1-0.1,0.2-0.1,0.3,0c0.4,0.4,0.9,0.6,1.4,0.6c0.5,0,1-0.2,1.4-0.6
			c0.4-0.4,0.6-0.9,0.6-1.4c0-0.5-0.2-1.1-0.6-1.4c-0.4-0.4-0.9-0.6-1.4-0.6c-0.5,0-1.1,0.2-1.4,0.6c-0.1,0.1-0.3,0.1-0.4,0
			c0,0-0.1-0.1-0.1-0.1l0,0l0,0c0,0,0-0.1,0-0.1c0,0,0,0,0-0.1l0.4-3c0-0.1,0-0.1,0.1-0.2c0,0,0.1-0.1,0.2-0.1h3.5
			c0.1,0,0.3,0.1,0.3,0.3c0,0.1-0.1,0.3-0.2,0.3c0,0,0,0,0,0h-3.3l-0.3,2.2c1.2-0.7,2.8-0.2,3.5,1c0.5,1,0.4,2.2-0.4,3
			c-0.5,0.5-1.1,0.7-1.8,0.8C351.6,218.2,351,217.9,350.5,217.4z"/>
		<path class="st6" d="M357.7,212.2c0.5-1,1.5-1.6,2.6-1.6c0.1,0,0.3,0.1,0.3,0.2c0,0,0,0,0,0c0,0.1-0.1,0.3-0.3,0.3
			c-0.9,0-1.8,0.6-2.2,1.4c-0.3,0.5-0.4,1-0.5,1.5c0.5-0.5,1.1-0.9,1.9-0.9c1.4,0,2.5,1.1,2.5,2.5c0,1.4-1.1,2.5-2.5,2.5
			c-1.4,0-2.5-1.1-2.5-2.4c0-0.2,0-0.3,0-0.5C356.9,214.2,357.2,213.1,357.7,212.2z M357.5,215.7c0,0,0,0.1,0,0.1c0,0,0,0.1,0,0.1
			c0.1,1.1,1,1.9,2.1,1.9c1.1-0.1,1.9-1,1.9-2.1c-0.1-1.1-1-1.9-2.1-1.9C358.4,213.8,357.6,214.6,357.5,215.7L357.5,215.7z"/>
		<path class="st6" d="M364.7,217.7l2.8-6.6h-3.6c-0.1,0-0.3-0.1-0.3-0.3c0-0.1,0.1-0.3,0.3-0.3h4c0.1,0,0.1,0,0.2,0
			c0.1,0,0.1,0.1,0.1,0.2c0,0,0,0.1,0,0.1c0,0.1,0,0.1,0,0.1l-2.9,7c0,0.1-0.1,0.2-0.2,0.2c0,0-0.1,0-0.1,0
			C364.7,218.1,364.6,217.9,364.7,217.7C364.7,217.7,364.7,217.7,364.7,217.7z"/>
		<path class="st6" d="M372.2,210.5c0.9,0,1.6,0.7,1.6,1.5c0,0.5-0.2,1-0.7,1.3c0.9,0.4,1.5,1.3,1.5,2.3c0,1.4-1.1,2.4-2.5,2.4
			c-1.4,0-2.4-1.1-2.4-2.4c0-1,0.6-1.9,1.5-2.3c-0.4-0.3-0.6-0.8-0.6-1.3C370.6,211.2,371.3,210.5,372.2,210.5
			C372.2,210.5,372.2,210.5,372.2,210.5z M372.2,217.5c1.1,0,1.9-0.9,1.9-1.9c0-1.1-0.9-1.9-1.9-1.9c-1.1,0-1.9,0.9-1.9,1.9
			c0,0,0,0,0,0C370.2,216.7,371.1,217.5,372.2,217.5C372.1,217.6,372.2,217.6,372.2,217.5L372.2,217.5z M372.2,213.1
			c0.6,0,1.1-0.5,1.1-1.1c-0.1-0.6-0.6-1-1.2-1c-0.5,0-0.9,0.4-1,1C371.1,212.6,371.5,213.1,372.2,213.1
			C372.1,213.1,372.2,213.1,372.2,213.1L372.2,213.1z"/>
		<path class="st6" d="M385.6,210.5c1.3,0,2.3,0.9,2.5,2.2l0,0c0,0.2,0,0.4,0,0.6c0,1-0.2,2.1-0.7,3c-0.5,1-1.5,1.6-2.6,1.6l0,0
			c-0.1,0-0.3-0.1-0.3-0.2c0,0,0,0,0,0c0-0.1,0.1-0.3,0.3-0.3c0.9,0,1.8-0.5,2.2-1.4c0.3-0.5,0.4-1,0.5-1.5c-0.9,1-2.5,1.1-3.5,0.2
			c-0.5-0.5-0.8-1.1-0.8-1.8C383.1,211.6,384.2,210.5,385.6,210.5z M387.6,213c0-1.1-0.9-2-2-2s-2,0.9-2,2s0.9,2,2,2
			C386.7,214.9,387.6,214.1,387.6,213L387.6,213z"/>
		<path class="st6" d="M390,214.2c0-0.9,0.2-1.9,0.7-2.6c0.5-1,1.8-1.4,2.9-0.9c0.4,0.2,0.7,0.5,0.9,0.9c0.5,0.8,0.8,1.7,0.8,2.6
			c0,0.9-0.2,1.8-0.7,2.6c-0.5,1-1.8,1.5-2.9,0.9c-0.4-0.2-0.7-0.5-0.9-0.9C390.2,216.1,390,215.2,390,214.2z M390.5,214.2
			c0,0.8,0.2,1.6,0.6,2.3c0.3,0.5,0.8,0.9,1.5,0.9c0.6,0,1.1-0.4,1.4-0.9c0.4-0.7,0.7-1.5,0.6-2.3c0-0.8-0.2-1.6-0.7-2.3
			c-0.4-0.8-1.3-1.1-2.1-0.8c-0.3,0.2-0.6,0.4-0.8,0.8C390.7,212.6,390.5,213.4,390.5,214.2L390.5,214.2z"/>
		<path class="st6" d="M398.8,211.2l-1.1,0.6c0,0-0.1,0-0.1,0c-0.1,0-0.2-0.1-0.2-0.1c-0.1-0.1,0-0.3,0.1-0.3c0,0,0,0,0,0l1.5-0.9
			c0.1-0.1,0.3,0,0.4,0.1c0,0.1,0,0.1,0,0.2v6.9c0,0.1-0.1,0.2-0.2,0.2c0,0,0,0,0,0c-0.1,0-0.3-0.1-0.3-0.2c0,0,0,0,0,0L398.8,211.2
			z"/>
		<path class="st6" d="M401.1,217.5l3.5-3.2c0.4-0.4,0.6-0.9,0.6-1.4c0-0.5-0.2-0.9-0.5-1.3c-0.4-0.4-0.9-0.6-1.4-0.6
			c-0.5,0-1,0.2-1.3,0.5l-0.4,0.3c-0.1,0.1-0.2,0.1-0.3,0c0,0,0,0,0,0c-0.1-0.1-0.1-0.3,0-0.4c0,0,0,0,0,0l0.4-0.3
			c0.5-0.4,1.1-0.6,1.7-0.6c0.7,0,1.3,0.3,1.8,0.8c0.4,0.4,0.6,1,0.6,1.6c0,0.7-0.3,1.4-0.8,1.8l-3,2.7h3.6c0.1,0,0.3,0.1,0.3,0.3
			c0,0.1-0.1,0.3-0.3,0.3l0,0h-4.3c-0.1,0-0.1,0-0.2-0.1C401,217.8,401,217.7,401.1,217.5C401.1,217.5,401.1,217.5,401.1,217.5z"/>
		<path class="st6" d="M418.5,210.9l-2,2c0.5,0.1,0.9,0.3,1.3,0.7c0.5,0.5,0.7,1.1,0.8,1.8c0,1.4-1.2,2.6-2.6,2.6
			c-0.7,0-1.3-0.3-1.8-0.8c-0.1-0.1-0.1-0.3,0-0.4c0,0,0,0,0,0c0.1-0.1,0.3-0.1,0.4,0c0,0,0,0,0,0c0.8,0.8,2.1,0.8,2.9,0.1
			c0.8-0.8,0.8-2.1,0.1-2.9c-0.4-0.4-0.9-0.6-1.4-0.6c-0.1,0-0.2,0-0.2-0.1l0,0c-0.1-0.1-0.1-0.3,0-0.4l1.9-1.9h-2.9
			c-0.1,0-0.3-0.1-0.3-0.3c0-0.1,0.1-0.3,0.3-0.3h3.5c0.1,0,0.3,0.1,0.3,0.3C418.6,210.8,418.6,210.8,418.5,210.9
			C418.6,210.8,418.6,210.9,418.5,210.9z"/>
		<path class="st6" d="M424.9,216.4h-4.1c-0.1,0-0.1,0-0.2,0c-0.1-0.1-0.1-0.3,0-0.4c0,0,0,0,0,0l4.4-5.4l0,0c0.1-0.1,0.3-0.1,0.4,0
			c0,0,0,0,0,0c0,0,0.1,0.1,0.1,0.1l0,0v5.2h0.5c0.1,0,0.3,0.1,0.3,0.3c0,0.1-0.1,0.3-0.3,0.3l0,0h-0.5v1.3c0,0.1-0.2,0.2-0.3,0.2
			c-0.1,0-0.2-0.1-0.2-0.2V216.4z M424.9,215.9v-4.4l-3.6,4.4H424.9z"/>
		<path class="st6" d="M427.9,217.2c-0.1-0.1-0.1-0.3,0-0.4c0,0,0,0,0,0c0.1-0.1,0.3-0.1,0.4,0c0,0,0,0,0,0c0.4,0.4,0.9,0.6,1.4,0.6
			c0.5,0,1-0.2,1.4-0.6c0.8-0.8,0.8-2,0.1-2.8c-0.4-0.4-0.9-0.6-1.5-0.6c-0.5,0-1.1,0.2-1.4,0.6c-0.1,0.1-0.3,0.1-0.4,0
			c0,0-0.1-0.1-0.1-0.1l0,0l0,0c0,0,0-0.1,0-0.1l0,0l0.4-3.1c0-0.1,0-0.2,0.1-0.2c0,0,0.1-0.1,0.2-0.1h3.5c0.1,0,0.3,0.1,0.3,0.3
			c0,0.1-0.1,0.3-0.2,0.3c0,0,0,0,0,0h-3.3l-0.3,2.2c0.4-0.2,0.8-0.4,1.3-0.4c1.4,0,2.5,1.1,2.5,2.5c0,0,0,0,0,0
			c0,0.7-0.3,1.3-0.7,1.8c-0.5,0.5-1.1,0.7-1.8,0.8C429,218,428.4,217.7,427.9,217.2z"/>
		<path class="st6" d="M435.1,212c0.5-1,1.5-1.6,2.6-1.6c0.1,0,0.3,0.1,0.3,0.2c0,0,0,0,0,0c0,0.1-0.1,0.3-0.3,0.3
			c-0.9,0-1.8,0.5-2.2,1.4c-0.3,0.5-0.4,1-0.5,1.5c0.9-1,2.5-1.1,3.5-0.2s1.1,2.5,0.2,3.5c-0.9,1-2.5,1.1-3.5,0.2
			c-0.5-0.5-0.8-1.1-0.8-1.8c0-0.2,0-0.3,0-0.5C434.3,214,434.6,212.9,435.1,212z M434.9,215.4c0,0,0,0.1,0,0.1c0,0,0,0.1,0,0.1
			c0.1,1,1,1.7,2,1.7c1.1,0,2-0.9,2-2s-0.9-2-2-2S434.9,214.3,434.9,215.4L434.9,215.4z"/>
		
			<rect x="322.4" y="231.1" transform="matrix(1 -2.617982e-03 2.617982e-03 1 -0.608 0.931)" class="st3" width="65.9" height="3.2"/>
		
			<rect x="322.4" y="238.3" transform="matrix(1 -2.617982e-03 2.617982e-03 1 -0.6269 0.9059)" class="st3" width="46.7" height="3.2"/>
		<rect x="378.7" y="177.8" class="st3" width="32.9" height="3.2"/>
		<rect x="57.4" y="71.1" class="st0" width="56.7" height="56.7"/>
		<rect x="95.2" y="147.4" class="st0" width="50.7" height="50.7"/>
	</g>
	<g id="freepik--Shadow--inject-14">
		<path class="st0" d="M448.3,449c0,11.3-88.8,20.4-198.3,20.4S51.7,460.3,51.7,449s88.8-20.4,198.3-20.4S448.3,437.8,448.3,449z"/>
	</g>
	<g id="freepik--Floor--inject-14">
		<polygon class="st7" points="41.5,406.4 93.6,406.2 145.8,406.1 250,406 354.2,406.1 406.4,406.2 458.5,406.4 406.4,406.7 
			354.2,406.8 250,406.9 145.8,406.8 93.6,406.7 		"/>
	</g>
	<g id="freepik--Device--inject-14">
		<path class="st7" d="M334.5,52.7H165.5c-9.5,0.1-17.2,7.9-17.1,17.4c0,0,0,0,0,0v348c-0.1,9.5,7.6,17.3,17.1,17.4h169.1
			c9.5-0.1,17.2-7.9,17.1-17.4v-348C351.7,60.6,344.1,52.8,334.5,52.7z M340.9,407.4c0,9.2-6.9,16.6-15.3,16.6H174.4
			c-8.5,0-15.3-7.4-15.3-16.6V83.3c0-18.7,6.9-19.6,15.3-19.6h30.3c1.8,0,3.2,2,3.2,4.5v1.1c0,5.8,3.2,5.8,7.1,5.8h70
			c3.9,0,7.1,0,7.1-5.8v-1.1c0-2.5,1.4-4.5,3.2-4.5h30.3c8.5,0,15.3,2.5,15.3,19.6L340.9,407.4z"/>
		<path class="st5" d="M340.9,83.3v324.1c0,9.2-6.9,16.6-15.3,16.6H174.4c-8.5,0-15.3-7.4-15.3-16.6V83.3c0-18.7,6.9-19.6,15.3-19.6
			h30.3c1.8,0,3.2,2,3.2,4.5v1.1c0,5.8,3.2,5.8,7.1,5.8h70c3.9,0,7.1,0,7.1-5.8v-1.1c0-2.5,1.4-4.5,3.2-4.5h30.3
			C334.1,63.7,340.9,66.2,340.9,83.3z"/>
		<path class="st4" d="M340.9,83.3v36.5H159V83.3c0-18.7,6.9-19.6,15.3-19.6h30.3c1.8,0,3.2,2,3.2,4.5v1.1c0,5.8,3.2,5.8,7.1,5.8
			H285c3.9,0,7.1,0,7.1-5.8v-1.1c0-2.5,1.4-4.5,3.2-4.5h30.3C334.1,63.7,340.9,66.2,340.9,83.3z"/>
		<g id="freepik--u5Zjqx--inject-14">
			<path class="st5" d="M199.4,71l-0.3,0.3c-0.1,0-0.1,0.1-0.2,0.2c-1.6-1.6-4.1-1.6-5.6,0l-0.2-0.2l-0.3-0.3l0,0l0,0l0.4-0.3
				c0.3-0.2,0.6-0.4,0.9-0.6c0.4-0.2,0.7-0.3,1.1-0.4c0.2,0,0.4,0,0.6-0.1s0.5,0,0.5,0h0.4c0.3,0,0.7,0.1,1,0.2
				c0.2,0.1,0.5,0.2,0.7,0.3c0.2,0.1,0.5,0.3,0.7,0.5L199.4,71L199.4,71z"/>
			<path class="st5" d="M194.3,72.4c-0.1-0.2-0.3-0.3-0.5-0.5c1.3-1.3,3.4-1.3,4.7,0c0,0,0,0,0,0l-0.5,0.5c-0.5-0.5-1.2-0.8-1.9-0.8
				C195.5,71.6,194.8,71.9,194.3,72.4z"/>
			<path class="st5" d="M197.6,72.8l-0.5,0.5c-0.5-0.5-1.4-0.5-1.9,0l-0.5-0.5C195.5,72.1,196.8,72,197.6,72.8
				C197.6,72.8,197.6,72.8,197.6,72.8z"/>
			<path class="st5" d="M196.6,73.7c0,0.2-0.2,0.4-0.4,0.4l0,0c-0.2,0-0.4-0.1-0.5-0.4c0-0.2,0.1-0.4,0.4-0.5c0,0,0.1,0,0.1,0
				C196.4,73.3,196.6,73.5,196.6,73.7C196.6,73.7,196.6,73.7,196.6,73.7z"/>
		</g>
		<path class="st5" d="M170.9,71.9c0-0.7,0.5-1.2,1.2-1.2c0.7,0,1.2,0.5,1.2,1.2c0,0.7-0.5,1.2-1.2,1.2S170.9,72.6,170.9,71.9
			C170.9,71.9,170.9,71.9,170.9,71.9z"/>
		<path class="st5" d="M174.7,71.9c0-0.7,0.5-1.2,1.2-1.2c0.7,0,1.2,0.5,1.2,1.2c0,0.7-0.5,1.2-1.2,1.2S174.7,72.6,174.7,71.9
			C174.7,71.9,174.7,71.9,174.7,71.9z"/>
		<path class="st5" d="M178.5,71.9c0-0.7,0.5-1.2,1.2-1.2c0.7,0,1.2,0.5,1.2,1.2c0,0.7-0.5,1.2-1.2,1.2c0,0,0,0,0,0
			C179,73.1,178.5,72.6,178.5,71.9C178.5,71.9,178.5,71.9,178.5,71.9z"/>
		<path class="st5" d="M182.3,71.9c0-0.7,0.5-1.2,1.2-1.2c0.7,0,1.2,0.5,1.2,1.2c0,0.7-0.5,1.2-1.2,1.2c0,0,0,0,0,0
			C182.8,73.1,182.3,72.6,182.3,71.9C182.3,71.9,182.3,71.9,182.3,71.9z"/>
		<path class="st5" d="M186.1,71.9c0-0.7,0.5-1.2,1.2-1.2c0.7,0,1.2,0.5,1.2,1.2c0,0.7-0.5,1.2-1.2,1.2S186.1,72.6,186.1,71.9
			C186.1,71.9,186.1,71.9,186.1,71.9z"/>
		<path class="st5" d="M327.3,74.5h-9.8V70h9.8V74.5z M318,74h8.8v-3.5H318V74z"/>
		<rect x="318.3" y="70.8" class="st5" width="6.3" height="3"/>
		<rect x="327.3" y="71" class="st5" width="0.9" height="2.4"/>
		<polygon class="st5" points="175.6,109.6 170.2,104.5 175.6,99.5 176.5,100.4 172,104.5 176.5,108.7 		"/>
		<polygon class="st5" points="324.4,99.5 329.8,104.5 324.4,109.6 323.5,108.7 328,104.5 323.5,100.4 		"/>
		<path class="st5" d="M259.5,67.8h-19.1c-0.7,0-1.2-0.5-1.2-1.2l0,0c0-0.7,0.5-1.2,1.2-1.2h19.1c0.7,0,1.2,0.5,1.2,1.2l0,0
			C260.7,67.3,260.2,67.8,259.5,67.8z"/>
		<path class="st7" d="M184.4,179.4v-4.1c0-0.2,0.2-0.4,0.4-0.4c0,0,0,0,0,0h2.3c0.2,0,0.4,0.2,0.4,0.4c0,0.2-0.2,0.4-0.4,0.4h-1.9
			v1.3h1.6c0.2,0,0.4,0.2,0.4,0.4c0,0.2-0.2,0.4-0.4,0.4c0,0,0,0,0,0h-1.6v1.3h1.9c0.2,0,0.4,0.2,0.4,0.4c0,0.2-0.2,0.4-0.4,0.4
			h-2.3l0,0l0,0C184.6,179.8,184.4,179.6,184.4,179.4C184.4,179.4,184.4,179.4,184.4,179.4z"/>
		<path class="st7" d="M191.4,177.7v1.7c0,0.2-0.2,0.4-0.4,0.4c-0.2,0-0.4-0.2-0.4-0.4v-1.7c0-0.4-0.4-0.7-0.8-0.6
			c-0.3,0-0.6,0.3-0.6,0.6v1.7l0,0l0,0l0,0l0,0c-0.1,0.1-0.2,0.2-0.4,0.2h-0.1c-0.2,0-0.3-0.2-0.3-0.4v-1.7l0,0v-1.1
			c0-0.2,0.2-0.4,0.4-0.4c0,0,0,0,0,0c0.1,0,0.3,0.1,0.3,0.2c0.2-0.1,0.5-0.2,0.8-0.2c0.4,0,0.8,0.2,1.1,0.5
			c0.3-0.3,0.7-0.5,1.1-0.5c0.8,0,1.5,0.7,1.4,1.5c0,0,0,0,0,0v1.7c0,0.2-0.2,0.4-0.4,0.4c-0.2,0-0.4-0.2-0.4-0.4v-1.7
			c0-0.4-0.3-0.7-0.7-0.7c0,0,0,0,0,0c-0.4,0-0.7,0.3-0.8,0.7C191.4,177.6,191.4,177.6,191.4,177.7z"/>
		<path class="st7" d="M198.1,178v1.4c0,0.2-0.2,0.4-0.4,0.4c-0.2,0-0.3-0.1-0.4-0.3c-0.3,0.2-0.6,0.3-0.9,0.3
			c-0.4,0-0.9-0.2-1.2-0.5c-0.6-0.7-0.6-1.8,0-2.5c0.3-0.3,0.7-0.5,1.2-0.5c0.3,0,0.7,0.1,0.9,0.3c0-0.2,0.2-0.3,0.4-0.3
			c0.2,0,0.4,0.2,0.4,0.4V178z M197.4,178c0-0.3-0.1-0.5-0.3-0.7c-0.3-0.4-0.9-0.4-1.2-0.1c0,0,0,0-0.1,0.1
			c-0.2,0.2-0.3,0.5-0.3,0.7c0,0.3,0.1,0.5,0.3,0.7c0.4,0.4,0.9,0.4,1.3,0C197.3,178.5,197.4,178.3,197.4,178L197.4,178z"/>
		<path class="st7" d="M200.2,175.4c0,0.2-0.1,0.4-0.3,0.4c-0.2,0-0.4-0.1-0.4-0.3c0,0,0-0.1,0-0.1v-0.1c0-0.2,0.1-0.4,0.3-0.4
			c0.2,0,0.4,0.1,0.4,0.3c0,0,0,0.1,0,0.1V175.4z M200.2,176.6v2.7c0,0.2-0.1,0.4-0.3,0.4c-0.2,0-0.4-0.1-0.4-0.3c0,0,0-0.1,0-0.1
			v-2.7c0-0.2,0.1-0.4,0.3-0.4c0.2,0,0.4,0.1,0.4,0.3C200.3,176.5,200.3,176.6,200.2,176.6z"/>
		<path class="st7" d="M201.7,174.8c0.2,0,0.4,0.2,0.4,0.4c0,0,0,0,0,0v4.1c0,0.2-0.2,0.4-0.4,0.4c0,0,0,0,0,0
			c-0.2,0-0.4-0.2-0.4-0.4c0,0,0,0,0,0v-4.1C201.4,175,201.5,174.8,201.7,174.8C201.7,174.8,201.7,174.8,201.7,174.8z"/>
		<rect x="183.7" y="184.7" class="st0" width="132.6" height="11.7"/>
		<path class="st2" d="M187.1,191.2c0-1,0.8-1.7,1.7-1.8c0.9,0,1.6,0.7,1.7,1.6l0,0c0,0,0,0.1,0,0.1c0,0.2-0.2,0.3-0.4,0.3h-2.2
			c0,0.2,0.1,0.3,0.2,0.5c0.2,0.2,0.4,0.3,0.7,0.3c0.3,0,0.5,0,0.7-0.2c0.2-0.1,0.4-0.1,0.5,0c0.1,0.1,0.1,0.3,0,0.5
			c-0.3,0.3-0.8,0.5-1.3,0.5C187.9,192.8,187.1,192.1,187.1,191.2z M187.9,190.8h2c-0.2-0.4-0.5-0.7-1-0.8
			C188.4,190.1,188,190.4,187.9,190.8L187.9,190.8z"/>
		<path class="st2" d="M194.5,190.9v1.7c0,0.2-0.2,0.4-0.4,0.4c-0.2,0-0.4-0.2-0.4-0.4v-1.7c0-0.4-0.4-0.7-0.8-0.6
			c-0.3,0-0.6,0.3-0.6,0.6v1.7c0,0,0,0,0,0.1l0,0l0,0l0,0c-0.1,0.1-0.2,0.2-0.4,0.2h-0.1c-0.2,0-0.3-0.2-0.3-0.4v-1.7l0,0v-1.1
			c0-0.2,0.2-0.4,0.4-0.4c0,0,0,0,0,0c0.1,0,0.3,0.1,0.3,0.2c0.2-0.1,0.5-0.2,0.8-0.2c0.4,0,0.8,0.2,1.1,0.5
			c0.3-0.3,0.7-0.5,1.1-0.5c0.8,0,1.5,0.7,1.5,1.5v1.7c0,0.2-0.2,0.3-0.4,0.3c-0.2,0-0.3-0.2-0.3-0.3v-1.7c0-0.4-0.3-0.7-0.7-0.7
			S194.6,190.4,194.5,190.9L194.5,190.9L194.5,190.9z"/>
		<path class="st2" d="M201.2,191.2v1.4c0,0.2-0.2,0.4-0.4,0.4c-0.2,0-0.3-0.1-0.3-0.3c-0.3,0.2-0.6,0.3-0.9,0.3
			c-0.4,0-0.9-0.2-1.2-0.5c-0.6-0.7-0.6-1.8,0-2.5c0.6-0.6,1.5-0.7,2.1-0.2c0-0.2,0.2-0.3,0.4-0.3c0.2,0,0.4,0.2,0.4,0.4V191.2z
			 M200.5,191.2c0-0.3-0.1-0.5-0.3-0.7c-0.2-0.2-0.4-0.3-0.7-0.3c-0.2,0-0.5,0.1-0.6,0.3c-0.2,0.2-0.3,0.5-0.3,0.7
			c0,0.3,0.1,0.5,0.3,0.7c0.2,0.2,0.4,0.3,0.6,0.3c0.2,0,0.5-0.1,0.7-0.3C200.4,191.7,200.5,191.4,200.5,191.2L200.5,191.2z"/>
		<path class="st2" d="M203.4,188.5c0,0.2-0.2,0.4-0.4,0.4s-0.4-0.2-0.4-0.4c0,0,0,0,0,0v-0.1c0-0.2,0.2-0.4,0.4-0.4
			c0.2,0,0.4,0.2,0.4,0.4V188.5z M203.4,189.8v2.7c0,0.2-0.2,0.4-0.4,0.4c-0.2,0-0.4-0.2-0.4-0.4v-2.7c0-0.2,0.2-0.4,0.4-0.4
			S203.4,189.6,203.4,189.8C203.4,189.8,203.4,189.8,203.4,189.8z"/>
		<path class="st2" d="M204.9,188c0.2,0,0.4,0.2,0.4,0.4v4.1c0,0.2-0.2,0.4-0.4,0.4c-0.2,0-0.4-0.2-0.4-0.4v-4.1
			C204.5,188.2,204.6,188,204.9,188z"/>
		<path class="st2" d="M209.1,191.2v1.4c0,0.2-0.1,0.4-0.3,0.4c-0.2,0-0.4-0.1-0.4-0.3c-0.3,0.2-0.6,0.3-0.9,0.3
			c-0.4,0-0.9-0.2-1.2-0.5c-0.6-0.7-0.6-1.8,0-2.5c0.3-0.3,0.7-0.5,1.2-0.5c0.3,0,0.7,0.1,0.9,0.3c0-0.2,0.2-0.4,0.4-0.3
			c0.2,0,0.4,0.2,0.3,0.4V191.2z M208.4,191.2c0-0.3-0.1-0.5-0.3-0.7c-0.2-0.2-0.4-0.3-0.6-0.3c-0.2,0-0.5,0.1-0.6,0.3
			c-0.2,0.2-0.3,0.5-0.3,0.7c0,0.3,0.1,0.5,0.3,0.7c0.2,0.2,0.4,0.3,0.6,0.3c0.2,0,0.5-0.1,0.6-0.3
			C208.3,191.7,208.4,191.4,208.4,191.2z"/>
		<path class="st2" d="M213.7,192.5c0,0.2-0.2,0.4-0.4,0.4c-0.2,0-0.3-0.1-0.4-0.3c-0.8,0.5-1.9,0.3-2.4-0.6
			c-0.5-0.8-0.3-1.9,0.6-2.4c0.3-0.2,0.6-0.3,0.9-0.3c0.3,0,0.7,0.1,0.9,0.3v-1.3c0-0.2,0.2-0.4,0.4-0.4c0,0,0,0,0,0
			c0.2,0,0.4,0.2,0.4,0.4c0,0,0,0,0,0v2.8l0,0L213.7,192.5z M212,190.2c-0.3,0-0.5,0.1-0.7,0.3c-0.2,0.2-0.3,0.4-0.3,0.7
			c0,0.3,0.1,0.5,0.3,0.7c0.3,0.4,0.9,0.4,1.3,0c0,0,0,0,0,0c0.2-0.2,0.3-0.4,0.3-0.7c0-0.3-0.1-0.5-0.3-0.7
			C212.5,190.3,212.2,190.2,212,190.2L212,190.2z"/>
		<path class="st2" d="M217.3,189.8c0,0.2-0.2,0.4-0.4,0.4c-0.2,0-0.3,0-0.4,0.1c-0.1,0.1-0.2,0.2-0.3,0.3c-0.1,0.2-0.2,0.4-0.3,0.6
			v1.3c0,0.2-0.2,0.3-0.4,0.3c-0.2,0-0.3-0.2-0.3-0.3v-2.8c0-0.2,0.2-0.3,0.4-0.3c0.2,0,0.3,0.2,0.3,0.3v0.1c0-0.1,0.1-0.1,0.1-0.1
			c0.3-0.2,0.6-0.3,0.9-0.3C217.1,189.4,217.3,189.6,217.3,189.8C217.3,189.8,217.3,189.8,217.3,189.8z"/>
		<path class="st2" d="M217.6,191.2c0-0.9,0.7-1.7,1.7-1.7c0,0,0,0,0,0c0.9,0,1.7,0.7,1.7,1.6v0.1c0,0.2-0.2,0.3-0.4,0.3h-2.2
			c0,0.2,0.1,0.3,0.2,0.5c0.4,0.4,1,0.4,1.4,0.1c0.2-0.1,0.4-0.1,0.5,0c0.1,0.1,0.1,0.3,0,0.5c-0.3,0.3-0.8,0.5-1.3,0.5
			C218.4,192.9,217.6,192.1,217.6,191.2z M218.4,190.8h2c-0.2-0.4-0.5-0.7-1-0.8C218.9,190.1,218.5,190.4,218.4,190.8z"/>
		<path class="st2" d="M221.9,191.9c0.1-0.2,0.3-0.2,0.5-0.1c0,0,0,0,0,0c0.2,0.2,0.5,0.3,0.8,0.3c0.2,0,0.3,0,0.5-0.1
			c0.1,0,0.1-0.1,0.1-0.2c0,0,0,0,0-0.1s0-0.1-0.1-0.1c-0.2-0.1-0.4-0.2-0.6-0.2l0,0c-0.2,0-0.4-0.1-0.6-0.2
			c-0.2-0.1-0.4-0.2-0.5-0.4c-0.1-0.1-0.1-0.3-0.1-0.4c0-0.3,0.2-0.6,0.4-0.8c0.3-0.2,0.6-0.3,0.9-0.3c0.4,0,0.7,0.1,1.1,0.4
			c0.2,0.1,0.2,0.3,0.1,0.5c-0.1,0.2-0.3,0.2-0.5,0.1c0,0,0,0,0,0c-0.2-0.1-0.4-0.2-0.6-0.3c-0.2,0-0.3,0-0.4,0.1
			c-0.1,0.1-0.1,0.1-0.1,0.2s0,0,0,0.1c0,0,0,0.1,0.1,0.1c0.2,0.1,0.3,0.2,0.5,0.2l0,0c0.2,0,0.4,0.1,0.6,0.2
			c0.2,0.1,0.4,0.2,0.5,0.4c0.1,0.1,0.1,0.3,0.1,0.5c0,0.3-0.2,0.6-0.4,0.8c-0.3,0.2-0.6,0.3-0.9,0.3c-0.5,0-0.9-0.2-1.2-0.5
			C221.8,192.3,221.8,192.1,221.9,191.9z"/>
		<path class="st2" d="M225.3,191.9c0.1-0.2,0.4-0.2,0.5-0.1c0,0,0,0,0,0c0.2,0.2,0.5,0.3,0.8,0.3c0.2,0,0.3,0,0.5-0.1
			c0.1-0.1,0.1-0.2,0.1-0.2c0,0,0,0,0-0.1c0,0-0.1-0.1-0.1-0.1c-0.2-0.1-0.4-0.2-0.6-0.2l0,0c-0.2,0-0.4-0.1-0.6-0.2
			c-0.2-0.1-0.4-0.2-0.5-0.4c-0.1-0.1-0.1-0.3-0.1-0.4c0-0.3,0.2-0.6,0.4-0.8c0.3-0.2,0.6-0.3,0.9-0.3c0.4,0,0.7,0.2,1,0.4
			c0.2,0.1,0.2,0.3,0.1,0.5c-0.1,0.2-0.3,0.2-0.5,0.1c0,0,0,0,0,0c-0.2-0.1-0.4-0.2-0.6-0.3c-0.2,0-0.3,0-0.4,0.1
			c-0.1,0-0.1,0.1-0.1,0.2c0,0,0,0,0,0.1c0,0,0,0.1,0.1,0.1c0.2,0.1,0.3,0.2,0.5,0.2l0,0c0.2,0,0.5,0.1,0.7,0.2
			c0.2,0.1,0.4,0.2,0.5,0.4c0.1,0.1,0.1,0.3,0.1,0.5c0,0.3-0.2,0.6-0.4,0.8c-0.3,0.2-0.6,0.3-0.9,0.3c-0.5,0-0.9-0.2-1.2-0.5
			C225.2,192.3,225.2,192.1,225.3,191.9z"/>
		<path class="st2" d="M233.5,190.4c0,0.4-0.1,0.8-0.3,1.1l0,0c-0.1,0.1-0.1,0.2-0.2,0.2c-0.1,0.2-0.3,0.3-0.6,0.3h-0.2
			c-0.2,0-0.4-0.1-0.5-0.3c-0.1-0.1-0.1-0.1-0.1-0.2c-0.5,0.3-1.2,0.2-1.6-0.3c-0.5-0.6-0.5-1.4,0-2c0.3-0.3,0.6-0.4,1-0.4
			c0.4,0,0.7,0.1,1,0.4c0.2,0.3,0.4,0.6,0.4,1v0.9h0.1c0,0,0.1-0.1,0.1-0.1c0.1-0.2,0.2-0.5,0.2-0.8c0-0.9-0.8-1.7-1.7-1.7
			c-0.9,0-1.7,0.7-1.7,1.7c0,0.9,0.7,1.7,1.7,1.7c0.1,0,0.3,0,0.4,0c0.2,0,0.4,0.1,0.4,0.3c0,0.2-0.1,0.3-0.2,0.4
			c-0.2,0.1-0.4,0.1-0.6,0.1c-1.4,0-2.4-1.1-2.4-2.5c0-1.4,1.1-2.4,2.5-2.4C232.5,188.1,233.6,189.2,233.5,190.4L233.5,190.4z
			 M231.7,190.4c0-0.2-0.1-0.3-0.2-0.5c-0.1-0.1-0.2-0.2-0.4-0.2c-0.2,0-0.3,0.1-0.4,0.2c-0.2,0.3-0.2,0.7,0,0.9
			c0.1,0.1,0.2,0.2,0.4,0.2c0.2,0,0.3-0.1,0.4-0.2C231.6,190.8,231.7,190.6,231.7,190.4z"/>
		<path class="st2" d="M238.7,190.9v1.7c0,0.2-0.2,0.4-0.4,0.4c-0.2,0-0.4-0.2-0.4-0.4v-1.7c0-0.4-0.4-0.7-0.8-0.6
			c-0.3,0-0.6,0.3-0.6,0.6v1.7c0,0,0,0,0,0.1l0,0l0,0l0,0c-0.1,0.1-0.2,0.2-0.4,0.2h-0.1c-0.2,0-0.3-0.2-0.3-0.4v-1.7l0,0v-1.1
			c0-0.2,0.2-0.4,0.4-0.4c0,0,0,0,0,0c0.1,0,0.3,0.1,0.3,0.2c0.2-0.1,0.5-0.2,0.8-0.2c0.4,0,0.8,0.2,1.1,0.5
			c0.6-0.6,1.5-0.6,2.1-0.1c0.3,0.3,0.5,0.7,0.5,1.1v1.7c0,0.2-0.2,0.4-0.4,0.4c-0.2,0-0.4-0.2-0.4-0.4v-1.7c0-0.4-0.3-0.7-0.7-0.7
			c0,0,0,0,0,0c-0.4,0-0.7,0.3-0.8,0.7C238.7,190.8,238.7,190.8,238.7,190.9z"/>
		<path class="st2" d="M245.4,191.2v1.4c0,0.2-0.2,0.4-0.4,0.4c-0.2,0-0.3-0.1-0.3-0.3c-0.3,0.2-0.6,0.3-0.9,0.3
			c-0.4,0-0.9-0.2-1.2-0.5c-0.6-0.7-0.6-1.8,0-2.5c0.6-0.6,1.5-0.7,2.1-0.2c0-0.2,0.2-0.3,0.4-0.3c0.2,0,0.4,0.2,0.4,0.4V191.2z
			 M244.7,191.2c0-0.3-0.1-0.5-0.3-0.7c-0.2-0.2-0.4-0.3-0.7-0.3c-0.2,0-0.5,0.1-0.6,0.3c-0.2,0.2-0.3,0.5-0.3,0.7
			c0,0.3,0.1,0.5,0.3,0.7c0.2,0.2,0.4,0.3,0.6,0.3c0.2,0,0.5-0.1,0.7-0.3C244.6,191.7,244.7,191.4,244.7,191.2L244.7,191.2z"/>
		<path class="st2" d="M247.5,188.5c0,0.2-0.2,0.4-0.4,0.4s-0.4-0.2-0.4-0.4c0,0,0,0,0,0v-0.1c0-0.2,0.2-0.4,0.4-0.4
			c0.2,0,0.4,0.2,0.4,0.4V188.5z M247.5,189.8v2.7c0,0.2-0.2,0.4-0.4,0.4c-0.2,0-0.4-0.2-0.4-0.4v-2.7c0-0.2,0.2-0.4,0.4-0.4
			S247.5,189.6,247.5,189.8C247.5,189.8,247.5,189.8,247.5,189.8z"/>
		<path class="st2" d="M249,188c0.2,0,0.4,0.2,0.4,0.4v4.1c0,0.2-0.2,0.4-0.4,0.4c-0.2,0-0.4-0.2-0.4-0.4v-4.1
			C248.6,188.2,248.8,188,249,188z"/>
		<path class="st2" d="M250.8,191.9c0.3-0.1,0.6,0.1,0.6,0.4c0.1,0.3-0.1,0.6-0.4,0.6c-0.1,0-0.2,0-0.3,0c-0.3,0.1-0.6-0.1-0.6-0.4
			c-0.1-0.3,0.1-0.6,0.4-0.6C250.6,191.9,250.7,191.9,250.8,191.9z"/>
		<path class="st2" d="M251.6,191.2c0-1,0.8-1.8,1.8-1.8c0.4,0,0.8,0.1,1.1,0.4c0.2,0.1,0.2,0.4,0.1,0.5c-0.1,0.2-0.4,0.2-0.5,0.1
			c0,0,0,0,0,0c-0.2-0.1-0.4-0.2-0.7-0.2c-0.6,0-1,0.4-1,1s0.4,1,1,1c0.2,0,0.5-0.1,0.7-0.2c0.1-0.2,0.4-0.2,0.5,0
			c0.2,0.1,0.2,0.4,0,0.5c0,0-0.1,0.1-0.1,0.1c-0.3,0.2-0.7,0.4-1.1,0.4C252.4,192.9,251.6,192.1,251.6,191.2z"/>
		<path class="st2" d="M256,192.4c-0.3-0.3-0.5-0.8-0.5-1.2c0-0.5,0.2-0.9,0.5-1.2c0.3-0.3,0.7-0.5,1.2-0.5c0.4,0,0.9,0.2,1.2,0.5
			c0.3,0.3,0.5,0.8,0.5,1.2c0,0.5-0.2,0.9-0.5,1.2c-0.3,0.3-0.7,0.5-1.2,0.5C256.7,192.9,256.3,192.7,256,192.4z M256.3,191.2
			c0,0.3,0.1,0.5,0.2,0.7c0.2,0.2,0.4,0.3,0.7,0.3c0.2,0,0.5-0.1,0.6-0.3c0.2-0.2,0.3-0.5,0.3-0.7c0-0.3-0.1-0.5-0.3-0.7
			c-0.2-0.2-0.4-0.3-0.6-0.3c-0.2,0-0.5,0.1-0.7,0.3C256.4,190.6,256.3,190.9,256.3,191.2L256.3,191.2z"/>
		<path class="st2" d="M263,190.9v1.7c0,0.2-0.2,0.4-0.4,0.4c-0.2,0-0.4-0.2-0.4-0.4v-1.7c0-0.4-0.4-0.7-0.8-0.6
			c-0.3,0-0.6,0.3-0.6,0.6v1.7c0,0,0,0,0,0.1l0,0l0,0l0,0c-0.1,0.1-0.2,0.2-0.4,0.2h-0.1c-0.2,0-0.3-0.2-0.3-0.4v-1.7l0,0v-1.1
			c0-0.2,0.2-0.4,0.4-0.4c0,0,0,0,0,0c0.1,0,0.3,0.1,0.3,0.2c0.2-0.1,0.5-0.2,0.8-0.2c0.4,0,0.8,0.2,1.1,0.5
			c0.6-0.6,1.5-0.6,2.1-0.1c0.3,0.3,0.5,0.7,0.5,1.1v1.7c0,0.2-0.2,0.4-0.4,0.4c-0.2,0-0.4-0.2-0.4-0.4v-1.7c0-0.4-0.3-0.7-0.7-0.7
			c0,0,0,0,0,0c-0.4,0-0.7,0.3-0.8,0.7C263,190.8,263,190.8,263,190.9z"/>
		<path class="st7" d="M186.1,206.2h-0.9v1.5c0,0.2-0.2,0.4-0.4,0.3c-0.2,0-0.3-0.2-0.3-0.3v-4.1c0-0.2,0.2-0.4,0.4-0.4c0,0,0,0,0,0
			h1.2c0.8,0,1.5,0.7,1.5,1.5S186.9,206.2,186.1,206.2z M185.2,205.4h0.9c0.4,0,0.7-0.3,0.7-0.7s-0.3-0.7-0.7-0.7h-0.9V205.4z"/>
		<path class="st7" d="M191.4,206.3v1.4c0,0.2-0.2,0.4-0.4,0.4c-0.2,0-0.3-0.1-0.3-0.3c-0.7,0.5-1.6,0.4-2.1-0.2
			c-0.3-0.3-0.5-0.8-0.5-1.2c0-0.5,0.2-0.9,0.5-1.2c0.3-0.3,0.7-0.5,1.2-0.5c0.3,0,0.7,0.1,0.9,0.3c0-0.2,0.2-0.3,0.4-0.3
			c0.2,0,0.4,0.2,0.4,0.4V206.3z M190.6,206.3c0-0.3-0.1-0.5-0.3-0.7c-0.2-0.2-0.4-0.3-0.6-0.3c-0.3,0-0.5,0.1-0.7,0.3
			c-0.2,0.2-0.3,0.5-0.3,0.7c0,0.3,0.1,0.5,0.3,0.7c0.2,0.2,0.4,0.3,0.7,0.3c0.2,0,0.5-0.1,0.6-0.3
			C190.6,206.9,190.7,206.6,190.6,206.3z"/>
		<path class="st7" d="M192.6,207.1c0.1-0.2,0.3-0.2,0.5-0.1c0,0,0,0,0,0c0.2,0.2,0.5,0.3,0.8,0.3c0.2,0,0.3,0,0.5-0.1
			c0.1,0,0.1-0.1,0.1-0.2c0,0,0-0.1,0-0.1c0,0-0.1-0.1-0.1-0.1c-0.2-0.1-0.4-0.2-0.6-0.2l0,0c-0.2,0-0.4-0.1-0.6-0.2
			c-0.2-0.1-0.4-0.2-0.5-0.4c-0.1-0.1-0.1-0.3-0.1-0.4c0-0.3,0.2-0.6,0.4-0.8c0.3-0.2,0.6-0.3,0.9-0.3c0.4,0,0.8,0.2,1.1,0.4
			c0.2,0.1,0.2,0.3,0.1,0.5c-0.1,0.2-0.3,0.2-0.5,0.1c0,0,0,0,0,0c-0.2-0.1-0.4-0.2-0.6-0.3c-0.2,0-0.3,0-0.4,0.1
			c-0.1,0-0.1,0.1-0.1,0.2c0,0,0,0,0,0.1c0,0,0,0.1,0.1,0.1c0.2,0.1,0.3,0.1,0.5,0.2l0,0c0.2,0,0.4,0.1,0.6,0.2
			c0.2,0.1,0.4,0.2,0.5,0.4c0.1,0.1,0.1,0.3,0.1,0.5c0,0.3-0.2,0.6-0.4,0.8c-0.3,0.2-0.6,0.3-0.9,0.3c-0.5,0-0.9-0.2-1.2-0.5
			C192.5,207.5,192.5,207.2,192.6,207.1z"/>
		<path class="st7" d="M196,207.1c0.1-0.2,0.3-0.2,0.5-0.1c0,0,0,0,0,0c0.2,0.2,0.5,0.3,0.8,0.3c0.2,0,0.3,0,0.5-0.1
			c0.1,0,0.1-0.1,0.1-0.2c0,0,0,0,0-0.1c0,0-0.1-0.1-0.1-0.1c-0.2-0.1-0.4-0.2-0.6-0.2l0,0c-0.2,0-0.4-0.1-0.6-0.2
			c-0.2-0.1-0.4-0.2-0.5-0.4c-0.1-0.1-0.1-0.3-0.1-0.4c0-0.3,0.2-0.6,0.4-0.8c0.3-0.2,0.6-0.3,0.9-0.3c0.4,0,0.8,0.1,1.1,0.4
			c0.2,0.1,0.3,0.3,0.2,0.5c-0.1,0.2-0.3,0.3-0.5,0.2c0,0,0,0-0.1,0c-0.2-0.1-0.4-0.2-0.6-0.3c-0.2,0-0.3,0-0.4,0.1
			c-0.1,0-0.1,0.1-0.1,0.2c0,0,0,0,0,0.1c0,0,0,0.1,0.1,0.1c0.2,0.1,0.3,0.1,0.5,0.2l0,0c0.2,0,0.4,0.1,0.7,0.2
			c0.2,0.1,0.4,0.2,0.5,0.4c0.1,0.1,0.1,0.3,0.1,0.5c0,0.3-0.2,0.6-0.4,0.8c-0.3,0.2-0.6,0.3-0.9,0.3c-0.5,0-0.9-0.2-1.2-0.5
			C195.9,207.5,195.9,207.2,196,207.1z"/>
		<path class="st7" d="M204,205.1l-1.2,2.7l0,0l0,0l0,0l0,0l0,0l0,0c0,0,0,0-0.1,0l0,0h-0.1h-0.2c0,0,0,0-0.1,0l0,0c0,0,0,0-0.1,0
			l0,0l0,0l0,0l0,0l0,0l0,0l-0.5-1.2l-0.5,1.2l0,0l0,0l0,0l0,0l0,0c0,0,0,0-0.1,0l0,0l0,0h-0.2h-0.1l0,0c0,0,0,0-0.1,0l0,0l0,0l0,0
			l0,0l0,0l0,0l-1.1-2.7c-0.1-0.2,0-0.4,0.2-0.5c0,0,0,0,0,0c0.2-0.1,0.4,0,0.4,0.2c0,0,0,0,0,0l0.8,1.9l0.5-1.2
			c0.1-0.1,0.2-0.2,0.3-0.2c0.1,0,0.3,0.1,0.3,0.2l0.5,1.2l0.8-1.9c0.1-0.2,0.2-0.3,0.4-0.2c0,0,0,0,0,0c0.1,0.2,0,0.4-0.2,0.5
			C204.1,205.1,204.1,205.2,204,205.1z"/>
		<path class="st7" d="M205.6,207.6c-0.3-0.3-0.5-0.8-0.5-1.2c0-0.5,0.2-0.9,0.5-1.2c0.3-0.3,0.7-0.5,1.2-0.5c0.4,0,0.9,0.2,1.2,0.5
			c0.3,0.3,0.5,0.8,0.5,1.2c0,0.5-0.2,0.9-0.5,1.2c-0.3,0.3-0.7,0.5-1.2,0.5C206.4,208.1,206,207.9,205.6,207.6z M205.9,206.3
			c0,0.3,0.1,0.5,0.2,0.7c0.2,0.2,0.4,0.3,0.7,0.3c0.2,0,0.5-0.1,0.6-0.3c0.2-0.2,0.3-0.5,0.3-0.7c0-0.3-0.1-0.5-0.3-0.7
			c-0.2-0.2-0.4-0.3-0.6-0.3c-0.2,0-0.5,0.1-0.7,0.3C206,205.8,205.9,206.1,205.9,206.3L205.9,206.3z"/>
		<path class="st7" d="M211.7,205c0,0.2-0.2,0.4-0.4,0.4c-0.2,0-0.3,0-0.4,0.1c-0.1,0.1-0.2,0.2-0.3,0.3c-0.1,0.2-0.2,0.4-0.3,0.6
			v1.3c0,0.2-0.2,0.4-0.4,0.4c-0.2,0-0.4-0.2-0.4-0.4V205c0-0.2,0.2-0.4,0.4-0.4c0.2,0,0.4,0.2,0.4,0.4l0,0c0-0.1,0.1-0.1,0.1-0.1
			c0.3-0.2,0.6-0.3,0.9-0.3C211.5,204.6,211.7,204.7,211.7,205C211.7,205,211.7,205,211.7,205z"/>
		<path class="st7" d="M215.6,207.7c0,0.2-0.2,0.4-0.4,0.4c0,0,0,0,0,0c-0.2,0-0.3-0.1-0.4-0.3c-0.3,0.2-0.6,0.3-0.9,0.3
			c-1,0-1.8-0.8-1.8-1.8s0.8-1.8,1.8-1.8c0.3,0,0.7,0.1,0.9,0.3v-1.3c0-0.2,0.2-0.4,0.4-0.4c0,0,0,0,0,0c0.2,0,0.4,0.2,0.4,0.4
			c0,0,0,0,0,0v2.8l0,0V207.7z M213.9,205.3c-0.3,0-0.5,0.1-0.7,0.3c-0.2,0.2-0.3,0.4-0.3,0.7c0,0.3,0.1,0.5,0.3,0.7
			c0.2,0.2,0.4,0.3,0.7,0.3c0.3,0,0.5-0.1,0.7-0.3c0.2-0.2,0.3-0.4,0.3-0.7c0-0.3-0.1-0.5-0.3-0.7
			C214.4,205.4,214.2,205.3,213.9,205.3L213.9,205.3z"/>
		<rect x="183.7" y="213.1" class="st0" width="132.6" height="11.7"/>
		<path class="st2" d="M188.2,217.7l-0.5,0.4c-0.1,0-0.1,0.1-0.2,0.1c-0.1,0-0.2-0.1-0.2-0.2c0-0.1,0.1-0.2,0.2-0.2l0.6-0.3
			l-0.6-0.3c-0.1,0-0.2-0.1-0.2-0.2c0-0.1,0.1-0.2,0.2-0.2c0,0,0,0,0,0c0.1,0,0.1,0,0.2,0.1l0.5,0.4l-0.1-0.6c0-0.1,0.1-0.2,0.2-0.3
			c0,0,0,0,0,0c0.1,0,0.2,0.1,0.2,0.2c0,0,0,0,0,0l-0.1,0.6l0.5-0.4c0,0,0.1-0.1,0.2-0.1c0.1,0,0.2,0.1,0.2,0.2
			c0,0.1-0.1,0.2-0.2,0.2l-0.6,0.3l0.6,0.3c0.1,0,0.2,0.1,0.2,0.2c0,0.1-0.1,0.2-0.2,0.2c-0.1,0-0.1,0-0.2-0.1l-0.5-0.4l0.1,0.6
			c0,0.1-0.1,0.2-0.2,0.3c0,0,0,0,0,0c-0.1,0-0.2-0.1-0.2-0.2c0,0,0,0,0,0L188.2,217.7z"/>
		<path class="st2" d="M191.2,217.7l-0.5,0.4c-0.1,0-0.1,0.1-0.2,0.1c-0.1,0-0.2-0.1-0.2-0.2c0,0,0,0,0,0c0-0.1,0.1-0.2,0.2-0.2
			l0.6-0.3l-0.6-0.3c-0.1,0-0.2-0.1-0.2-0.2c0-0.1,0.1-0.2,0.2-0.2c0,0,0,0,0,0c0.1,0,0.1,0,0.2,0.1l0.5,0.4l-0.1-0.6
			c0-0.1,0.1-0.2,0.2-0.3c0,0,0,0,0,0c0.1,0,0.2,0.1,0.2,0.2c0,0,0,0,0,0l-0.1,0.6l0.5-0.4c0,0,0.1-0.1,0.2-0.1
			c0.1,0,0.2,0.1,0.2,0.2c0,0.1-0.1,0.2-0.2,0.2l-0.6,0.3l0.6,0.3c0.1,0,0.2,0.1,0.2,0.2c0,0.1-0.1,0.2-0.2,0.2
			c-0.1,0-0.1,0-0.2-0.1l-0.5-0.4l0.1,0.6c0,0.1-0.1,0.2-0.2,0.3c0,0,0,0,0,0c-0.1,0-0.2-0.1-0.2-0.2c0,0,0,0,0,0L191.2,217.7z"/>
		<path class="st2" d="M194.2,217.7l-0.5,0.4c-0.1,0-0.1,0.1-0.2,0.1c-0.1,0-0.2-0.1-0.2-0.2c0,0,0,0,0,0c0-0.1,0.1-0.2,0.2-0.2
			l0.6-0.3l-0.6-0.3c-0.1,0-0.2-0.1-0.2-0.2c0-0.1,0.1-0.2,0.2-0.2c0,0,0,0,0,0c0.1,0,0.1,0,0.2,0.1l0.5,0.4l-0.1-0.6
			c0-0.1,0.1-0.2,0.2-0.3c0,0,0,0,0,0c0.1,0,0.2,0.1,0.2,0.2c0,0,0,0,0,0l-0.1,0.6l0.5-0.4c0,0,0.1-0.1,0.2-0.1
			c0.1,0,0.2,0.1,0.2,0.2c0,0.1-0.1,0.2-0.2,0.2l-0.6,0.3l0.6,0.3c0.1,0,0.2,0.1,0.2,0.2c0,0.1-0.1,0.2-0.2,0.2
			c-0.1,0-0.1,0-0.2-0.1l-0.5-0.4l0.1,0.6c0,0.1-0.1,0.2-0.2,0.3c0,0,0,0,0,0c-0.1,0-0.2-0.1-0.2-0.2c0,0,0,0,0,0L194.2,217.7z"/>
		<path class="st2" d="M197.2,217.7l-0.5,0.4c-0.1,0-0.1,0.1-0.2,0.1c-0.1,0-0.2-0.1-0.2-0.2c0,0,0,0,0,0c0-0.1,0.1-0.2,0.2-0.2
			l0.6-0.3l-0.6-0.3c-0.1,0-0.2-0.1-0.2-0.2c0-0.1,0.1-0.2,0.2-0.2c0,0,0,0,0,0c0.1,0,0.1,0,0.2,0.1l0.5,0.4l-0.1-0.6
			c0-0.1,0.1-0.2,0.2-0.3c0,0,0,0,0,0c0.1,0,0.2,0.1,0.2,0.2c0,0,0,0,0,0l-0.1,0.6l0.5-0.4c0,0,0.1-0.1,0.2-0.1
			c0.1,0,0.2,0.1,0.2,0.2c0,0.1-0.1,0.2-0.2,0.2l-0.6,0.3l0.6,0.3c0.1,0,0.2,0.1,0.2,0.2c0,0.1-0.1,0.2-0.2,0.2
			c-0.1,0-0.1,0-0.2-0.1l-0.5-0.4l0.1,0.6c0,0.1-0.1,0.2-0.2,0.3c0,0,0,0,0,0c-0.1,0-0.2-0.1-0.2-0.2c0,0,0,0,0,0L197.2,217.7z"/>
		<path class="st2" d="M200.2,217.7l-0.5,0.4c-0.1,0-0.1,0.1-0.2,0.1c-0.1,0-0.2-0.1-0.2-0.2c0,0,0,0,0,0c0-0.1,0.1-0.2,0.2-0.2
			l0.6-0.3l-0.6-0.3c-0.1,0-0.2-0.1-0.2-0.2c0-0.1,0.1-0.2,0.2-0.2c0,0,0,0,0,0c0.1,0,0.1,0,0.2,0.1l0.5,0.4l-0.1-0.6
			c0-0.1,0.1-0.2,0.2-0.3c0,0,0,0,0,0c0.1,0,0.2,0.1,0.2,0.2c0,0,0,0,0,0l-0.1,0.6l0.5-0.4c0,0,0.1-0.1,0.2-0.1
			c0.1,0,0.2,0.1,0.2,0.2c0,0.1-0.1,0.2-0.2,0.2l-0.6,0.3l0.6,0.3c0.1,0,0.2,0.1,0.2,0.2c0,0.1-0.1,0.2-0.2,0.2
			c-0.1,0-0.1,0-0.2-0.1l-0.5-0.4l0.1,0.6c0,0.1-0.1,0.2-0.2,0.3c0,0,0,0,0,0c-0.1,0-0.2-0.1-0.2-0.2c0,0,0,0,0,0L200.2,217.7z"/>
		<path class="st2" d="M203.2,217.7l-0.5,0.4c-0.1,0-0.1,0.1-0.2,0.1c-0.1,0-0.2-0.1-0.2-0.2c0,0,0,0,0,0c0-0.1,0.1-0.2,0.2-0.2
			l0.6-0.3l-0.6-0.3c-0.1,0-0.2-0.1-0.2-0.2c0-0.1,0.1-0.2,0.2-0.2c0,0,0,0,0,0c0.1,0,0.1,0,0.2,0.1l0.5,0.4l-0.1-0.6
			c0-0.1,0.1-0.2,0.2-0.3c0,0,0,0,0,0c0.1,0,0.2,0.1,0.2,0.2c0,0,0,0,0,0l-0.1,0.6l0.5-0.4c0,0,0.1-0.1,0.2-0.1
			c0.1,0,0.2,0.1,0.2,0.2c0,0.1-0.1,0.2-0.2,0.2l-0.6,0.3l0.6,0.3c0.1,0,0.2,0.1,0.2,0.2c0,0.1-0.1,0.2-0.2,0.2
			c-0.1,0-0.1,0-0.2-0.1l-0.5-0.4l0.1,0.6c0,0.1-0.1,0.2-0.2,0.3c0,0,0,0,0,0c-0.1,0-0.2-0.1-0.2-0.2c0,0,0,0,0,0L203.2,217.7z"/>
		<path class="st2" d="M206.2,217.7l-0.5,0.4c-0.1,0-0.1,0.1-0.2,0.1c-0.1,0-0.2-0.1-0.2-0.2c0,0,0,0,0,0c0-0.1,0.1-0.2,0.2-0.2
			l0.6-0.3l-0.6-0.3c-0.1,0-0.2-0.1-0.2-0.2c0-0.1,0.1-0.2,0.2-0.2c0,0,0,0,0,0c0.1,0,0.1,0,0.2,0.1l0.5,0.4l-0.1-0.6
			c0-0.1,0.1-0.2,0.2-0.3c0,0,0,0,0,0c0.1,0,0.2,0.1,0.2,0.2c0,0,0,0,0,0l-0.1,0.6l0.5-0.4c0,0,0.1-0.1,0.2-0.1
			c0.1,0,0.2,0.1,0.2,0.2c0,0.1-0.1,0.2-0.2,0.2l-0.6,0.3l0.6,0.3c0.1,0,0.2,0.1,0.2,0.2c0,0.1-0.1,0.2-0.2,0.2
			c-0.1,0-0.1,0-0.2-0.1l-0.5-0.4l0.1,0.6c0,0.1-0.1,0.2-0.2,0.3c0,0,0,0,0,0c-0.1,0-0.2-0.1-0.2-0.2c0,0,0,0,0,0L206.2,217.7z"/>
		<path class="st2" d="M209.2,217.7l-0.5,0.4c-0.1,0-0.1,0.1-0.2,0.1c-0.1,0-0.2-0.1-0.2-0.2c0,0,0,0,0,0c0-0.1,0.1-0.2,0.2-0.2
			l0.6-0.3l-0.6-0.3c-0.1,0-0.2-0.1-0.2-0.2c0-0.1,0.1-0.2,0.2-0.2c0,0,0,0,0,0c0.1,0,0.1,0,0.2,0.1l0.5,0.4l-0.1-0.6
			c0-0.1,0.1-0.2,0.2-0.3c0,0,0,0,0,0c0.1,0,0.2,0.1,0.2,0.2c0,0,0,0,0,0l-0.1,0.6l0.5-0.4c0,0,0.1-0.1,0.2-0.1
			c0.1,0,0.2,0.1,0.2,0.2c0,0.1-0.1,0.2-0.2,0.2l-0.6,0.3l0.6,0.3c0.1,0,0.2,0.1,0.2,0.2c0,0.1-0.1,0.2-0.2,0.2
			c-0.1,0-0.1,0-0.2-0.1l-0.5-0.4l0.1,0.6c0,0.1-0.1,0.2-0.2,0.3c0,0,0,0,0,0c-0.1,0-0.2-0.1-0.2-0.2c0,0,0,0,0,0L209.2,217.7z"/>
		<path class="st2" d="M212.2,217.7l-0.5,0.4c-0.1,0-0.1,0.1-0.2,0.1c-0.1,0-0.2-0.1-0.2-0.2c0,0,0,0,0,0c0-0.1,0.1-0.2,0.2-0.2
			l0.6-0.3l-0.6-0.3c-0.1,0-0.2-0.1-0.2-0.2c0-0.1,0.1-0.2,0.2-0.2c0,0,0,0,0,0c0.1,0,0.1,0,0.2,0.1l0.5,0.4l-0.1-0.6
			c0-0.1,0.1-0.2,0.2-0.3c0,0,0,0,0,0c0.1,0,0.2,0.1,0.2,0.2c0,0,0,0,0,0l-0.1,0.6l0.5-0.4c0,0,0.1-0.1,0.2-0.1
			c0.1,0,0.2,0.1,0.2,0.2c0,0.1-0.1,0.2-0.2,0.2l-0.6,0.3l0.6,0.3c0.1,0,0.2,0.1,0.2,0.2c0,0.1-0.1,0.2-0.2,0.2
			c-0.1,0-0.1,0-0.2-0.1l-0.5-0.4l0.1,0.6c0,0.1-0.1,0.2-0.2,0.3c0,0,0,0,0,0c-0.1,0-0.2-0.1-0.2-0.2c0,0,0,0,0,0L212.2,217.7z"/>
		<path class="st2" d="M215.2,217.7l-0.5,0.4c-0.1,0-0.1,0.1-0.2,0.1c-0.1,0-0.2-0.1-0.2-0.2c0,0,0,0,0,0c0-0.1,0.1-0.2,0.2-0.2
			l0.6-0.3l-0.6-0.3c-0.1,0-0.2-0.1-0.2-0.2c0-0.1,0.1-0.2,0.2-0.2c0,0,0,0,0,0c0.1,0,0.1,0,0.2,0.1l0.5,0.4l-0.1-0.6
			c0-0.1,0.1-0.2,0.2-0.3c0,0,0,0,0,0c0.1,0,0.2,0.1,0.2,0.2c0,0,0,0,0,0l-0.1,0.6l0.5-0.4c0,0,0.1-0.1,0.2-0.1
			c0.1,0,0.2,0.1,0.2,0.2c0,0.1-0.1,0.2-0.2,0.2l-0.6,0.3l0.6,0.3c0.1,0,0.2,0.1,0.2,0.2c0,0.1-0.1,0.2-0.2,0.2
			c-0.1,0-0.1,0-0.2-0.1l-0.5-0.4l0.1,0.6c0,0.1-0.1,0.2-0.2,0.3c0,0,0,0,0,0c-0.1,0-0.2-0.1-0.2-0.2c0,0,0,0,0,0L215.2,217.7z"/>
		<path class="st2" d="M218.3,217.7l-0.5,0.4c-0.1,0-0.1,0.1-0.2,0.1c-0.1,0-0.2-0.1-0.2-0.2c0,0,0,0,0,0c0-0.1,0.1-0.2,0.2-0.2
			l0.6-0.3l-0.6-0.3c-0.1,0-0.2-0.1-0.2-0.2c0-0.1,0.1-0.2,0.2-0.2c0,0,0,0,0,0c0.1,0,0.1,0,0.2,0.1l0.5,0.4l-0.1-0.6
			c0-0.1,0.1-0.2,0.2-0.3c0,0,0,0,0,0c0.1,0,0.2,0.1,0.2,0.2c0,0,0,0,0,0.1l-0.1,0.6l0.5-0.4c0,0,0.1-0.1,0.2-0.1
			c0.1,0,0.2,0.1,0.2,0.2c0,0.1-0.1,0.2-0.2,0.2l-0.6,0.3l0.6,0.3c0.1,0,0.2,0.1,0.2,0.2c0,0.1-0.1,0.2-0.2,0.2
			c-0.1,0-0.1,0-0.2-0.1l-0.5-0.4l0.1,0.6c0,0.1,0,0.2-0.2,0.3c0,0,0,0-0.1,0c-0.1,0-0.2-0.1-0.2-0.2c0,0,0,0,0,0L218.3,217.7z"/>
		<path class="st2" d="M221.3,217.7l-0.5,0.4c-0.1,0-0.1,0.1-0.2,0.1c-0.1,0-0.2-0.1-0.2-0.2c0-0.1,0.1-0.2,0.2-0.2l0.6-0.3
			l-0.6-0.3c-0.1,0-0.2-0.1-0.2-0.2c0-0.1,0.1-0.2,0.2-0.2c0,0,0,0,0,0c0.1,0,0.1,0,0.2,0.1l0.5,0.4l-0.1-0.6c0-0.1,0.1-0.2,0.2-0.3
			c0,0,0,0,0,0c0.1,0,0.2,0.1,0.2,0.2c0,0,0,0,0,0l-0.1,0.6l0.5-0.4c0,0,0.1-0.1,0.2-0.1c0.1,0,0.2,0.1,0.2,0.2
			c0,0.1-0.1,0.2-0.2,0.2l-0.6,0.3l0.6,0.3c0.1,0,0.2,0.1,0.2,0.2c0,0.1-0.1,0.2-0.2,0.2c-0.1,0-0.1,0-0.2-0.1l-0.5-0.4l0.1,0.6
			c0,0.1-0.1,0.2-0.2,0.3c0,0,0,0,0,0c-0.1,0-0.2-0.1-0.2-0.2c0,0,0,0,0,0L221.3,217.7z"/>
		<path class="st2" d="M224.3,217.7l-0.5,0.4c-0.1,0-0.1,0.1-0.2,0.1c-0.1,0-0.2-0.1-0.2-0.2c0-0.1,0.1-0.2,0.2-0.2l0.6-0.3
			l-0.6-0.3c-0.1,0-0.2-0.1-0.2-0.2c0-0.1,0.1-0.2,0.2-0.2c0,0,0,0,0,0c0.1,0,0.1,0,0.2,0.1l0.5,0.4l-0.1-0.6c0-0.1,0.1-0.2,0.2-0.3
			c0,0,0,0,0,0c0.1,0,0.2,0.1,0.2,0.2c0,0,0,0,0,0l-0.1,0.6l0.5-0.4c0,0,0.1-0.1,0.2-0.1c0.1,0,0.2,0.1,0.2,0.2
			c0,0.1-0.1,0.2-0.2,0.2l-0.6,0.3l0.6,0.3c0.1,0,0.2,0.1,0.2,0.2c0,0.1-0.1,0.2-0.2,0.2c-0.1,0-0.1,0-0.2-0.1l-0.5-0.4l0.1,0.6
			c0,0.1-0.1,0.2-0.2,0.3c0,0,0,0,0,0c-0.1,0-0.2-0.1-0.2-0.2c0,0,0,0,0,0L224.3,217.7z"/>
		<path class="st7" d="M185.2,266c0,0.2-0.2,0.4-0.4,0.4c-0.2,0-0.4-0.2-0.4-0.4c0,0,0,0,0,0v-4l0,0c0-0.1,0.1-0.2,0.2-0.3
			c0.2-0.1,0.4-0.1,0.5,0.1c0,0,0,0,0,0l2.3,3.1V262c0-0.2,0.2-0.4,0.4-0.4c0.2,0,0.4,0.2,0.4,0.4v4c0,0.2-0.2,0.4-0.4,0.4
			c-0.1,0-0.2-0.1-0.3-0.1l0,0l-2.2-3.1L185.2,266z"/>
		<path class="st7" d="M191.1,266.4c-0.8,0-1.4-0.6-1.4-1.5l0,0v-1.7c0-0.2,0.2-0.4,0.4-0.4c0.2,0,0.4,0.2,0.4,0.4l0,0v1.7
			c0,0.4,0.3,0.7,0.7,0.7c0,0,0,0,0,0c0.4,0,0.7-0.3,0.7-0.7v-1.7c0-0.2,0.2-0.4,0.4-0.4c0.2,0,0.4,0.2,0.4,0.4v1.7
			C192.6,265.8,191.9,266.4,191.1,266.4z"/>
		<path class="st7" d="M197,264.4v1.7c0,0.2-0.2,0.4-0.3,0.4c0,0,0,0,0,0c-0.2,0-0.4-0.2-0.4-0.4v-1.7c0-0.4-0.3-0.7-0.7-0.7
			c-0.4,0-0.7,0.3-0.7,0.7c0,0,0,0,0,0v1.7c0,0,0,0,0,0l0,0v0l0,0c-0.1,0.1-0.2,0.2-0.4,0.2h-0.1c-0.2,0-0.3-0.2-0.3-0.4v-1.7l0,0
			v-1c0-0.2,0.2-0.4,0.4-0.4c0,0,0,0,0,0c0.1,0,0.3,0.1,0.3,0.2c0.2-0.1,0.5-0.2,0.8-0.2c0.4,0,0.8,0.2,1.1,0.5
			c0.3-0.3,0.7-0.5,1.1-0.5c0.8,0,1.5,0.7,1.5,1.5c0,0,0,0,0,0v1.7c0,0.2-0.2,0.4-0.4,0.4c-0.2,0-0.4-0.2-0.4-0.4v-1.7
			c0-0.4-0.3-0.7-0.7-0.7c0,0,0,0,0,0C197.4,263.7,197,264,197,264.4z"/>
		<path class="st7" d="M200.7,264.7L200.7,264.7v-2.8c0-0.2,0.2-0.4,0.4-0.3c0.2,0,0.3,0.2,0.3,0.3v1.3c0.3-0.2,0.6-0.3,0.9-0.3
			c1,0,1.8,0.8,1.8,1.8s-0.8,1.8-1.8,1.8c-0.4,0-0.7-0.1-1-0.3c0,0.2-0.2,0.3-0.4,0.3c-0.2,0-0.4-0.2-0.4-0.4L200.7,264.7z
			 M201.5,264.7c0,0.3,0.1,0.5,0.3,0.7c0.3,0.4,0.9,0.4,1.2,0.1c0,0,0,0,0.1-0.1c0.2-0.2,0.3-0.4,0.3-0.7c0-0.3-0.1-0.5-0.3-0.7
			c-0.3-0.4-0.9-0.4-1.3,0c0,0,0,0,0,0C201.6,264.2,201.5,264.4,201.5,264.7z"/>
		<path class="st7" d="M205.1,264.7c0-1,0.8-1.7,1.7-1.8c0.9,0,1.7,0.7,1.7,1.6l0,0c0,0,0,0,0,0.1c0,0.2-0.2,0.3-0.4,0.3h-2.2
			c0,0.2,0.1,0.3,0.2,0.5c0.2,0.2,0.4,0.3,0.7,0.3c0.3,0,0.5,0,0.7-0.2c0.1-0.1,0.4-0.1,0.5,0c0.1,0.1,0.1,0.3,0,0.5
			c-0.7,0.7-1.8,0.7-2.5,0C205.2,265.6,205,265.1,205.1,264.7L205.1,264.7z M205.8,264.3h2c-0.2-0.4-0.5-0.7-1-0.7
			C206.4,263.6,206,263.9,205.8,264.3L205.8,264.3z"/>
		<path class="st7" d="M211.6,263.3c0,0.2-0.2,0.4-0.4,0.4c-0.2,0-0.3,0-0.4,0.1c-0.1,0.1-0.2,0.2-0.3,0.3c-0.1,0.2-0.2,0.4-0.3,0.6
			v1.3c0,0.2-0.2,0.4-0.4,0.4c0,0,0,0,0,0c-0.2,0-0.4-0.2-0.4-0.4v-2.8c0-0.2,0.2-0.4,0.4-0.4c0.2,0,0.4,0.2,0.4,0.4l0,0l0.1-0.1
			c0.3-0.2,0.6-0.3,0.9-0.3C211.4,262.9,211.6,263,211.6,263.3C211.6,263.2,211.6,263.3,211.6,263.3z"/>
		<path class="st7" d="M186.1,250.2h-0.9v1.5c0,0.2-0.1,0.4-0.3,0.4c-0.2,0-0.4-0.1-0.4-0.3c0,0,0-0.1,0-0.1v-4.1
			c0-0.2,0.2-0.4,0.4-0.4c0,0,0,0,0,0h1.2c0.8,0,1.5,0.7,1.5,1.5S186.9,250.2,186.1,250.2z M185.2,249.4h0.9c0.4,0,0.7-0.3,0.7-0.7
			s-0.3-0.7-0.7-0.7h-0.9V249.4z"/>
		<path class="st7" d="M190.5,251h-1.7l-0.4,0.9c-0.1,0.2-0.2,0.3-0.4,0.2H188c-0.2-0.1-0.3-0.3-0.2-0.5l1.6-4.1
			c0.1-0.2,0.2-0.3,0.4-0.2c0.2,0,0.3,0.1,0.4,0.2l1.6,4.1c0.1,0.2,0,0.4-0.2,0.5h-0.1c-0.2,0-0.3-0.1-0.4-0.2L190.5,251z
			 M190.2,250.2l-0.6-1.5l-0.6,1.5H190.2z"/>
		<path class="st7" d="M195.4,247.9l-1.4,2v1.9c0,0.2-0.2,0.4-0.4,0.4c0,0,0,0,0,0c-0.2,0-0.4-0.2-0.4-0.4v-1.9l-1.4-2
			c-0.1-0.2-0.1-0.4,0-0.5c0,0,0,0,0,0c0.2-0.1,0.4-0.1,0.5,0.1c0,0,0,0,0,0l1.2,1.6l1.2-1.6c0.1-0.2,0.4-0.2,0.5-0.1
			C195.5,247.4,195.5,247.7,195.4,247.9L195.4,247.9z"/>
		<path class="st7" d="M200.5,247.6v4.1c0,0.2-0.2,0.4-0.4,0.4c-0.2,0-0.4-0.2-0.4-0.4v-2.9l-1,1.4c-0.1,0.1-0.2,0.2-0.3,0.2l0,0
			c-0.1,0-0.2-0.1-0.3-0.2l-1-1.4v2.9c0,0.2-0.2,0.4-0.4,0.4c-0.2,0-0.4-0.2-0.4-0.4v-4.1c0-0.2,0.2-0.4,0.4-0.4l0,0
			c0.1,0,0.2,0.1,0.3,0.2l1.4,1.9l1.4-1.9c0.1-0.1,0.2-0.2,0.3-0.2l0,0C200.3,247.2,200.5,247.4,200.5,247.6z"/>
		<path class="st7" d="M201.8,251.7v-4.1c0-0.2,0.2-0.4,0.4-0.4c0,0,0,0,0,0h2.3c0.2,0,0.4,0.2,0.4,0.4c0,0.2-0.2,0.4-0.4,0.4h-1.9
			v1.3h1.6c0.2,0,0.4,0.2,0.4,0.4c0,0.2-0.2,0.4-0.4,0.4c0,0,0,0,0,0h-1.6v1.3h1.9c0.2,0,0.4,0.2,0.4,0.4c0,0.2-0.2,0.4-0.4,0.4
			h-2.3l0,0l0,0C202,252.1,201.8,252,201.8,251.7C201.8,251.7,201.8,251.7,201.8,251.7z"/>
		<path class="st7" d="M206.7,251.7c0,0.2-0.2,0.4-0.4,0.4s-0.4-0.2-0.4-0.4c0,0,0,0,0,0v-4.1l0,0c0-0.1,0.1-0.3,0.1-0.3
			c0.2-0.1,0.4-0.1,0.5,0.1c0,0,0,0,0,0l2.3,3.1v-2.9c0-0.2,0.2-0.4,0.4-0.4c0.2,0,0.4,0.2,0.4,0.4v4.1c0,0.2-0.2,0.4-0.4,0.4
			c-0.1,0-0.2,0-0.3-0.1l0,0l-2.2-3.1L206.7,251.7z"/>
		<path class="st7" d="M214.3,248h-1.1v3.7c0,0.2-0.2,0.4-0.4,0.4c0,0,0,0,0,0c-0.2,0-0.4-0.2-0.4-0.4V248h-1.1
			c-0.2,0-0.4-0.2-0.4-0.4c0-0.2,0.2-0.4,0.4-0.4c0,0,0,0,0,0h3c0.2,0,0.4,0.2,0.4,0.4c0,0,0,0,0,0C214.7,247.8,214.5,248,214.3,248
			z"/>
		<path class="st7" d="M217.7,249.6c0-1.4,1.2-2.5,2.6-2.5c0.6,0,1.1,0.2,1.6,0.6c0.2,0.1,0.2,0.4,0.1,0.6s-0.4,0.2-0.6,0.1
			c-0.3-0.3-0.7-0.4-1.1-0.4c-0.5,0-0.9,0.2-1.3,0.5c-0.3,0.3-0.5,0.8-0.5,1.2c0,0.5,0.2,0.9,0.5,1.2c0.3,0.3,0.8,0.5,1.3,0.5
			c0.4,0,0.8-0.1,1.1-0.4c0.2-0.1,0.4-0.1,0.6,0.1c0.1,0.2,0.1,0.4-0.1,0.6c-0.5,0.4-1,0.6-1.6,0.6
			C218.9,252.1,217.7,251,217.7,249.6z"/>
		<path class="st7" d="M225.7,251H224l-0.3,0.9c-0.1,0.2-0.2,0.3-0.4,0.2h-0.1c-0.2-0.1-0.3-0.3-0.2-0.5l1.6-4.1
			c0.1-0.2,0.2-0.3,0.4-0.2c0.2,0,0.3,0.1,0.4,0.2l1.6,4.1c0.1,0.2,0,0.4-0.2,0.5h-0.1c-0.2,0-0.3-0.1-0.4-0.2L225.7,251z
			 M225.4,250.2l-0.6-1.5l-0.6,1.5H225.4z"/>
		<path class="st7" d="M231,251.5c0.1,0.2,0,0.4-0.2,0.5c0,0,0,0,0,0h-0.1l0,0c-0.1,0-0.2,0-0.3-0.1c-0.1-0.1-0.2-0.1-0.2-0.2
			c-0.1-0.3-0.2-0.6-0.1-0.9c0-0.1,0-0.2-0.1-0.3c-0.1-0.1-0.1-0.1-0.2-0.2c-0.1-0.1-0.3-0.1-0.4-0.2h-0.8v1.5
			c0,0.2-0.2,0.4-0.4,0.4c-0.2,0-0.4-0.2-0.4-0.4v-4.1c0-0.2,0.2-0.4,0.4-0.4c0,0,0,0,0,0h1.3c0.8,0,1.5,0.7,1.5,1.5
			c0,0.4-0.2,0.9-0.6,1.1c0.1,0.1,0.2,0.2,0.2,0.3c0.2,0.2,0.2,0.5,0.2,0.8c0,0.1,0,0.3,0,0.4C230.9,251.3,231,251.4,231,251.5z
			 M230,248.7c0-0.4-0.3-0.7-0.7-0.7c0,0,0,0,0,0h-0.9v1.4h0.9C229.7,249.4,230,249.1,230,248.7C230,248.7,230,248.7,230,248.7
			L230,248.7z"/>
		<path class="st7" d="M232.1,251.7v-4.1c0-0.2,0.2-0.4,0.4-0.4c0,0,0,0,0,0h0.8c1.4,0.1,2.4,1.3,2.3,2.6c-0.1,1.2-1.1,2.2-2.3,2.3
			h-0.8C232.3,252.1,232.1,251.9,232.1,251.7z M232.9,251.3h0.4c0.9-0.1,1.6-0.9,1.5-1.8c-0.1-0.8-0.7-1.5-1.5-1.5h-0.4V251.3z"/>
		<rect x="183.7" y="271.4" class="st0" width="132.6" height="11.7"/>
		<path class="st2" d="M188.6,275.1v4.1c0,0.2-0.2,0.4-0.4,0.4c0,0,0,0,0,0c-0.2,0-0.4-0.2-0.4-0.4c0,0,0,0,0,0v-3.5l-0.3,0.2
			c-0.1,0-0.1,0.1-0.2,0c-0.2,0-0.4-0.2-0.4-0.4c0-0.1,0.1-0.3,0.2-0.3l0.9-0.5l0,0l0,0h0.3l0,0l0,0l0,0l0,0l0,0l0,0l0,0l0,0l0,0
			l0,0l0,0c0,0,0,0,0,0L188.6,275.1z"/>
		<path class="st2" d="M192.7,279.2c0,0.2-0.2,0.4-0.4,0.4c0,0,0,0,0,0h-2.5c-0.1,0-0.2,0-0.3-0.1c-0.2-0.1-0.2-0.4,0-0.5
			c0,0,0,0,0,0l2.1-1.9c0.4-0.3,0.4-0.9,0.1-1.3c0,0,0,0,0,0c-0.2-0.2-0.4-0.3-0.7-0.3c-0.2,0-0.4,0.1-0.6,0.2l-0.2,0.2
			c-0.2,0.1-0.4,0.1-0.5-0.1c-0.1-0.2-0.1-0.4,0-0.5l0.2-0.2c0.3-0.3,0.7-0.4,1.1-0.4c0.5,0,0.9,0.2,1.2,0.6
			c0.3,0.3,0.4,0.7,0.4,1.1c0,0.5-0.2,0.9-0.6,1.2l-1.3,1.2h1.5C192.5,278.8,192.6,279,192.7,279.2
			C192.7,279.2,192.7,279.2,192.7,279.2z"/>
		<path class="st2" d="M196.3,276.6c0.3,0.3,0.5,0.8,0.5,1.2c0,0.5-0.2,0.9-0.5,1.2c-0.3,0.3-0.8,0.5-1.2,0.5
			c-0.5,0-0.9-0.2-1.2-0.5c-0.2-0.2-0.2-0.4,0-0.6c0.1-0.2,0.4-0.2,0.6,0c0,0,0,0,0,0c0.2,0.2,0.4,0.3,0.7,0.3
			c0.2,0,0.5-0.1,0.7-0.3c0.2-0.2,0.3-0.4,0.3-0.7c0-0.2-0.1-0.5-0.3-0.7c-0.2-0.2-0.4-0.3-0.7-0.3c-0.1,0-0.2,0-0.3-0.1l0,0
			c-0.2-0.2-0.2-0.4,0-0.6l0.7-0.7h-1.1c-0.2,0-0.4-0.2-0.4-0.4c0,0,0,0,0,0c0-0.2,0.2-0.4,0.4-0.4c0,0,0,0,0,0h2.1
			c0.2,0,0.4,0.2,0.4,0.4c0,0,0,0,0,0c0,0.1,0,0.1,0,0.2c0,0,0,0.1-0.1,0.1l-0.9,0.9C196,276.4,196.2,276.5,196.3,276.6z"/>
		<path class="st2" d="M201.6,278.3c0,0.2-0.2,0.4-0.4,0.4c0,0,0,0,0,0h-0.1v0.5c0,0.2-0.2,0.4-0.4,0.3c-0.2,0-0.3-0.2-0.3-0.3v-0.5
			h-2.2c-0.1,0-0.2,0-0.2-0.1c-0.2-0.1-0.2-0.3-0.1-0.5c0,0,0,0,0,0l2.6-3.2l0,0l0,0l0,0l0,0l0,0l0,0h0.3l0,0l0,0l0,0l0,0l0,0l0,0
			l0,0l0,0l0,0l0,0l0,0v2.9h0.1c0.2-0.2,0.5-0.3,0.7-0.1C201.8,277.8,201.8,278.1,201.6,278.3L201.6,278.3z M200.4,276.2l-1.4,1.7
			h1.4L200.4,276.2z"/>
		<path class="st2" d="M207.2,276.6c0.7,0.7,0.7,1.8,0,2.4c0,0,0,0,0,0c-0.3,0.3-0.8,0.5-1.2,0.5l0,0c-0.5,0-0.9-0.2-1.2-0.5
			c-0.2-0.1-0.2-0.4,0-0.6c0,0,0,0,0,0c0.2-0.2,0.4-0.2,0.6,0c0.2,0.2,0.4,0.3,0.7,0.3c0.3,0,0.5-0.1,0.7-0.3
			c0.2-0.2,0.3-0.4,0.3-0.7c0-0.5-0.4-0.9-0.9-1c-0.3,0-0.5,0.1-0.7,0.3c-0.2,0.2-0.4,0.2-0.6,0l-0.1-0.1l0,0l0,0V277l0,0
			c0,0,0-0.1,0-0.1l0.2-1.8c0-0.1,0.1-0.2,0.2-0.3l0,0l0,0c0.1,0,0.1,0,0.2,0h2.1c0.2,0,0.4,0.1,0.5,0.3c0,0.2-0.1,0.4-0.3,0.5
			c0,0-0.1,0-0.1,0h-1.7l-0.1,0.7c0.1,0,0.3-0.1,0.5-0.1C206.4,276.2,206.9,276.3,207.2,276.6z"/>
		<path class="st2" d="M212.3,277.9c0,0.9-0.8,1.7-1.7,1.7c-0.9,0-1.6-0.7-1.7-1.5l0,0c0-0.1,0-0.3,0-0.4c0-0.5,0.1-1,0.2-1.4
			c0.2-0.5,0.5-0.9,0.9-1.2c0.3-0.2,0.6-0.3,1-0.3c0.2,0,0.4,0.2,0.4,0.4c0,0,0,0,0,0c0,0.2-0.2,0.4-0.4,0.4c-0.2,0-0.5,0.1-0.7,0.2
			c-0.2,0.1-0.3,0.3-0.4,0.5l-0.1,0.2c0.2-0.1,0.4-0.1,0.7-0.1C211.5,276.2,212.3,276.9,212.3,277.9
			C212.3,277.9,212.3,277.9,212.3,277.9z M211.5,277.9c-0.1-0.5-0.5-0.9-1-0.8c-0.4,0-0.8,0.4-0.8,0.8c0.1,0.5,0.5,0.9,1,0.8
			C211.1,278.7,211.5,278.3,211.5,277.9z"/>
		<path class="st2" d="M216.3,275.2l-1.8,4.1c-0.1,0.1-0.2,0.2-0.4,0.2c0,0-0.1,0-0.1,0c-0.2-0.1-0.3-0.3-0.2-0.5l1.5-3.6h-1.8
			c-0.2,0-0.4-0.2-0.4-0.4c0-0.2,0.2-0.4,0.4-0.4h0h2.5l0.1,0.1l0,0l0,0l0,0l0,0l0,0l0,0l0,0l0,0c0,0,0,0.1,0,0.1
			C216.2,275,216.2,275.2,216.3,275.2C216.3,275.2,216.3,275.2,216.3,275.2z"/>
		<path class="st2" d="M220.5,277.9c0,0.9-0.7,1.7-1.7,1.7c-0.9,0-1.7-0.7-1.7-1.7c0-0.6,0.3-1.1,0.8-1.4c-0.2-0.2-0.2-0.4-0.2-0.7
			c0.1-0.6,0.6-1.1,1.3-1c0.6,0.1,1,0.5,1,1c0,0.2-0.1,0.5-0.2,0.7C220.2,276.8,220.5,277.4,220.5,277.9z M219.8,277.9
			c0-0.5-0.4-0.9-0.9-0.9c0,0,0,0,0,0c-0.5-0.1-0.9,0.3-1,0.8c-0.1,0.5,0.3,0.9,0.8,1c0.1,0,0.1,0,0.2,0
			C219.3,278.8,219.8,278.4,219.8,277.9z M218.4,275.8c0,0.2,0.2,0.4,0.4,0.4c0,0,0,0,0,0c0.2,0,0.4-0.2,0.4-0.4c0,0,0,0,0,0
			c0-0.2-0.2-0.4-0.4-0.4c0,0,0,0,0,0C218.6,275.4,218.5,275.6,218.4,275.8C218.5,275.8,218.4,275.8,218.4,275.8z"/>
		<path class="st2" d="M223.8,276.4c0-0.9,0.8-1.7,1.8-1.6c0.8,0,1.5,0.6,1.6,1.5l0,0c0,0.1,0,0.3,0,0.4c0,0.5-0.1,1-0.2,1.4
			c-0.2,0.5-0.5,0.9-0.9,1.2c-0.3,0.2-0.7,0.3-1.1,0.3c-0.2,0-0.4-0.2-0.4-0.4c0-0.2,0.2-0.4,0.4-0.4c0.2,0,0.5-0.1,0.7-0.2
			c0.2-0.1,0.3-0.3,0.4-0.5l0.1-0.2c-0.2,0.1-0.4,0.1-0.7,0.1C224.5,278.1,223.8,277.3,223.8,276.4z M224.5,276.4
			c0.1,0.5,0.5,0.9,1,0.8c0.4,0,0.8-0.4,0.8-0.8c-0.1-0.5-0.5-0.9-1-0.8C224.9,275.6,224.6,276,224.5,276.4z"/>
		<path class="st2" d="M228.2,277.1c0-0.6,0.2-1.2,0.5-1.7c0.3-0.5,0.8-0.8,1.3-0.8c0.5,0,1,0.3,1.3,0.8c0.3,0.5,0.5,1.1,0.5,1.7
			c0,0.6-0.2,1.2-0.5,1.7c-0.3,0.5-0.8,0.7-1.3,0.8c-0.5,0-1-0.3-1.3-0.8C228.4,278.3,228.2,277.7,228.2,277.1z M231,277.1
			c0-0.4-0.1-0.9-0.3-1.2c-0.1-0.2-0.4-0.4-0.6-0.4c-0.3,0-0.5,0.2-0.7,0.4c-0.2,0.4-0.3,0.8-0.3,1.2c0,0.4,0.1,0.9,0.3,1.2
			c0.1,0.2,0.4,0.4,0.7,0.4c0.3,0,0.5-0.2,0.6-0.4C230.9,278,231,277.6,231,277.1L231,277.1z"/>
		<path class="st2" d="M234.6,275.1v4.1c0,0.2-0.2,0.4-0.4,0.4c0,0,0,0,0,0c-0.2,0-0.4-0.2-0.4-0.4c0,0,0,0,0,0v-3.5l-0.3,0.2
			c-0.1,0-0.1,0.1-0.2,0c-0.1,0-0.3-0.1-0.3-0.2c-0.1-0.2-0.1-0.4,0.1-0.5c0,0,0,0,0,0l0.9-0.5l0,0l0,0h0.3l0,0l0,0l0,0l0,0l0,0l0,0
			l0,0l0,0l0,0l0,0l0,0c0,0,0,0,0,0L234.6,275.1z"/>
		<path class="st2" d="M238.7,279.2c0,0.2-0.2,0.4-0.4,0.4c0,0,0,0,0,0h-2.5c-0.2,0-0.4-0.2-0.4-0.4c0-0.1,0-0.2,0.1-0.3l2.1-1.9
			c0.2-0.2,0.3-0.4,0.3-0.7c0-0.2-0.1-0.4-0.2-0.6c-0.2-0.2-0.4-0.3-0.7-0.3c-0.2,0-0.4,0.1-0.6,0.2l-0.2,0.2
			c-0.2,0.2-0.4,0.2-0.6,0c-0.2-0.2-0.2-0.4,0-0.6c0,0,0,0,0,0l0.2-0.2c0.3-0.3,0.7-0.4,1.1-0.4c0.5,0,0.9,0.2,1.2,0.6
			c0.3,0.3,0.4,0.7,0.4,1.1c0,0.5-0.2,0.9-0.6,1.2l-1.3,1.2h1.5C238.5,278.8,238.7,279,238.7,279.2
			C238.7,279.2,238.7,279.2,238.7,279.2z"/>
		<path class="st2" d="M244.4,276.6c0.3,0.3,0.5,0.8,0.5,1.2c0,0.5-0.2,0.9-0.5,1.2c-0.3,0.3-0.8,0.5-1.2,0.5
			c-0.5,0-0.9-0.2-1.2-0.5c-0.2-0.1-0.2-0.4-0.1-0.6s0.4-0.2,0.6-0.1c0,0,0.1,0,0.1,0.1c0.2,0.2,0.4,0.3,0.7,0.3
			c0.3,0,0.5-0.1,0.7-0.3c0.2-0.2,0.3-0.4,0.3-0.7c0-0.2-0.1-0.5-0.3-0.7c-0.2-0.2-0.4-0.3-0.7-0.3c-0.1,0-0.2,0-0.3-0.1l0,0
			c-0.1-0.2-0.1-0.4,0-0.6l0.7-0.7h-1.1c-0.2,0-0.4-0.2-0.4-0.4c0-0.2,0.2-0.4,0.4-0.4h0h2.1c0.2,0,0.4,0.2,0.4,0.4c0,0,0,0,0,0
			c0,0.1,0,0.1,0,0.2c0,0,0,0.1-0.1,0.1l-0.9,0.9C244.1,276.4,244.3,276.5,244.4,276.6z"/>
		<path class="st2" d="M249.8,278.3c0,0.2-0.2,0.4-0.4,0.4h0h-0.1v0.5c0,0.2-0.2,0.4-0.4,0.3c-0.2,0-0.3-0.2-0.3-0.3v-0.5h-2.2
			c-0.1,0-0.2,0-0.2-0.1c-0.2-0.1-0.2-0.4-0.1-0.5c0,0,0,0,0,0l2.6-3.2l0,0l0,0l0,0l0,0l0,0l0,0h0.3l0,0l0,0l0,0l0,0l0,0l0,0l0,0
			l0,0l0,0l0,0l0,0l0,0v2.9h0.1c0.2-0.2,0.5-0.3,0.7-0.1C249.9,277.8,249.9,278.1,249.8,278.3L249.8,278.3z M248.5,276.2l-1.4,1.7
			h1.4V276.2z"/>
		<path class="st2" d="M253.2,276.6c0.3,0.3,0.5,0.8,0.5,1.2c0,0.5-0.2,0.9-0.5,1.2c-0.3,0.3-0.8,0.5-1.2,0.5l0,0
			c-0.5,0-0.9-0.2-1.2-0.5c-0.2-0.1-0.2-0.4,0-0.5c0,0,0,0,0,0c0.2-0.2,0.4-0.2,0.6,0c0.4,0.4,1,0.4,1.3,0s0.4-1,0-1.3
			c-0.2-0.2-0.4-0.3-0.6-0.3c-0.3,0-0.5,0.1-0.7,0.3c-0.2,0.2-0.4,0.2-0.6,0l-0.1-0.1l0,0l0,0c0,0,0,0,0,0l0,0v-0.1l0.2-1.8
			c0-0.1,0.1-0.2,0.2-0.3l0,0l0,0c0.1,0,0.1,0,0.2,0h2.1c0.2,0,0.4,0.1,0.5,0.3c0,0.2-0.1,0.4-0.3,0.5c0,0-0.1,0-0.1,0h-1.7
			l-0.1,0.7c0.2,0,0.3-0.1,0.5-0.1C252.5,276.2,252.9,276.3,253.2,276.6z"/>
		<path class="st2" d="M258.3,277.9c0,0.9-0.8,1.7-1.7,1.7c-0.9,0-1.6-0.7-1.7-1.5l0,0c0-0.1,0-0.3,0-0.4c0-0.5,0.1-1,0.2-1.4
			c0.2-0.5,0.5-0.9,0.9-1.2c0.3-0.2,0.7-0.3,1-0.3c0.2,0,0.4,0.1,0.4,0.4c0,0,0,0,0,0c0,0.2-0.2,0.4-0.4,0.4c-0.2,0-0.5,0.1-0.7,0.2
			c-0.2,0.1-0.3,0.3-0.4,0.5c0,0.1-0.1,0.1-0.1,0.2c0.2-0.1,0.4-0.1,0.7-0.1C257.6,276.2,258.3,277,258.3,277.9z M257.5,277.9
			c0-0.5-0.4-0.9-0.9-0.9s-0.9,0.4-0.9,0.9c0,0.5,0.4,0.9,0.9,0.9S257.5,278.4,257.5,277.9L257.5,277.9z"/>
		<path class="st7" d="M184.4,293.3v-4.1c0-0.2,0.2-0.4,0.4-0.4c0,0,0,0,0,0h2.3c0.2,0,0.4,0.2,0.4,0.4c0,0.2-0.2,0.4-0.4,0.4h-1.9
			v1.3h1.6c0.2,0,0.4,0.2,0.4,0.4c0,0.2-0.2,0.4-0.4,0.4c0,0,0,0,0,0h-1.6v1.3h1.9c0.2,0,0.4,0.1,0.4,0.3c0,0.2-0.1,0.4-0.3,0.4
			c0,0-0.1,0-0.1,0h-2.3C184.6,293.7,184.4,293.5,184.4,293.3C184.4,293.3,184.4,293.3,184.4,293.3z"/>
		<path class="st7" d="M191,290.8l-0.8,1.1l0.8,1.1c0.1,0.2,0.1,0.4-0.1,0.5c-0.1,0-0.1,0.1-0.2,0.1c-0.1,0-0.2-0.1-0.3-0.1l-0.7-1
			l-0.7,1c-0.1,0.1-0.2,0.1-0.3,0.1c-0.1,0-0.2,0-0.2-0.1c-0.2-0.1-0.2-0.3-0.1-0.5c0,0,0,0,0,0l0.8-1.1l-0.8-1.1
			c-0.1-0.2-0.1-0.4,0.1-0.5c0,0,0,0,0,0c0.2-0.1,0.4-0.1,0.5,0.1l0.7,0.9l0.7-0.9c0.1-0.2,0.4-0.2,0.5-0.1
			C191.1,290.4,191.1,290.7,191,290.8z"/>
		<path class="st7" d="M192.5,294.6V292l0,0v-1.4c0-0.2,0.2-0.4,0.4-0.4c0.2,0,0.3,0.1,0.4,0.3c0.8-0.5,1.8-0.3,2.3,0.4
			c0.2,0.3,0.3,0.7,0.3,1c0,0.9-0.7,1.7-1.7,1.7c-0.3,0-0.7-0.1-0.9-0.3v1.2c0,0.2-0.2,0.4-0.4,0.4c0,0,0,0,0,0
			C192.7,295.1,192.5,294.9,192.5,294.6C192.5,294.7,192.5,294.7,192.5,294.6z M193.3,292c0,0.3,0.1,0.5,0.3,0.7
			c0.2,0.2,0.4,0.3,0.7,0.3c0.3,0,0.5-0.1,0.7-0.3c0.2-0.2,0.3-0.4,0.3-0.7c0-0.3-0.1-0.5-0.3-0.7c-0.2-0.2-0.4-0.3-0.7-0.3
			c-0.3,0-0.5,0.1-0.7,0.3C193.3,291.5,193.2,291.7,193.3,292L193.3,292z"/>
		<path class="st7" d="M197.7,289.3c0,0.2-0.2,0.4-0.4,0.4c0,0,0,0,0,0c-0.2,0-0.4-0.2-0.4-0.4l0,0v-0.1c0-0.2,0.2-0.4,0.4-0.4
			c0,0,0,0,0,0c0.2,0,0.4,0.2,0.4,0.4c0,0,0,0,0,0V289.3z M197.7,290.6v2.7c0,0.2-0.2,0.4-0.4,0.4c0,0,0,0,0,0
			c-0.2,0-0.4-0.2-0.4-0.4c0,0,0,0,0,0v-2.7c0-0.2,0.2-0.4,0.4-0.4c0,0,0,0,0,0C197.5,290.2,197.7,290.4,197.7,290.6
			C197.7,290.6,197.7,290.6,197.7,290.6z"/>
		<path class="st7" d="M201,290.6c0,0.2-0.2,0.4-0.4,0.4c-0.2,0-0.3,0-0.4,0.1c-0.1,0.1-0.2,0.2-0.3,0.3c-0.1,0.2-0.2,0.4-0.3,0.6
			v1.3c0,0.2-0.2,0.4-0.4,0.4c0,0,0,0,0,0c-0.2,0-0.4-0.2-0.4-0.4v-2.8c0-0.2,0.2-0.4,0.4-0.4c0.2,0,0.4,0.2,0.4,0.4v0
			c0-0.1,0.1-0.1,0.1-0.1c0.3-0.2,0.6-0.3,0.9-0.3C200.8,290.2,201,290.4,201,290.6C201,290.6,201,290.6,201,290.6z"/>
		<path class="st7" d="M204.7,292v1.4c0,0.2-0.2,0.4-0.4,0.4c-0.2,0-0.3-0.1-0.4-0.3c-0.3,0.2-0.6,0.3-0.9,0.3
			c-0.5,0-0.9-0.2-1.2-0.5c-0.3-0.3-0.5-0.8-0.5-1.2c0-0.5,0.2-0.9,0.5-1.2c0.3-0.3,0.7-0.5,1.2-0.5c0.3,0,0.7,0.1,0.9,0.3
			c0-0.2,0.2-0.3,0.4-0.3c0.2,0,0.4,0.2,0.4,0.4V292z M204,292c0-0.3-0.1-0.5-0.3-0.7c-0.2-0.2-0.4-0.3-0.7-0.3
			c-0.2,0-0.5,0.1-0.6,0.3c-0.2,0.2-0.3,0.5-0.3,0.7c0,0.3,0.1,0.5,0.3,0.7c0.2,0.2,0.4,0.3,0.6,0.3c0.2,0,0.5-0.1,0.7-0.3
			C203.9,292.5,204,292.3,204,292L204,292z"/>
		<path class="st7" d="M207.7,290.6c0,0.2-0.2,0.4-0.4,0.4h-0.2v2c0.2,0,0.4,0.2,0.4,0.4c0,0,0,0,0,0c0,0.2-0.2,0.4-0.4,0.4
			c0,0,0,0,0,0c-0.4,0-0.8-0.3-0.8-0.8v-2h-0.2c-0.2,0-0.4-0.1-0.4-0.3c0-0.2,0.1-0.4,0.3-0.4c0,0,0.1,0,0.1,0h0.2v-1
			c0-0.2,0.2-0.4,0.4-0.4h0c0.2,0,0.4,0.2,0.4,0.4c0,0,0,0,0,0v1h0.2C207.5,290.2,207.7,290.4,207.7,290.6z"/>
		<path class="st7" d="M209.6,289.3c0,0.2-0.2,0.4-0.4,0.4c0,0,0,0,0,0c-0.2,0-0.4-0.2-0.4-0.4l0,0v-0.1c0-0.2,0.2-0.4,0.4-0.4
			c0,0,0,0,0,0c0.2,0,0.4,0.2,0.4,0.4c0,0,0,0,0,0V289.3z M209.6,290.6v2.7c0,0.2-0.2,0.4-0.4,0.4c0,0,0,0,0,0
			c-0.2,0-0.4-0.2-0.4-0.4c0,0,0,0,0,0v-2.7c0-0.2,0.2-0.4,0.4-0.4c0,0,0,0,0,0C209.5,290.2,209.7,290.4,209.6,290.6
			C209.7,290.6,209.7,290.6,209.6,290.6z"/>
		<path class="st7" d="M211.2,293.2c-0.3-0.3-0.5-0.8-0.5-1.2c0-0.5,0.2-0.9,0.5-1.2c0.3-0.3,0.7-0.5,1.2-0.5c0.4,0,0.9,0.2,1.2,0.5
			c0.3,0.3,0.5,0.8,0.5,1.3c0,0.5-0.2,0.9-0.5,1.2c-0.3,0.3-0.7,0.5-1.2,0.5C211.9,293.7,211.5,293.5,211.2,293.2z M211.5,292
			c0,0.3,0.1,0.5,0.2,0.7c0.2,0.2,0.4,0.3,0.7,0.3c0.2,0,0.5-0.1,0.6-0.3c0.2-0.2,0.3-0.5,0.3-0.7c0-0.3-0.1-0.5-0.3-0.7
			c-0.2-0.2-0.4-0.3-0.6-0.3c-0.2,0-0.5,0.1-0.7,0.3C211.5,291.4,211.4,291.7,211.5,292L211.5,292z"/>
		<path class="st7" d="M218.1,291.7v1.7c0,0.2-0.2,0.4-0.3,0.4c0,0,0,0,0,0c-0.2,0-0.4-0.2-0.4-0.4v-1.7c0-0.4-0.3-0.7-0.7-0.7
			c0,0,0,0,0,0c-0.4,0-0.7,0.3-0.7,0.7c0,0,0,0,0,0v1.7c0,0,0,0,0,0.1c0,0.2-0.2,0.3-0.4,0.3c-0.2,0-0.4-0.2-0.4-0.3c0,0,0,0,0,0
			v-2.8c0-0.2,0.2-0.4,0.4-0.4c0.1,0,0.3,0.1,0.4,0.2c0.2-0.1,0.5-0.2,0.7-0.2C217.5,290.2,218.1,290.9,218.1,291.7z"/>
		<path class="st7" d="M224.8,293.3c0,0.2-0.2,0.4-0.4,0.4c0,0,0,0,0,0c-0.2,0-0.3-0.1-0.4-0.3c-0.8,0.5-1.9,0.2-2.4-0.6
			s-0.2-1.9,0.6-2.4c0.2-0.2,0.5-0.2,0.8-0.3c0.3,0,0.7,0.1,0.9,0.3v-1.3c0-0.2,0.2-0.4,0.4-0.3c0.2,0,0.3,0.2,0.3,0.3v2.8l0,0
			L224.8,293.3z M223.1,291c-0.2,0-0.5,0.1-0.6,0.3c-0.2,0.2-0.3,0.4-0.3,0.7c0,0.3,0.1,0.5,0.3,0.7c0.3,0.4,0.9,0.4,1.2,0.1
			c0,0,0,0,0.1-0.1c0.2-0.2,0.3-0.4,0.2-0.7c0-0.3-0.1-0.5-0.3-0.7C223.6,291.1,223.3,291,223.1,291z"/>
		<path class="st7" d="M229.2,292v1.4c0,0.2-0.2,0.4-0.4,0.4c-0.2,0-0.3-0.1-0.4-0.3c-0.7,0.5-1.6,0.4-2.1-0.2
			c-0.3-0.3-0.5-0.8-0.5-1.2c0-0.5,0.2-0.9,0.5-1.2c0.3-0.3,0.7-0.5,1.2-0.5c0.3,0,0.7,0.1,0.9,0.3c0-0.2,0.2-0.4,0.4-0.3
			c0.2,0,0.4,0.2,0.3,0.4l0,0L229.2,292z M228.5,292c0-0.3-0.1-0.5-0.3-0.7c-0.2-0.2-0.4-0.3-0.6-0.3c-0.2,0-0.5,0.1-0.6,0.3
			c-0.2,0.2-0.3,0.5-0.3,0.7c0,0.3,0.1,0.5,0.3,0.7c0.2,0.2,0.4,0.3,0.6,0.3c0.2,0,0.5-0.1,0.6-0.3
			C228.4,292.5,228.5,292.3,228.5,292z"/>
		<path class="st7" d="M232.1,290.6c0,0.2-0.2,0.4-0.4,0.4h-0.2v2c0.2,0,0.4,0.2,0.4,0.4c0,0,0,0,0,0c0,0.2-0.2,0.4-0.4,0.4
			c0,0,0,0,0,0c-0.4,0-0.8-0.3-0.8-0.8v-2h-0.2c-0.2,0-0.4-0.2-0.3-0.4c0-0.2,0.2-0.3,0.3-0.3h0.2v-1c0-0.2,0.2-0.4,0.4-0.4
			c0.2,0,0.4,0.2,0.4,0.4c0,0,0,0,0,0v1h0.2C232,290.2,232.1,290.4,232.1,290.6z"/>
		<path class="st7" d="M232.9,292c0-1,0.8-1.7,1.7-1.8c0.9,0,1.7,0.7,1.7,1.6l0,0c0,0,0,0,0,0.1c0,0.2-0.2,0.3-0.4,0.3h-2.2
			c0,0.2,0.1,0.3,0.2,0.5c0.2,0.2,0.4,0.3,0.7,0.3c0.3,0,0.5,0,0.7-0.2c0.1-0.1,0.4-0.1,0.5,0c0.1,0.1,0.1,0.3,0,0.4c0,0,0,0,0,0
			c-0.7,0.7-1.8,0.7-2.5,0C233,292.9,232.8,292.5,232.9,292L232.9,292z M233.6,291.7h2c-0.2-0.4-0.6-0.7-1-0.7
			C234.2,290.9,233.8,291.2,233.6,291.7L233.6,291.7z"/>
		<path class="st7" d="M252.4,291.2c0-1.4,1.2-2.6,2.6-2.5c0.6,0,1.1,0.2,1.5,0.5c0.2,0.1,0.2,0.4,0.1,0.6c-0.1,0.2-0.4,0.2-0.6,0.1
			c0,0,0,0,0,0c-0.3-0.3-0.7-0.4-1.1-0.4c-0.5,0-0.9,0.2-1.3,0.5c-0.3,0.3-0.5,0.8-0.5,1.2c0,0.5,0.2,0.9,0.5,1.2
			c0.3,0.3,0.8,0.5,1.3,0.5c0.4,0,0.8-0.1,1.1-0.4c0.2-0.1,0.4-0.1,0.6,0.1c0.1,0.2,0.1,0.4-0.1,0.6c-0.5,0.4-1,0.5-1.6,0.5
			C253.6,293.7,252.5,292.6,252.4,291.2z"/>
		<path class="st7" d="M259.6,293.6L259.6,293.6L259.6,293.6L259.6,293.6L259.6,293.6L259.6,293.6l-1.7-4.1c-0.1-0.2,0-0.4,0.2-0.5
			c0,0,0,0,0,0c0.2-0.1,0.4,0,0.5,0.2l1.4,3.2l1.4-3.2c0.1-0.2,0.3-0.3,0.5-0.2s0.3,0.3,0.2,0.5l-1.7,4.1c0,0,0,0,0,0.1l0,0l0,0l0,0
			l0,0l0,0c0,0,0,0,0,0l0,0h0h-0.2H260l0,0c0,0,0,0-0.1,0H259.6z"/>
		<path class="st7" d="M264.8,293.6L264.8,293.6L264.8,293.6L264.8,293.6L264.8,293.6L264.8,293.6l-1.8-4.2c-0.1-0.2,0-0.4,0.2-0.5
			c0,0,0,0,0,0c0.2-0.1,0.4,0,0.5,0.2l1.4,3.2l1.4-3.2c0.1-0.2,0.3-0.3,0.5-0.2s0.3,0.3,0.2,0.5l0,0l-1.7,4.1c0,0,0,0,0,0.1l0,0l0,0
			l0,0l0,0l0,0c0,0,0,0,0,0l0,0h0H265h-0.1l0,0c0,0,0,0-0.1,0L264.8,293.6z"/>
		<path class="st2" d="M259.1,305.6c0,0.2-0.2,0.4-0.4,0.4h0h-0.1v0.5c0,0.2-0.2,0.4-0.4,0.4c0,0,0,0,0,0c-0.2,0-0.4-0.2-0.4-0.4
			c0,0,0,0,0,0V306h-2.2c-0.1,0-0.2,0-0.2-0.1c-0.2-0.1-0.2-0.4-0.1-0.5c0,0,0,0,0,0l2.6-3.2l0,0l0,0l0,0l0,0l0,0l0,0h0.3l0,0l0,0
			l0,0l0,0l0,0l0,0l0,0l0,0l0,0l0,0l0,0v2.9h0.1c0.1-0.2,0.4-0.3,0.7-0.1C259.2,305.1,259.3,305.4,259.1,305.6L259.1,305.6z
			 M257.9,303.5l-1.4,1.7h1.4V303.5z"/>
		<path class="st2" d="M262.6,303.9c0.7,0.7,0.7,1.8,0.1,2.5c-0.3,0.3-0.8,0.5-1.3,0.5l0,0c-0.5,0-0.9-0.2-1.2-0.5
			c-0.2-0.1-0.2-0.4,0-0.5c0,0,0,0,0,0c0.2-0.2,0.4-0.2,0.5,0c0.2,0.2,0.4,0.3,0.7,0.3c0.2,0,0.5-0.1,0.7-0.3
			c0.2-0.2,0.3-0.4,0.3-0.7c0-0.3-0.1-0.5-0.3-0.7c-0.2-0.2-0.4-0.3-0.7-0.3c-0.3,0-0.5,0.1-0.7,0.3c-0.1,0.2-0.4,0.2-0.5,0
			c0,0,0,0,0,0c0,0-0.1-0.1-0.1-0.1l0,0l0,0c0,0,0,0,0,0v-0.1l0.2-1.8c0-0.1,0.1-0.2,0.2-0.3l0,0l0,0c0.1,0,0.1,0,0.2,0h2.1
			c0.2,0,0.4,0.2,0.3,0.5c0,0.2-0.2,0.3-0.3,0.3H261l-0.1,0.7c0.2,0,0.3-0.1,0.5-0.1C261.8,303.5,262.3,303.6,262.6,303.9z"/>
		<path class="st2" d="M267.7,305.2c0,0.9-0.8,1.7-1.7,1.7c-0.9,0-1.6-0.7-1.7-1.5l0,0c0-0.1,0-0.3,0-0.4c0-0.5,0.1-1,0.2-1.4
			c0.2-0.5,0.5-0.9,0.9-1.2c0.3-0.2,0.6-0.3,1-0.3c0.2,0,0.4,0.1,0.4,0.4c0,0,0,0,0,0c0,0.2-0.2,0.4-0.4,0.4c-0.2,0-0.5,0.1-0.6,0.2
			c-0.2,0.1-0.3,0.3-0.5,0.5l-0.1,0.2c0.2-0.1,0.4-0.1,0.7-0.1C266.9,303.5,267.7,304.2,267.7,305.2
			C267.7,305.2,267.7,305.2,267.7,305.2z M266.9,305.2c0-0.5-0.4-0.9-0.9-0.9c-0.5,0-0.9,0.4-0.9,0.9c0,0,0,0,0,0
			c0,0.5,0.4,0.9,0.9,0.9C266.5,306.1,266.9,305.7,266.9,305.2z"/>
		<path class="st2" d="M188.6,302.4v4.1c0,0.2-0.2,0.4-0.4,0.4c-0.2,0-0.4-0.2-0.4-0.4c0,0,0,0,0,0V303l-0.3,0.2
			c-0.1,0-0.1,0.1-0.2,0.1c-0.2,0-0.4-0.2-0.4-0.4c0-0.1,0.1-0.3,0.2-0.3l0.9-0.5l0,0l0,0h0.3l0,0l0,0l0,0l0,0l0,0l0,0l0,0l0,0l0,0
			l0,0l0,0l0,0L188.6,302.4z"/>
		<path class="st2" d="M191,302.4v4.1c0,0.2-0.2,0.4-0.4,0.4c-0.2,0-0.4-0.2-0.4-0.4l0,0V303l-0.3,0.2c-0.1,0-0.1,0.1-0.2,0.1
			c-0.1,0-0.3-0.1-0.3-0.2c-0.1-0.2-0.1-0.4,0.1-0.5c0,0,0,0,0,0l0.9-0.5l0,0l0,0h0.3l0,0l0,0l0,0l0,0l0,0l0,0l0,0l0,0l0,0l0,0l0,0
			l0,0L191,302.4z"/>
		<path class="st2" d="M194.1,306.3l1.7-4.1c0.1-0.2,0.3-0.3,0.5-0.2c0.2,0.1,0.3,0.3,0.2,0.5l-1.7,4.1c-0.1,0.1-0.2,0.2-0.4,0.2
			c0,0-0.1,0-0.1,0C194.1,306.8,194,306.6,194.1,306.3C194.1,306.4,194.1,306.3,194.1,306.3z"/>
		<path class="st2" d="M199,304.4c0-0.6,0.1-1.2,0.5-1.7c0.4-0.7,1.3-1,2-0.6c0.3,0.1,0.5,0.4,0.6,0.6c0.3,0.5,0.5,1.1,0.5,1.7
			c0,0.6-0.2,1.2-0.5,1.7c-0.4,0.7-1.3,1-2,0.6c-0.3-0.1-0.5-0.3-0.6-0.6C199.2,305.6,199,305,199,304.4z M201.8,304.4
			c0-0.4-0.1-0.9-0.3-1.2c-0.1-0.2-0.4-0.4-0.6-0.4c-0.3,0-0.5,0.2-0.7,0.4c-0.2,0.4-0.3,0.8-0.3,1.2c0,0.4,0.1,0.9,0.3,1.2
			c0.1,0.2,0.4,0.4,0.7,0.4c0.3,0,0.5-0.2,0.6-0.4C201.7,305.3,201.8,304.9,201.8,304.4z"/>
		<path class="st2" d="M207.7,305.6c0,0.2-0.2,0.4-0.4,0.4c0,0,0,0,0,0h-0.1v0.5c0,0.2-0.2,0.4-0.4,0.3c-0.2,0-0.3-0.2-0.3-0.3V306
			h-2.2c-0.1,0-0.2,0-0.2-0.1c-0.2-0.1-0.2-0.3-0.1-0.5c0,0,0,0,0,0l2.6-3.2l0,0l0,0l0,0l0,0c0,0,0,0,0.1,0l0,0h0.3l0,0l0,0l0,0l0,0
			l0,0l0,0l0,0l0,0l0,0v3h0.1c0.1-0.2,0.4-0.3,0.6-0.2S207.8,305.4,207.7,305.6z M206.5,303.5l-1.4,1.7h1.4V303.5z"/>
		<polygon class="st0" points="183.7,235.1 200.3,235 216.8,235 250,234.9 283.1,235 299.7,235 316.3,235.1 299.7,235.3 
			283.1,235.3 250,235.4 216.8,235.3 200.3,235.3 		"/>
		<circle class="st4" cx="268.5" cy="137.3" r="8"/>
		<circle class="st0" cx="230.4" cy="157.7" r="7.9"/>
		<path class="st8" d="M269.4,136.4l0.1,21.9c0,1.2-1,2.2-2.2,2.2c0,0,0,0,0,0l-34.7,0.1c-1.2,0-2.2-1-2.2-2.2c0,0,0,0,0,0
			l-0.1-21.9c0-1.1,0.8-2,1.9-2.1c0,0,0.1,0,0.1,0l35-0.1C268.5,134.3,269.4,135.2,269.4,136.4C269.4,136.3,269.4,136.3,269.4,136.4
			z"/>
		<path class="st5" d="M263.9,155.1c0,1.1-0.9,2-2,2s-2-0.9-2-2s0.9-2,2-2S263.9,154,263.9,155.1z"/>
		<path class="st4" d="M266.4,155.1c0,1.1-0.9,2-2,2s-2-0.9-2-2s0.9-2,2-2S266.4,154,266.4,155.1z"/>
		<path class="st4" d="M238.4,143.2h-2.3c-1.4,0-2.5-1.1-2.6-2.5l0,0c0-1.4,1.1-2.5,2.5-2.5h2.3c1.4,0,2.5,1.1,2.5,2.5l0,0
			C241,142.1,239.8,143.2,238.4,143.2z"/>
		<path class="st5" d="M264.9,140.9h-3.3c-0.8,0-1.4-0.6-1.4-1.4c0,0,0,0,0,0l0,0c0-0.8,0.6-1.4,1.4-1.4h3.3c0.8,0,1.4,0.6,1.4,1.4
			v0l0,0C266.3,140.2,265.7,140.8,264.9,140.9z"/>
		<path class="st5" d="M233.4,147.8l-0.3,0.2l0,0c0,0,0,0-0.1,0c0,0,0-0.1,0-0.1c0,0,0,0,0,0l0.4-0.2c0,0,0.1,0,0.1,0c0,0,0,0,0,0.1
			v2c0,0,0,0.1-0.1,0.1c0,0-0.1,0-0.1-0.1V147.8z"/>
		<path class="st5" d="M234.1,149.6l1-0.9c0.1-0.1,0.2-0.3,0.2-0.4c0-0.1-0.1-0.3-0.1-0.4c-0.1-0.1-0.2-0.2-0.4-0.2
			c-0.1,0-0.3,0.1-0.4,0.1l-0.1,0.1c0,0-0.1,0-0.1,0c0,0,0-0.1,0-0.1c0,0,0,0,0,0l0.1-0.1c0.1-0.1,0.3-0.2,0.5-0.2
			c0.2,0,0.4,0.1,0.5,0.2c0.1,0.1,0.2,0.3,0.2,0.5c0,0.2-0.1,0.4-0.2,0.5l-0.9,0.8h1c0,0,0.1,0,0.1,0.1c0,0,0,0.1-0.1,0.1h-1.2
			c0,0-0.1,0-0.1,0C234,149.7,234,149.7,234.1,149.6C234.1,149.6,234.1,149.6,234.1,149.6z"/>
		<path class="st5" d="M237.1,147.8l-0.6,0.6c0.1,0,0.3,0.1,0.4,0.2c0.3,0.3,0.3,0.7,0,1c-0.1,0.1-0.3,0.2-0.5,0.2
			c-0.2,0-0.4-0.1-0.5-0.2c0,0,0-0.1,0-0.1c0,0,0,0,0,0c0,0,0.1,0,0.1,0c0.1,0.1,0.3,0.2,0.4,0.2c0.2,0,0.3-0.1,0.4-0.2
			c0.2-0.2,0.2-0.6,0-0.8c0,0,0,0,0,0c-0.1-0.1-0.2-0.2-0.4-0.2c0,0,0,0-0.1,0l0,0c0,0,0-0.1,0-0.1l0.5-0.5h-0.8c0,0-0.1,0-0.1-0.1
			c0,0,0,0,0,0c0,0,0-0.1,0.1-0.1c0,0,0,0,0,0h1C237.2,147.6,237.2,147.7,237.1,147.8L237.1,147.8L237.1,147.8z"/>
		<path class="st5" d="M238.9,149.3h-1.2c0,0,0-0.1,0-0.1c0,0,0,0,0,0l1.2-1.5l0,0c0,0,0.1,0,0.1,0c0,0,0,0,0,0l0,0l0,0l0,0v1.5h0.1
			c0,0,0.1,0,0.1,0.1l0,0c0,0,0,0.1-0.1,0.1h0h-0.1v0.4c0,0,0,0.1-0.1,0.1c0,0-0.1,0-0.1-0.1L238.9,149.3z M238.9,149.2v-1.2l-1,1.2
			L238.9,149.2z"/>
		<path class="st5" d="M241.6,149.5C241.6,149.5,241.6,149.4,241.6,149.5c0-0.1,0-0.1,0-0.1c0,0,0.1,0,0.1,0c0,0,0,0,0,0
			c0.1,0.1,0.3,0.2,0.4,0.2c0.2,0,0.3-0.1,0.4-0.2c0.1-0.1,0.2-0.2,0.2-0.4c0-0.2-0.1-0.3-0.2-0.4c-0.1-0.1-0.3-0.2-0.4-0.2
			c-0.2,0-0.3,0.1-0.4,0.2c0,0-0.1,0-0.1,0l0,0l0,0l0,0l0.1-0.9c0,0,0,0,0-0.1l0,0h1c0,0,0.1,0,0.1,0.1l0,0c0,0,0,0.1-0.1,0.1h-0.9
			l-0.1,0.6c0.1-0.1,0.2-0.1,0.4-0.1c0.4,0,0.7,0.3,0.7,0.7l0,0c0,0.2-0.1,0.4-0.2,0.5C242.3,149.9,241.8,149.9,241.6,149.5
			L241.6,149.5z"/>
		<path class="st5" d="M243.6,148.1c0.1-0.3,0.4-0.5,0.8-0.5c0,0,0.1,0,0.1,0.1v0c0,0,0,0.1-0.1,0.1c-0.3,0-0.5,0.2-0.6,0.4
			c-0.1,0.1-0.1,0.3-0.1,0.4c0.1-0.1,0.3-0.2,0.5-0.2c0.4,0,0.7,0.3,0.7,0.7c0,0.4-0.3,0.7-0.7,0.7c-0.4,0-0.7-0.3-0.7-0.7
			c0,0,0-0.1,0-0.1C243.4,148.6,243.5,148.3,243.6,148.1z M243.6,149.1L243.6,149.1L243.6,149.1c0,0.3,0.3,0.5,0.6,0.5
			c0.3,0,0.5-0.3,0.5-0.6s-0.3-0.5-0.6-0.5C243.8,148.5,243.6,148.7,243.6,149.1L243.6,149.1z"/>
		<path class="st5" d="M245.6,149.6l0.8-1.9h-1c0,0-0.1,0-0.1-0.1c0,0,0-0.1,0.1-0.1h1.2l0,0l0,0l0,0l-0.8,2
			C245.7,149.6,245.7,149.6,245.6,149.6L245.6,149.6C245.7,149.6,245.6,149.6,245.6,149.6z"/>
		<path class="st5" d="M247.7,147.6c0.2,0,0.4,0.2,0.4,0.4l0,0c0,0.1-0.1,0.3-0.2,0.4c0.4,0.1,0.5,0.5,0.4,0.9
			c-0.1,0.4-0.5,0.5-0.9,0.4c-0.3-0.1-0.4-0.4-0.4-0.6c0-0.3,0.2-0.5,0.4-0.6c-0.1-0.1-0.2-0.2-0.2-0.4
			C247.3,147.8,247.5,147.6,247.7,147.6z M247.7,149.6c0.3,0,0.5-0.2,0.6-0.5c0,0,0,0,0,0c0-0.3-0.3-0.5-0.6-0.5
			c-0.3,0-0.5,0.3-0.5,0.6C247.2,149.3,247.4,149.6,247.7,149.6L247.7,149.6z M247.7,148.3c0.2,0,0.3-0.1,0.3-0.3
			c0-0.2-0.1-0.3-0.3-0.3l0,0c-0.2,0-0.3,0.1-0.3,0.3c0,0,0,0,0,0C247.4,148.2,247.6,148.3,247.7,148.3L247.7,148.3z"/>
		<path class="st5" d="M251.5,147.6c0.4,0,0.7,0.3,0.7,0.6l0,0v0.2c0,0.3-0.1,0.6-0.2,0.9c-0.1,0.3-0.4,0.5-0.7,0.5l0,0
			c0,0-0.1-0.1,0-0.1c0,0,0,0,0,0c0.3,0,0.5-0.2,0.6-0.4c0.1-0.1,0.1-0.3,0.1-0.4c-0.1,0.2-0.3,0.2-0.5,0.2c-0.4,0-0.7-0.3-0.7-0.7
			C250.8,147.9,251.1,147.6,251.5,147.6C251.5,147.6,251.5,147.6,251.5,147.6L251.5,147.6z M252.1,148.3c0-0.3-0.2-0.6-0.5-0.6
			c-0.3,0-0.6,0.2-0.6,0.5c0,0.3,0.2,0.6,0.5,0.6c0,0,0,0,0,0C251.8,148.8,252,148.6,252.1,148.3C252,148.3,252.1,148.3,252.1,148.3
			z"/>
		<path class="st5" d="M252.7,148.6c0-0.3,0.1-0.5,0.2-0.8c0.1-0.2,0.3-0.3,0.5-0.3c0.2,0,0.4,0.1,0.5,0.3c0.3,0.5,0.3,1,0,1.5
			c-0.1,0.2-0.3,0.3-0.5,0.3c-0.2,0-0.4-0.1-0.5-0.3C252.8,149.2,252.7,148.9,252.7,148.6z M252.9,148.6c0,0.2,0.1,0.5,0.2,0.7
			c0.1,0.2,0.4,0.3,0.6,0.2c0.1,0,0.2-0.1,0.2-0.2c0.1-0.2,0.2-0.4,0.2-0.7c0-0.2-0.1-0.5-0.2-0.7c-0.1-0.2-0.4-0.3-0.6-0.2
			c-0.1,0-0.2,0.1-0.2,0.2C252.9,148.2,252.9,148.4,252.9,148.6z"/>
		<path class="st5" d="M255.2,147.8l-0.3,0.2l0,0c0,0,0,0-0.1,0c0,0,0-0.1,0-0.1c0,0,0,0,0,0l0.4-0.2c0,0,0.1,0,0.1,0c0,0,0,0,0,0.1
			v2c0,0,0,0.1-0.1,0.1l0,0c0,0-0.1,0-0.1-0.1L255.2,147.8z"/>
		<path class="st5" d="M255.9,149.6l1-0.9c0.1-0.1,0.2-0.2,0.2-0.4c0-0.1-0.1-0.3-0.1-0.4c-0.1-0.1-0.3-0.2-0.4-0.2
			c-0.1,0-0.3,0.1-0.4,0.1L256,148c0,0-0.1,0-0.1,0c0,0,0-0.1,0-0.1l0.1-0.1c0.1-0.1,0.3-0.2,0.5-0.2c0.2,0,0.4,0.1,0.5,0.2
			c0.1,0.1,0.2,0.3,0.2,0.5c0,0.2-0.1,0.4-0.2,0.5l-0.9,0.8h1c0,0,0.1,0,0.1,0.1c0,0,0,0.1-0.1,0.1l0,0h-1.2c0,0,0,0-0.1,0
			C255.8,149.7,255.8,149.6,255.9,149.6C255.9,149.6,255.9,149.6,255.9,149.6z"/>
		<path class="st5" d="M260.8,147.7l-0.5,0.6c0.1,0,0.3,0.1,0.4,0.2c0.1,0.1,0.2,0.3,0.2,0.5c0,0.2-0.1,0.4-0.2,0.5
			c-0.3,0.3-0.7,0.3-1,0c0,0,0-0.1,0-0.1c0,0,0,0,0,0c0,0,0.1,0,0.1,0c0.1,0.1,0.3,0.2,0.4,0.2c0.2,0,0.3-0.1,0.4-0.2
			c0.1-0.1,0.2-0.3,0.2-0.4c0-0.1-0.1-0.3-0.2-0.4c-0.1-0.1-0.3-0.2-0.4-0.2H260l0,0c0,0,0-0.1,0-0.1l0.5-0.5h-0.8
			c0,0-0.1,0-0.1-0.1c0,0,0,0,0,0c0,0,0-0.1,0.1-0.1l0,0h1C260.8,147.6,260.8,147.6,260.8,147.7L260.8,147.7L260.8,147.7z"/>
		<path class="st5" d="M262.6,149.2h-1.2c0,0,0-0.1,0-0.1l1.2-1.5l0,0c0,0,0.1,0,0.1,0c0,0,0,0,0,0l0,0l0,0v1.5h0.1
			c0,0,0.1,0,0.1,0.1c0,0,0,0.1-0.1,0.1h-0.1v0.4c0,0,0,0.1-0.1,0.1c0,0-0.1,0-0.1-0.1L262.6,149.2z M262.6,149.1v-1.2l-1,1.2
			L262.6,149.1z"/>
		<path class="st5" d="M263.4,149.5c0,0,0-0.1,0-0.1c0,0,0.1,0,0.1,0c0.1,0.1,0.3,0.2,0.4,0.2c0.3,0,0.6-0.3,0.6-0.6
			c0-0.1-0.1-0.3-0.2-0.4c-0.1-0.1-0.3-0.2-0.4-0.2c-0.2,0-0.3,0.1-0.4,0.2c0,0-0.1,0-0.1,0l0,0l0,0l0,0l0,0l0.1-0.9c0,0,0,0,0-0.1
			h1c0,0,0.1,0,0.1,0.1c0,0,0,0.1-0.1,0.1c0,0,0,0,0,0h-0.9l-0.1,0.6c0.1-0.1,0.2-0.1,0.4-0.1c0.2,0,0.4,0.1,0.5,0.2
			c0.1,0.1,0.2,0.3,0.2,0.5c0,0.2-0.1,0.4-0.2,0.5c-0.1,0.1-0.3,0.2-0.5,0.2C263.7,149.7,263.5,149.6,263.4,149.5z"/>
		<path class="st5" d="M265.4,148c0.1-0.3,0.4-0.5,0.7-0.5c0,0,0.1,0,0.1,0.1c0,0,0,0.1-0.1,0.1c-0.3,0-0.5,0.2-0.6,0.4
			c-0.1,0.1-0.1,0.3-0.1,0.4c0.1-0.2,0.3-0.2,0.5-0.2c0.4,0,0.7,0.2,0.8,0.6c0,0.4-0.2,0.7-0.6,0.8c-0.1,0-0.1,0-0.2,0
			c-0.4,0-0.7-0.3-0.7-0.7c0,0,0-0.1,0-0.1C265.2,148.5,265.3,148.3,265.4,148z M265.4,149L265.4,149c0,0.3,0.3,0.5,0.6,0.5
			c0.3,0,0.5-0.3,0.5-0.6c0-0.3-0.3-0.5-0.6-0.5C265.6,148.4,265.4,148.6,265.4,149C265.4,148.9,265.4,148.9,265.4,149L265.4,149z"
			/>
		
			<rect x="233.7" y="153.4" transform="matrix(1 -2.617982e-03 2.617982e-03 1 -0.4019 0.6366)" class="st5" width="18.6" height="0.9"/>
		
			<rect x="233.7" y="155.4" transform="matrix(1 -2.617982e-03 2.617982e-03 1 -0.4072 0.6295)" class="st5" width="13.1" height="0.9"/>
		
			<rect x="249.7" y="138.1" transform="matrix(1 -2.617982e-03 2.617982e-03 1 -0.3618 0.6663)" class="st5" width="9.3" height="0.9"/>
	</g>
	<g id="freepik--Plant--inject-14">
		<path class="st4" d="M399.5,324.2c0.9,6.4,0.6,12.9-1,19.1c-0.7,2.9-1.7,5.7-2.9,8.5c-1.5,3.5-3.1,6.9-2.7,10.8
			c0.4,0.2-0.9,0.2-0.9-0.2c-10.2-5.8-23.4-6.9-31.3-16.5c-3.7-4.5-5.6-10.2-6.5-16c-1-6.2-1.2-13.1,0.4-19.3
			c1.4-5.2,4.4-10.2,9.3-12.8s11.6-2.4,17-0.8C392.2,300.8,397.9,313.1,399.5,324.2z"/>
		<path class="st7" d="M404.8,400c-1.4-4.7-2.8-9.3-4.2-14c-2.8-9.1-5.7-18.2-9-27.1c-1.9-5.4-4-10.7-6.1-16
			c0.2-3.3,0.6-6.6,1.2-9.9c0.9-4,2.1-7.8,3.3-11.7c0.1-0.2-0.3-0.4-0.4-0.1c-2.3,5.4-5.3,12.2-5.4,18.6c-2.5-6-5.2-11.8-8-17.6
			c-0.3-4.9-0.2-9.8,0.5-14.7c0-0.1-0.1-0.2-0.2-0.2c-0.1,0-0.1,0-0.2,0.1c-0.9,4.3-1.2,8.6-1,13c-2.2-4.4-4.5-8.6-7-12.9
			c-0.2-0.4-0.8,0-0.5,0.4c3.9,7.4,7.4,15,10.8,22.6c-4.7-4.1-10.2-7.2-16.1-9.3c-0.2-0.1-0.4,0.3-0.2,0.4
			c6.4,2.8,12.3,6.7,17.4,11.5c2.4,5.6,4.7,11.3,6.9,17c-6.4-6.3-15.2-10.4-23.7-12.6c-0.3-0.1-0.4,0.4-0.1,0.5
			c9.8,3,17.5,8.5,24.9,15.2c0.9,2.3,1.7,4.6,2.6,6.9c3.2,8.8,6.2,17.6,9,26.5c1.4,4.3,2.7,8.5,4.1,12.8c1.4,4.6,2.5,9.5,4.4,13.9
			c0.2,0.4,0.9,0.3,0.8-0.2C407.7,408.7,406.1,404.3,404.8,400z"/>
		<path class="st7" d="M387.8,315.2c-1.8,2.8-3.1,5.9-3.7,9.2c0,0,0,0.1,0.1,0.1c0,0,0.1,0,0.1,0c1.1-3.1,2.5-6.1,4-9
			C388.4,315.1,388,315,387.8,315.2z"/>
		<path class="st7" d="M369.5,336.6c-2.9-1.6-6-2.6-9.2-3.1c-0.1,0-0.1,0.1,0,0.1c1.5,0.6,3,1,4.5,1.6s3,1.3,4.5,1.8
			c0.1,0.1,0.3,0,0.3-0.1C369.7,336.8,369.6,336.6,369.5,336.6L369.5,336.6z"/>
		<path class="st7" d="M364.4,310.9c-0.9-0.7-1.9-1.3-3-1.8c-0.1,0-0.2,0-0.2,0.1c0,0.1,0,0.1,0,0.2c0.9,0.7,1.9,1.4,2.9,1.9
			C364.3,311.3,364.5,311,364.4,310.9z"/>
		<path class="st4" d="M434.1,359c-7.4,2.2-14.8,4.2-22.2,6.4c-0.6,0.2-13.1-23.7-8.6-36c4.2-11.4,13.7-19.9,25.1-23.8
			c5.3-1.8,11.8-3.3,17.3-2.1c5,1.1,8.5,5.1,10.1,9.8c2.2,6.3,1.5,13.9,0.3,20.3c-1.1,6-3.3,11.9-7.3,16.6S439.8,357.3,434.1,359z"
			/>
		<path class="st7" d="M444.8,336.3c-4.7,2.3-9.5,4.2-14.5,5.7c-3.3,0.9-6.5,2.1-9.7,3.5c3.1-7,6.5-13.8,10.2-20.5
			c4.8-1.4,9.8-3.5,13.4-6.9c0.2-0.2-0.1-0.5-0.3-0.3c-3.9,2.8-8.3,4.5-12.6,6.3c1-1.8,2-3.6,3-5.4c0.3-0.5-0.4-1-0.8-0.5
			c-3.9,5.6-7.4,11.5-10.5,17.6c-0.8-5.3-1-10.7-0.8-16.1c0-0.1,0-0.1-0.1-0.1c-0.1,0-0.1,0-0.1,0.1c-0.9,5.9-0.9,11.9,0.2,17.7
			c-2.6,5.2-4.9,10.5-7.1,15.8c-0.8-3.2-1.9-6.4-2.7-9.6c-1.1-4.6-1.5-9.4-1.1-14.2c0-0.1-0.2-0.1-0.2,0c-1.3,8.8-0.2,17.8,3.1,26.1
			c-1.2,3.2-2.4,6.5-3.5,9.7c-5.6,16.6-8.9,33.8-9.8,51.2c0,0.2,0.2,0.3,0.3,0.3c0.1,0,0.3-0.1,0.3-0.2c1.9-17.2,5.6-34.2,11-50.6
			c2.1-6.4,4.6-12.7,7.3-18.8c4.4-1.3,8.7-3,13-4.5s8.5-3.1,12-5.9c0.1,0,0.1-0.2,0.1-0.2C445,336.2,444.9,336.2,444.8,336.3
			L444.8,336.3z"/>
		<path class="st7" d="M451.6,329.3c-4.5,1.6-8.8,3.9-13.3,5.5c-0.2,0.1-0.1,0.4,0.1,0.4c4.8-1,9.5-2.5,13.4-5.6
			C452,329.5,451.8,329.3,451.6,329.3z"/>
		<path class="st7" d="M414.8,319.6c0-0.2-0.3-0.4-0.4-0.1c-1.2,4.2-2.1,8.6-0.9,12.8c0,0.2,0.3,0.2,0.3,0
			C414.1,328,413.8,323.8,414.8,319.6z"/>
		<path class="st7" d="M433.4,310c-1.5,2.1-2.2,4.6-2,7.1c0,0.2,0.3,0.2,0.3,0.1c0.5-2.4,1.5-4.5,2.2-6.9c0-0.2-0.1-0.3-0.3-0.3
			C433.6,309.9,433.5,309.9,433.4,310z"/>
		<path class="st4" d="M346.3,369.5c2.2,6.9,7.3,16.4,15.5,16.4c5.3,0,10.6-0.6,15.9-0.6c5.7-0.1,11.3-0.1,17,0.3
			c0.5,0-0.7-17-14.3-25.2c-3.8-2.3-8.5-3.1-12.8-4c-5-1.2-10-1.7-15.1-1.6c-3.1,0.1-5.7,0.8-6.9,4
			C344.4,362.1,345.2,366.3,346.3,369.5z"/>
		<path class="st7" d="M352.1,360.9c3.3,0.9,6.6,1.8,10,2.9c-0.9-0.9-1.8-1.8-2.7-2.7c-1.4-1.2-3-2.1-4.5-3.2
			c-0.1-0.1,0-0.3,0.1-0.3c3.2,1.3,6,3.6,8,6.4c4.1,1.3,8.2,2.8,12.2,4.4c2.7,1.1,5.3,2.5,7.8,4.1c-0.8-1.7-1.7-3.4-2.8-4.9
			c-1.8-2.3-4.2-3.6-6.6-5.3c-0.1-0.1-0.1-0.2-0.1-0.3c0.1-0.1,0.2-0.1,0.3-0.1c5,2.2,8.9,6.4,10.6,11.5c2.8,2,5.4,4.4,7.7,7
			c9,10.2,16.1,23.9,16.1,37.8c0,0.3-0.5,0.4-0.6,0.1c-2.5-13.8-8-26.2-17.2-36.9c-0.7-0.7-1.3-1.5-2-2.2c-2.5-0.3-5-0.5-7.4-0.5
			c-2.9,0-5.8,0.4-8.7,0.7c-4.8,0.4-10,0.4-14.3-2c-0.2-0.1-0.1-0.4,0.1-0.4c9.6,3.5,19.6-0.9,29.2,1.1c-4.1-3.9-8.9-7-14.1-9.1
			l-0.9-0.4c-6.1,0.7-12.6,2.3-18.6,0.3c-0.1,0-0.1-0.1-0.1-0.2s0.1-0.1,0.2-0.1l0,0c5.8,1.5,11.3-0.4,17-0.7
			c-6.2-2.4-12.5-4.3-18.8-6.7C351.6,361.3,351.6,360.8,352.1,360.9z"/>
		<path class="st7" d="M349.4,367c3,0.4,5.9,0.6,8.9,0.7c0.1,0,0.1,0.1,0,0.1c-3,0.6-6.1,0.4-9-0.6C349.2,367.2,349.3,367,349.4,367
			z"/>
		<path class="st7" d="M369.6,361.1c1.7,0.7,3.1,1.8,4.4,3.1c0.2,0.1,0,0.4-0.2,0.3c-0.8-0.5-1.5-1.1-2.3-1.6
			c-0.7-0.4-1.5-0.9-2.1-1.4c-0.1-0.1-0.1-0.3,0-0.4C369.4,361.1,369.5,361.1,369.6,361.1z"/>
		<path class="st4" d="M417.7,383.2c-0.1,0.2,0.2,0.4,0.4,0.2l0,0c0,0.1,0.1,0.1,0.2,0.1c5.5,1.3,11,2.3,16.6,2.9
			c4.5,0.4,9.7,0.6,13.6-2c5.3-3.5,8.9-13,6-19c-3.4-7.1-13.7-3.3-18.9-0.7C427.7,368.6,421.3,375.1,417.7,383.2z"/>
		<path class="st7" d="M413.7,386.5c3-2.9,6.3-5.4,9.9-7.6c2.6-4.1,6-7.6,10.1-10.3c0.2-0.1,0.4,0.2,0.2,0.3
			c-3.2,2.6-6.1,5.6-8.5,8.9c4-2.2,8.2-4.1,12.5-5.7c1.5-2.8,3.9-5.2,6.7-6.7c0.1,0,0.1,0,0.1,0.1c-2.3,1.8-4.4,3.9-6,6.3
			c2.5-0.9,5.1-1.8,7.6-2.7c0.2-0.1,0.3,0.3,0.1,0.4c-4.5,1.8-9.2,3.6-13.7,5.8c5.5,0.9,11.1,0.8,16.6,0c0.2,0,0.2,0.2,0.1,0.2
			c-5.7,1.7-11.8,1.8-17.6,0.3c-2.9,1.4-5.7,3-8.4,4.7c2.3-0.2,4.5,0,6.8,0.6c3.9,0.9,7.9,1.4,11.9,1.3c0.1,0,0.1,0.1,0.1,0.2
			c0,0-0.1,0.1-0.1,0.1c-6.9,1.2-13.4-2-20.2-1.1c-2.5,1.7-4.9,3.7-7.1,5.8c-4.3,4.3-7.8,9.2-10.4,14.6c-2.9,5.8-4.4,12-6.8,18.1
			c0,0.1-0.2,0.2-0.3,0.1c-0.1,0-0.1-0.1-0.1-0.2C399.1,408.1,405,395,413.7,386.5z"/>
		<path class="st7" d="M434.5,370.2c0.5-0.8,1.1-1.5,1.8-2.1c0.6-0.6,1.2-1.1,2-1.5c0.1,0,0.1,0.1,0.1,0.1c-0.6,0.6-1.4,1.1-2,1.7
			s-1.1,1.3-1.7,2C434.5,370.3,434.4,370.2,434.5,370.2C434.4,370.2,434.4,370.2,434.5,370.2z"/>
		<path class="st7" d="M445.8,373.9c1-0.3,2.1-0.2,3.1-0.5c1-0.2,2.1-0.6,3-0.9c0.1,0,0.1,0,0.1,0.1c0,0.1,0,0.1-0.1,0.1
			c-1.9,1.2-4.1,1.7-6.3,1.5C445.6,374.2,445.6,373.9,445.8,373.9z"/>
		<polygon class="st8" points="385.3,405.4 386.2,415.6 389.3,450.3 416.4,450.3 420.2,415.6 421.4,405.4 		"/>
		<polygon class="st7" points="385.3,405.4 386.2,415.6 420.2,415.6 421.4,405.4 		"/>
		<rect x="382.6" y="402.6" class="st8" width="41.5" height="8.3"/>
	</g>
	<rect x="183.5" y="174.8" class="st5" width="138.7" height="123.7"/>
	<rect x="184.4" y="300.1" class="st5" width="95.7" height="13.3"/>
	<g id="freepik--Character--inject-14">
		<path class="st7" d="M340.3,129.4l-0.4,0.1c0,0,0-0.1,0.1-0.1l0,0L340.3,129.4z"/>
		<path class="st9" d="M351.8,418.3h-0.2v-0.1L351.8,418.3z"/>
		<polygon class="st1" points="144.4,349.7 146.7,364 162.8,450.8 165.4,450.8 153.7,364 152,349.7 		"/>
		<polygon class="st3" points="152,349.7 144.4,349.7 146.7,364 153.7,364 		"/>
		<polygon class="st1" points="93.9,450.8 96.5,450.8 112.5,364 114.9,349.7 107.3,349.7 105.6,364 		"/>
		<polygon class="st3" points="107.3,349.7 105.6,364 112.5,364 114.9,349.7 		"/>
		<polygon class="st1" points="45.7,450.8 48.2,450.8 64.3,364 66.7,349.7 59.1,349.7 57.3,364 		"/>
		<polygon class="st3" points="57.3,364 64.3,364 66.7,349.7 59.1,349.7 		"/>
		<polygon class="st1" points="49.8,356.4 167.6,356.4 167.6,344 123.5,344 108.7,279.4 54.3,279.4 		"/>
		<polygon class="st3" points="49.8,356.4 56.2,356.4 60.4,279.4 54.3,279.4 		"/>
		<path class="st9" d="M236.6,429.4c-2.1,1.2-65.5,14.5-68.2,13.5c-1-0.4-3.5-9.5-6.2-20.6c-0.6-2.4-1.2-4.9-1.7-7.4
			c-3.8-16.4-7.4-33.8-7.4-33.8l42.4-9l6.2,34.1l1.4,7.5c0,0,26.6,5.8,29.4,7.2S238.6,428.2,236.6,429.4z"/>
		<path class="st0" d="M236.6,429.4c-2.1,1.2-65.5,14.5-68.2,13.5c-1-0.4-3.5-9.5-6.2-20.6c-0.6-2.4-1.2-4.9-1.7-7.4
			c-0.1-0.6-0.3-1.2-0.4-1.8l41.5-7.8l0.1,0.8l1.4,7.5c0,0,26.6,5.8,29.4,7.2S238.6,428.2,236.6,429.4z"/>
		<path class="st4" d="M236.9,429.4c-2.1,1.2-66.3,14.5-69,13.5c-1.1-0.4-3.5-9.6-6.2-20.8c0-0.1-0.1-0.2-0.1-0.4l41.3-9.1l0.1,0.7
			c0,0,26.8,5.9,29.8,7.3S239,428.2,236.9,429.4z"/>
		<path class="st7" d="M235.7,427.1c-10.9,2-54.5,11-65.1,13.8c-0.1,0-0.1,0.1,0,0.1c10.8-1.7,54.4-11.1,65.2-13.7
			C236,427.2,235.9,427,235.7,427.1z"/>
		<path class="st7" d="M207.5,411.8c-4.4,0.1-9.5,1.8-12.1,5.5c-0.1,0.1,0.1,0.3,0.2,0.2c3.8-2.2,7.8-3.9,12-5.2
			c0.2,0,0.3-0.2,0.2-0.3C207.8,411.9,207.7,411.8,207.5,411.8z"/>
		<path class="st7" d="M211,413c-4.4,0.1-9.5,1.8-12.1,5.5c-0.1,0.1,0.1,0.3,0.2,0.2c3.8-2.2,7.8-3.9,12-5.2
			c0.1-0.1,0.2-0.2,0.2-0.4C211.2,413.1,211.1,413,211,413z"/>
		<path class="st7" d="M214.4,414.2c-4.4,0.1-9.5,1.8-12.1,5.5c-0.1,0.1,0.1,0.3,0.2,0.2c3.8-2.2,7.8-3.9,12-5.2
			c0.1-0.1,0.2-0.2,0.2-0.4C214.7,414.3,214.6,414.2,214.4,414.2z"/>
		<path class="st7" d="M211.1,401.4c-2.1-2-5.1-0.3-6.5,1.6c-2.5,3.2-4,7.1-4.5,11.1c0,0.1,0.1,0.1,0.1,0.1c0,0.3,0.3,0.5,0.6,0.5
			c0.1,0,0.1,0,0.2-0.1c3.2-2,7-3.8,9.5-6.8C212,406.1,213.2,403.2,211.1,401.4z M205.3,410.5c-1.6,1-3.2,2-4.7,3.1
			c0.9-2.2,1.7-4.4,2.8-6.4c0.5-1,1.1-2,1.8-2.9c1-1.4,5.5-4.9,5.8-0.1C211,406.9,207.2,409.3,205.3,410.5L205.3,410.5z"/>
		<path class="st7" d="M189.1,415.2c3.8,0.8,7.8-0.1,11.6-0.6c0.3-0.1,0.5-0.4,0.4-0.7c0,0,0-0.1,0-0.1c0.1,0,0.1-0.1,0-0.2
			c0,0,0,0,0,0c-2.9-2.9-6.5-4.9-10.4-5.9c-2.3-0.6-5.6-0.1-6.1,2.8C184.1,413.3,186.8,414.8,189.1,415.2z M186.5,412.6
			c-2.8-3.9,2.9-4,4.6-3.5c1.1,0.3,2.1,0.7,3.2,1.2c2.1,1,4.2,2.1,6.2,3.3c-1.9,0.1-3.7,0.3-5.6,0.5
			C192.6,414.3,188.1,414.8,186.5,412.6z"/>
		<path class="st9" d="M179.7,459.9c-2.3,0.6-67-2.7-69.4-4.4c-0.5-0.4,0.1-9.1,0.8-16.9c0.5-5.8,14.7-46.2,14.7-46.2l43.3,2.1
			L151.3,436c0,0,24.2,12.4,26.6,14.5S182,459.2,179.7,459.9z"/>
		<path class="st0" d="M179.7,459.9c-2.3,0.6-67-2.7-69.4-4.4c-0.5-0.4,0.1-9.1,0.8-16.9c0.2-1.9,1.8-7.6,4-14.3l39.8,3.5l-3.5,8.2
			c0,0,24.2,12.4,26.6,14.5S182,459.2,179.7,459.9z"/>
		<path class="st4" d="M180.6,460.5c-2.3,0.6-67.8-3.2-70.2-4.9c-0.8-0.6-0.3-7,0.6-17.4c0.1-1.2,1.2-5.4,1.2-5.5l39.9,2.8l-0.1,0.7
			c0,0,24.4,12.7,26.8,14.8S182.9,459.8,180.6,460.5z"/>
		<path class="st7" d="M180,457.9c-11-0.9-55.5-3.6-66.5-3.7c-0.1,0-0.1,0.1,0,0.1c10.9,1.1,55.4,3.5,66.5,3.8
			C180.2,458.1,180.2,457.9,180,457.9z"/>
		<path class="st7" d="M156.8,435.8c-4.3-1.1-9.6-0.7-13.1,2.2c-0.1,0.1,0,0.3,0.2,0.3c4.2-1.1,8.6-1.7,12.9-1.9
			c0.1,0,0.3-0.1,0.3-0.2C157,436,156.9,435.8,156.8,435.8L156.8,435.8z"/>
		<path class="st7" d="M159.8,437.9c-4.3-1.1-9.6-0.7-13.1,2.2c-0.1,0.1,0,0.3,0.2,0.3c4.2-1.1,8.6-1.7,12.9-1.9
			c0.1,0,0.3-0.1,0.3-0.2C160,438,159.9,437.9,159.8,437.9L159.8,437.9z"/>
		<path class="st7" d="M162.8,440c-4.3-1.1-9.6-0.7-13.1,2.2c-0.1,0.1,0,0.3,0.2,0.3c4.2-1.1,8.6-1.7,12.9-1.9
			c0.2,0,0.3-0.1,0.3-0.3C163,440.1,162.9,440,162.8,440z"/>
		<path class="st7" d="M163,426.7c-1.6-2.4-4.8-1.6-6.7-0.2c-3.2,2.5-5.7,5.8-7.3,9.5c0,0.1,0,0.1,0.1,0.2c0,0,0,0,0,0
			c0,0.3,0.2,0.6,0.5,0.6c0.1,0,0.1,0,0.2,0c3.7-1.1,7.7-1.9,10.9-4.1C162.5,431.5,164.4,429,163,426.7z M155,434
			c-1.8,0.6-3.6,1.1-5.4,1.8c1.4-1.9,2.8-3.7,4.4-5.5c0.8-0.8,1.6-1.6,2.4-2.4c1.4-1.1,6.6-3.3,5.6,1.4
			C161.4,431.9,157.1,433.3,155,434L155,434z"/>
		<path class="st7" d="M138,434.3c3.5,1.7,7.6,1.9,11.4,2.5c0.3,0,0.5-0.2,0.6-0.5c0-0.1,0-0.1,0-0.2c0.1,0,0.1-0.1,0.1-0.1
			c0,0,0,0,0,0c-2.1-3.5-5-6.4-8.5-8.4c-2.1-1.1-5.4-1.5-6.6,1.1S136,433.3,138,434.3z M136.2,431.1c-1.7-4.5,3.8-3.1,5.3-2.2
			c1,0.6,1.9,1.3,2.8,2c1.8,1.5,3.4,3.2,5.1,4.8c-1.8-0.4-3.7-0.6-5.6-1C141.6,434.3,137.2,433.6,136.2,431.1L136.2,431.1z"/>
		<path class="st10" d="M78.9,333.8c12.9,14.4,56.3,3,58.8,8.7c2.3,5-27.3,86.1-27.3,86.1l47.3,5.1c0,0,40.9-89.5,26.2-115.3
			c-7.9-14-42.7-8.4-63.6-11c-6.3-0.8-9.3-13.8-9.3-13.8H73.6C73.6,293.6,64.1,317.4,78.9,333.8z"/>
		<path class="st7" d="M170.9,310.4l-39.8,30.4c-13.2-0.3-42.1,4.3-52.2-7c-14.8-16.4-5.3-40.2-5.3-40.2h37.5c0,0,3,13,9.3,13.8
			C135.1,309.2,156.6,307,170.9,310.4z"/>
		<path class="st7" d="M159.6,423.1c-1.3-0.4-13.6-1.8-16.3-2.1c-5.4-0.6-22.5-2.2-25.6-2.2c0,0-0.1,0.1,0,0.1c0,0,0,0,0,0
			c2.7,0.6,13.6,1.8,16.3,2.1c5.4,0.6,24.1,2.4,25.6,2.2C159.6,423.4,159.7,423.3,159.6,423.1C159.6,423.2,159.6,423.2,159.6,423.1z
			"/>
		<path class="st7" d="M143.5,337.8c-3.1-1.5-26.1-0.8-42.7-2.3c-5.4-0.5-10.8-1.7-14.9-5.2c-3.6-3.2-6.2-7.5-7.4-12.1
			c-1.6-5.7-1.4-11.5-1.2-17.4c0.1-1.4,0.2-2.9,0.3-4.3c0-0.1-0.1-0.1-0.2,0c-1.3,10.4-2.2,22,4.5,31c3,3.9,7.3,6.7,12.1,7.9
			c10,2.6,47.5,2,48.8,3c1.6,1.2-22.7,75.1-23.2,76.5c-0.1,0.3,0.4,0.4,0.5,0.2C122.6,409.4,146.1,339.1,143.5,337.8z"/>
		<path class="st7" d="M185.7,320.9c-2.2-5.7-7.3-9.2-14.8-10.5c-0.1,0-0.1,0.2,0,0.2c6.5,1.9,11.2,4.5,13.8,10.1
			c1.2,2.6,1.8,6.2,2.1,11c1.6,24.2-19.6,79.1-20,80.1c0,0,0,0.1,0,0.1s0.1,0,0.1,0C169.9,406.8,194.9,344.3,185.7,320.9z"/>
		<path class="st10" d="M202.8,403.9l-35.8,7.6c0,0,28.3-84.4,15-95.3c-3.7-3-11.7-4.1-21.2,0c-14.2,6.2-30.8,18.8-46.3,23.3
			c-14.6,4.3-31.8,0.3-37.8-6.2c-12.5-13.8-3.1-39.7-3.1-39.7l49.2-1.9c0,0,0.2,0.6,2.7,2.8c0,0,31.7-6.9,44.9,1.2
			C194.1,310.2,202.8,403.9,202.8,403.9z"/>
		<path class="st7" d="M95.9,296.6C95.9,296.6,95.8,296.5,95.9,296.6c-0.1-0.1-0.2,0-0.2,0c0,1.9-0.1,3.9-0.4,5.8
			c-0.4,1.8-1.3,3.5-2.6,4.8c-2.8,2.9-6.9,3.8-10.6,5c-0.2,0.1-0.2,0.4,0.1,0.4c4.1-0.6,8.4-1.7,11.4-4.8c1.4-1.4,2.3-3.2,2.7-5.2
			C96.6,300.6,96.5,298.6,95.9,296.6z"/>
		<path class="st7" d="M181.1,314.6c-5.5-3.5-14.1-0.8-18.2,0.7c-0.1,0,0,0.2,0,0.1c3.8-1.4,13.2-3.4,18.3,0.1
			c11.7,8.3-3.9,64.8-14.2,95.9c-0.2,0.5,0.2,0.4,0.4-0.1c1.7-3.7,14.9-43,18.3-69C186.3,338.4,189,319.6,181.1,314.6z"/>
		<path class="st7" d="M198.8,394.4c-1.1,0-10.4,2-12.4,2.5c-4.1,0.9-13.6,3.4-15.8,4.2c-0.1,0,0,0.1,0.1,0.1
			c2.1-0.2,7.1-1.3,9.1-1.8c4.1-1,18.1-4.3,19.1-4.9C198.9,394.5,198.9,394.4,198.8,394.4z"/>
		<path class="st7" d="M179.3,313.1c-3.7-2-8.1-2.4-12.2-1.9c-4.3,0.7-8.6,2-12.5,3.9c-8.4,3.8-16.4,8.5-24.8,12.3s-17.3,6.8-26.5,7
			c-7.9,0.2-17.8-1.1-22.9-8.2c-7.8-10.9-3.2-29.7-3.2-30.9c0-0.1-0.1-0.1-0.1,0c-6,23.1,1.7,32.1,7,35.8c4.2,3,10.2,3.8,14.1,4.1
			c9.2,0.8,18.3-1.5,26.8-4.9c8.7-3.5,16.9-8.1,25.2-12.4c8-4.1,16.9-8.3,26-6C177.3,312.4,178.3,312.7,179.3,313.1
			C179.4,313.2,179.4,313.2,179.3,313.1z"/>
		<path class="st7" d="M134.1,240c0,0.2-0.1,0.4-0.4,0.5l-1.8,0.1c-1.6-4.2-3.4-7.6-2.9-6.3c0.7,2.1,1.1,4.2,1.1,6.4l-3.6,0.2
			c-1.4-7.4-3.2-12.9-3.1-11.2c0.5,6.9,0.1,9.1-0.4,11.4c-8.6,0.4-19.9,0.8-28.1,0.9c-0.9-4.1-1.8-8.6-1.9-8.2
			c-1.1,2.3-1.4,5.7-1.4,8.3c-2.6,0-4.7,0-6-0.1c0,0-0.6-3.4-0.7-4.6c-0.2-2.9,0.1-5.9,0.9-8.7c1-2.8,2.2-5.5,3.8-8v-0.1l0,0
			c0.9-1.7,1.7-3.5,2.2-5.4l0,0c0.3-1.4,0.6-2.7,0.7-4.1c0.4-5.1,3.2-9.5,8-10.8c9-8.5,18-4.9,20.8,1.6c0.3,0.6,0.5,1.4,0.8,2.1l0,0
			c0.9,2.9,1.8,6.7,2.5,9.7l0,0l0,0l0,0c0.3,1.2,0.6,2.3,1.1,3.4C128,222.4,133.1,225.4,134.1,240z"/>
		<path class="st7" d="M98.5,201.6c-3.1,1.4-5.2,4.4-5.5,7.7c-0.1,2.1-0.6,4.3-1.2,6.3c-0.9,2-2.1,3.9-3.6,5.6
			c-2.3,2.5-3.7,5.7-4.1,9.1c-0.4,3.9-0.1,7.8,1.1,11.5l0,0c-1-3.9-1.1-8-0.4-12c0.7-4,2.9-6.6,5.3-9.6c1.9-2.4,3.1-5.2,3.5-8.2
			c0.2-1.8,0.2-3.7,0.9-5.5c1-1.9,2.5-3.5,4.4-4.5c0.1-0.1,0.1-0.2,0-0.3C98.6,201.6,98.5,201.6,98.5,201.6z"/>
		<path class="st7" d="M130.9,222.8c-2.2-2.9-4.5-5.3-5.8-8.9c-1.2-3.2-1.8-6.7-3-9.9c0,0-0.1,0-0.1,0c1.8,5.8,2.2,11.6,5.9,16.4
			c2,2.6,4,5.1,5.4,8.2c1.4,3.3,2.1,6.9,2.1,10.4c0,0,0,0.1,0.1,0.1c0,0,0.1,0,0.1-0.1c0,0,0,0,0,0
			C136.2,233.3,134.5,227.5,130.9,222.8z"/>
		<path class="st10" d="M161.1,214.4l-10.9,26.7c-0.3,0.4-0.2,1.1,0.2,1.4c0.2,0.1,0.3,0.2,0.5,0.2l14.3,2c0.9,0.1,1.7-0.4,2.2-1.2
			l10.9-26.7c0.3-0.4,0.2-1.1-0.2-1.4c-0.1-0.1-0.3-0.2-0.5-0.2l-14.3-2C162.4,213.1,161.5,213.6,161.1,214.4z"/>
		<path class="st8" d="M162.8,214.6l-10.8,26.7c-0.3,0.4-0.2,1.1,0.2,1.4c0.1,0.1,0.3,0.2,0.5,0.2l14.3,2c0.9,0.1,1.7-0.4,2.2-1.2
			L180,217c0.3-0.4,0.2-1.1-0.2-1.4c-0.1-0.1-0.3-0.2-0.5-0.2l-14.3-2C164.1,213.3,163.2,213.8,162.8,214.6z"/>
		<path class="st7" d="M166.5,216.4c-0.2,0.7-0.8,1.1-1.5,0.9c-0.6-0.1-1-0.7-0.9-1.3c0.1-0.7,0.7-1.1,1.4-1
			C166.2,215.1,166.6,215.8,166.5,216.4z"/>
		<path class="st9" d="M109.2,249.8c5.5,18.4,20.3,43.4,27.7,44.6c3.6,0.6,9.8,2.4,15.1-1c11.6-7.4,22.6-23.2,25.8-32.8
			c1.1-3.4-14.7-13.5-17.6-11c-6.8,5.8-15.6,17.8-16.6,17.5c-3.8-0.9-16.9-15.6-26.1-26C106.5,228.7,107,242.5,109.2,249.8z"/>
		<path class="st9" d="M181,242.7c-0.7-7.3-2.1-9.1,0.6-15.6c1.8-4.3-0.2-7.2-3.9-4.1c-6,5.1-7.1,14.7-6.4,18.2L181,242.7z"/>
		<path class="st9" d="M180.4,241.1c-1.9-2.2-6-6.6-10.6-9.2c-5.1-2.8-15.7-6.8-17.8-3c-1.5,2.8,2.4,4.7,2.4,4.7s-4.7-0.7-5.5,2.1
			c-0.7,2.6,2.4,3.8,2.4,3.8s-3,0.1-3.2,2.6c-0.3,3.1,6,2.5,8.4,5.9C157.2,248.8,180.4,241.1,180.4,241.1z"/>
		<path class="st7" d="M167.8,237.8c-3.9-2.7-8.5-4.2-13.2-4.3c-0.1,0-0.2,0.1-0.1,0.1C159.1,234.5,163.5,235.9,167.8,237.8
			L167.8,237.8z"/>
		<path class="st7" d="M164.8,242.9c-4.1-2.4-8.7-3.6-13.4-3.5c-0.1,0-0.2,0.1-0.1,0.1C155.9,240.2,160.4,241.3,164.8,242.9
			C164.8,243,164.8,242.9,164.8,242.9z"/>
		<path class="st4" d="M177,267.9c0,0-18,25.3-26.5,27.3s-13.3,0.5-16.2-0.4c-1.1-0.4-2.1-1.1-2.9-2c-7.3-7-18.7-29.7-22.9-42.2
			c-3.1-9.3-1.5-17.1,4.9-13.6c2.1,1.3,4,3,5.6,4.9c10.8,12.2,23.7,24.2,24.4,24s9.5-10.4,9.5-10.4L177,267.9z"/>
		<path class="st7" d="M172.8,272.3c-0.9-0.6-9-5.3-10.8-6.3s-9.1-5.1-11.1-5.9c0,0-0.1,0-0.1,0.1c0,0,0,0.1,0,0.1
			c1.8,1.2,9.1,5.3,10.9,6.4s10,5.5,11,5.9C172.8,272.5,172.9,272.4,172.8,272.3z"/>
		<path class="st0" d="M137.5,261.1c-6.1,4.4-12.6,8.3-19.4,11.6c-1.6-3.1-3.1-6.2-4.5-9.2c5.8-2.7,11.3-5.9,16.6-9.5
			C132.9,256.7,135.4,259.1,137.5,261.1z"/>
		<path class="st11" d="M156.5,291.5c-2.3,1.9-4.4,3.2-6.1,3.6c-8.5,2-13.3,0.5-16.2-0.4c-1.1-0.4-2.1-1.1-2.9-2
			c-7.3-7-18.7-29.7-22.9-42.2c-2.8-8.5-1.7-15.6,3.2-14.3C122.9,250.1,144.4,276.6,156.5,291.5z"/>
		<path class="st4" d="M124.6,276.6l2,16.3l-56.4,3.6c0,0,13-47.4,23.2-57.9c6.9-7.1,14.8-6.3,19.6-1.1c1.2,1.3,14.1,17,15.5,24.7
			C129.7,269,124.6,276.6,124.6,276.6z"/>
		<path class="st0" d="M127,272c-10.7,1.5-32.8,3.8-49.2,0.1c1.5-4.4,3.2-9,4.9-13.4c14.7,1.8,29.6,1.5,44.2-1
			c0.7,1.4,1.2,2.9,1.6,4.5C129.1,265.6,128.1,269.2,127,272z"/>
		<path class="st7" d="M125.7,285.6c-0.5-3-0.9-6-1.3-9v-0.1l0.1-0.1c1.4-2.1,2.5-4.5,3.2-6.9c0.4-1.2,0.6-2.5,0.7-3.7
			c0.1-1.3,0.1-2.5-0.2-3.8c-0.3-1.2-0.6-2.5-1.2-3.6c-0.5-1.2-1-2.4-1.6-3.5c-1.2-2.3-2.5-4.5-4-6.6c1.7,2,3.1,4.1,4.4,6.4
			c1.4,2.2,2.4,4.7,3,7.2c0.5,2.6,0.4,5.3-0.5,7.8c-0.8,2.5-2,4.9-3.5,7v-0.2C125.1,279.6,125.4,282.6,125.7,285.6z"/>
		<path class="st7" d="M124.2,250.5c0.6,0.9,1.1,1.9,1.5,2.9c0.2,0.5,0.4,1,0.5,1.6c0.1,0.5,0.2,1.1,0.2,1.6c-0.4-1-0.8-2-1.2-3
			C124.8,252.5,124.5,251.5,124.2,250.5z"/>
		<path class="st4" d="M95.1,236.1c-19.8,10.1-42.6,32.8-41.3,40.4c1.5,8.4,30-5.8,29.7-7.1c-0.2-1.1,5.7-10.1,14.3-23.1
			C106.5,233.1,100,233.6,95.1,236.1z"/>
		<path class="st0" d="M89.5,259c-2.6,4.1-4.5,7.1-5.4,8.9c-6.9-2.2-13.5-5-20-8.2c2.3-2.5,5-5,7.9-7.5
			C77.6,254.9,83.5,257.2,89.5,259z"/>
		<path class="st9" d="M53.8,276.5c1.7,5.9,10.5,9.8,31.7,21.8c2.9,1.7,20.2-15.9,17.2-17.8c-3.8-2.4-19.2-11.1-20.4-11.5
			C72.1,264.9,52.6,272.5,53.8,276.5z"/>
		<path class="st9" d="M98.5,278c0,0,9.1,4.7,13.1,8.6c4.1,4.2,7.1,9.3,8.8,14.9c1.8,6,2.1,21.9-2.5,22.8
			c-4.1,0.8-3.6-15.5-3.6-15.5s2.1,16.7-3,16.7s-3.4-18.8-3.4-18.8s1.8,17.2-3.5,16.4c-4-0.6-3.4-17.8-3.4-17.8s1.5,14.8-2.7,14.3
			c-4.6-0.5-5-16.4-5-16.4c-10.3-2.9-14.1-8.6-16.3-12.9C76.5,289.4,98.5,278,98.5,278z"/>
		<path class="st7" d="M114,303c0.3,2,0.7,3.9,0.8,5.9s0.2,4,0.2,5.9c0,2.6-0.3,5.2-0.9,7.7c0.7-4.5,0.3-11.6,0.1-13.6
			s-0.3-3.9-0.4-5.9H114z"/>
		<path class="st7" d="M106.8,303.4c0.3,2.5,0.7,5,0.9,7.5s0.2,4.9,0.2,7.4c0,0.2-0.1,0.1-0.1-0.1c-0.1-2.5-0.4-4.8-0.6-7.3
			S107,305.9,106.8,303.4C106.8,303.4,106.8,303.4,106.8,303.4z"/>
		<path class="st7" d="M100.7,302.7c0.5,3.8,0.7,7.7,0.5,11.6c0,0.2-0.1,0.1-0.1-0.1c-0.1-3.9-0.1-6.9-0.5-11.5
			C100.5,302.6,100.6,302.6,100.7,302.7z"/>
		<path class="st4" d="M103,278.5c0,0-24.4,18.6-24.6,18.5s-24.2-14.2-24.6-20.5s19.4-11,28.4-7.6S103,278.5,103,278.5z"/>
		<path class="st7" d="M94.8,275.8c-1,0.6-8.7,6.8-10.3,8.1s-8.4,7-10,8.5c0,0,0,0.1,0,0.1c0,0,0.1,0,0.1,0
			c1.8-1.2,8.7-6.9,10.4-8.2s9.2-7.7,9.9-8.5C94.9,275.8,94.8,275.8,94.8,275.8z"/>
		<path class="st7" d="M71.4,268c2.1-0.3,7.8-0.8,12.5,1.5c0,0,0,0.1,0,0.1C79.9,268.4,75.7,267.9,71.4,268
			C71.5,268.1,71.3,268,71.4,268z"/>
		<path class="st7" d="M101.5,279.6l1.5-1.2v0.1l-4.8-2.4c-1.6-0.8-3.2-1.6-4.9-2.3c-3.2-1.5-6.5-3-9.9-4.3l-0.4-0.2l0.2-0.4
			c1.9-3.4,3.8-6.7,5.8-10c2-3.3,4.2-6.4,6.6-9.5c-2.1,3.2-4.2,6.5-6.1,9.8c-1.9,3.3-3.9,6.6-5.7,10l-0.2-0.5
			c3.3,1.4,6.6,2.9,9.8,4.5c1.6,0.8,3.2,1.6,4.8,2.5s3.1,1.8,4.7,2.6l0.1,0.1l-0.1,0.1L101.5,279.6z"/>
		<path class="st7" d="M90.8,256.7c0.6-0.8,1.2-1.5,1.9-2.2c0.7-0.7,1.4-1.3,2.2-1.8c-0.5,0.8-1.2,1.5-1.8,2.2
			c-0.3,0.3-0.7,0.7-1.1,1C91.6,256.2,91.2,256.5,90.8,256.7z"/>
		<path class="st7" d="M71.3,292.6c2.1,0.9,4,2.1,5.7,3.5c-1-0.4-2-0.9-3-1.5C73.1,294,72.2,293.3,71.3,292.6z"/>
		<path class="st9" d="M92.8,237.3c0,0,10.3,9.3,17.6,8.9s6.3-6.5,6.3-6.5s-5.3-6.3-12.5-6.2C100.2,233.5,96.1,234.8,92.8,237.3z"/>
		<path class="st9" d="M102,236.8c0.3,1.5,3.8,8.2,8.3,8c2.3-0.1,2.4-8.2,2.4-8.2l0.1-0.6l1.6-8.4l-11.4-6.7
			C103,220.9,101.9,236.4,102,236.8z"/>
		<path class="st7" d="M102.6,226.7c1.9,4.4,5.6,7.8,10.2,9.3l1.6-8.4l-11.4-6.8C102.9,220.9,102.8,223.6,102.6,226.7z"/>
		<path class="st9" d="M126.1,214.8c1.3,14.9-7.5,17.4-10.7,17.6c-2.9,0.2-12.9,0.7-15.7-13.9s3.7-20,10.3-20.9
			S124.8,199.9,126.1,214.8z"/>
		<path class="st7" d="M123.5,211.5c-0.3,0-0.7-0.1-1-0.2c-0.4,0-0.7-0.1-1-0.4c-0.1-0.2-0.1-0.5,0-0.6c0.3-0.3,0.8-0.5,1.3-0.4
			c0.5,0.1,0.9,0.3,1.2,0.6c0.2,0.2,0.2,0.6-0.1,0.8C123.8,211.5,123.7,211.5,123.5,211.5z"/>
		<path class="st7" d="M113.9,211.8c0.3-0.1,0.7-0.2,1-0.2c0.4,0,0.7-0.2,1-0.4c0.1-0.2,0.1-0.5,0-0.6c-0.4-0.3-0.9-0.4-1.3-0.3
			c-0.5,0.1-0.9,0.3-1.2,0.7c-0.2,0.3-0.1,0.6,0.2,0.8C113.7,211.8,113.8,211.8,113.9,211.8z"/>
		<path class="st7" d="M116,215.5C116,215.5,115.9,215.6,116,215.5c0,1.1-0.1,2.3-1,2.7c0,0,0,0.1,0,0.1
			C116.2,218,116.3,216.5,116,215.5z"/>
		<path class="st7" d="M115.1,214.5c-1.6,0-1.6,3.2-0.1,3.3S116.4,214.6,115.1,214.5z"/>
		<path class="st7" d="M114.4,214.7c-0.3,0.2-0.6,0.5-0.9,0.6s-0.7-0.3-1-0.6h-0.1c0,0.6,0.2,1.3,0.9,1.4s1-0.5,1.2-1.1
			C114.7,214.8,114.6,214.6,114.4,214.7z"/>
		<path class="st7" d="M121.6,215.3C121.6,215.3,121.7,215.3,121.6,215.3c0.1,1.1,0.2,2.3,1.1,2.6v0.1
			C121.6,217.8,121.4,216.2,121.6,215.3z"/>
		<path class="st7" d="M122.5,214.2c1.6-0.1,1.8,3.1,0.3,3.3S121.2,214.3,122.5,214.2z"/>
		<path class="st7" d="M123.2,214.4c0.3,0.2,0.5,0.5,0.8,0.5s0.6-0.4,0.8-0.7l0,0c0.1,0.6-0.1,1.3-0.7,1.4s-1-0.4-1.2-1
			C123.1,214.5,123.1,214.3,123.2,214.4z"/>
		<path class="st7" d="M115.8,223.6c0.2,0.3,0.3,0.6,0.7,0.8c0.4,0.1,0.8,0.1,1.1,0c0,0,0.1,0,0,0.1c-0.4,0.3-0.9,0.4-1.4,0.3
			c-0.4-0.2-0.6-0.6-0.6-1.1C115.6,223.5,115.7,223.5,115.8,223.6z"/>
		<path class="st7" d="M120.3,219.8c0,0,0.2,1.5,0.3,2.2c-1.4,0.4-2.8,0-3.8-1.1c-0.1-0.1,0-0.1,0.1-0.1c0.9,0.6,2,0.9,3.1,0.8
			c0-0.2-0.5-2.6-0.4-2.6c0.6,0,1.1,0.1,1.6,0.3c-0.4-3.2-1.3-6.2-1.7-9.4c0-0.1,0-0.1,0.1-0.1c0,0,0.1,0,0.1,0.1
			c1.1,3.3,1.9,6.6,2.3,10.1C122.1,220.5,120.6,220,120.3,219.8z"/>
		<path class="st7" d="M119.6,222c-0.4,0.5-0.9,0.9-1.5,1.2c-0.3,0.1-0.7,0.2-1,0.1c-0.7-0.2-0.8-0.9-0.6-1.4
			c0.1-0.3,0.2-0.6,0.3-0.9C117.6,221.6,118.6,221.9,119.6,222z"/>
		<path class="st12" d="M118.1,223.2c-0.3,0.1-0.7,0.2-1,0.1c-0.7-0.2-0.8-0.9-0.6-1.4C117.3,221.8,117.9,222.4,118.1,223.2z"/>
		<path class="st7" d="M101.8,199.5c1.3-0.4,3.1-7.4-1.4-11.2s-10.8-0.3-8.7,5.7C93,197.8,99,200.3,101.8,199.5z"/>
		<path class="st7" d="M93.9,187.3c-1.5,1.1-2.6,2.6-3.1,4.3c-0.5,1.7-0.1,3.4,1.1,4.7c1.2,1.3,2.8,2.2,4.5,2.6
			c0.9,0.3,1.8,0.4,2.7,0.5c0.9,0.1,1.8,0.1,2.7-0.1c-0.9,0.4-1.8,0.6-2.8,0.6c-1,0-1.9-0.1-2.8-0.3c-1.9-0.4-3.7-1.3-5.1-2.7
			c-0.7-0.8-1.2-1.7-1.4-2.7c-0.2-1-0.1-2,0.3-3C90.7,189.6,92.1,188.1,93.9,187.3z"/>
		<path class="st7" d="M100.5,218.1c2.8,0.4,3.6-6,3.6-6s11.9-1.8,13.1-11.5c1.4,4,4.3,7.2,8.1,9.1c0,0-0.2-10.6-8.6-12.8
			c0,0-10.4-4-16.4,4.2S98.6,217.9,100.5,218.1z"/>
		<path class="st7" d="M117.3,199.9c0.1,1.5-0.1,3-0.6,4.4c-0.5,1.4-1.3,2.8-2.3,3.9c-0.2,0.3-0.6,0.5-0.8,0.8l-0.4,0.4
			c-0.1,0.1-0.3,0.2-0.4,0.3c-0.3,0.2-0.6,0.4-0.9,0.6l-1,0.5l-0.5,0.2l-0.5,0.2l-1,0.4c-0.7,0.2-1.5,0.3-2.2,0.5
			c0.7-0.3,1.4-0.5,2.1-0.8l1-0.5l0.5-0.2c0.2-0.1,0.3-0.2,0.5-0.3s0.6-0.4,0.9-0.6s0.6-0.4,0.9-0.6l0.4-0.3l0.4-0.4
			c0.3-0.2,0.5-0.5,0.8-0.8c1-1.1,1.8-2.3,2.3-3.6C116.8,202.8,117.2,201.4,117.3,199.9L117.3,199.9z"/>
		<path class="st9" d="M102.3,217.6c0,0-3.3-4.7-5.4-3.5s0.3,7.9,2.8,8.9c1.3,0.6,2.8,0,3.3-1.3c0,0,0-0.1,0-0.1L102.3,217.6z"/>
		<path class="st7" d="M97.7,216C97.7,216,97.7,216,97.7,216c1.6,0.9,2.8,2.3,3.3,4.1c-0.4-0.7-1.2-0.9-1.9-0.5
			c-0.1,0-0.1,0.1-0.2,0.1c0,0,0,0.1,0,0.1c0.6-0.2,1.3,0,1.7,0.5c0.3,0.4,0.6,0.9,0.8,1.4c0.1,0.2,0.4,0.1,0.3-0.1l0,0
			C101.8,219.3,100,216.2,97.7,216z"/>
		<path class="st8" d="M100,222.4c0.1,0.3,0.4,0.5,0.8,0.4c0.3-0.1,0.5-0.4,0.5-0.8s-0.4-0.5-0.8-0.5
			C100.1,221.7,99.9,222,100,222.4z"/>
		<path class="st7" d="M100.3,222.3c0,0.2,0.2,0.3,0.3,0.2c0,0,0,0,0,0c0.2,0,0.3-0.2,0.2-0.4c-0.1-0.2-0.3-0.2-0.4-0.2
			C100.4,222,100.3,222.2,100.3,222.3L100.3,222.3z"/>
		<path class="st8" d="M98.9,221.6c0.1,0.2,0.3,0.4,0.6,0.3c0.2-0.1,0.4-0.3,0.3-0.6c-0.1-0.2-0.3-0.4-0.6-0.3c0,0,0,0,0,0
			C99,221.1,98.8,221.4,98.9,221.6z"/>
		<path class="st9" d="M176.6,263.6c0,0,4.6-9.4,4.6-17.3c0-5.5-1.4-17.3-15.4-25.6c-3.3-2-9.5-2.4-5.2,2.8c3,3.7,6.1,5.1,7.5,7.6
			c0,0-7.9,0.4-9.7,3.8c-1.6,3-3,6.1-4.1,9.3c0.5,0.3,1.1,0.7,1.7,0.9c0,0-1.6,3.2,0.2,8.5L176.6,263.6z"/>
	</g>
</g>
<g id="Calque_2">
	<rect x="159" y="222.5" class="st13" width="181.9" height="19.3"/>
	<rect x="159" y="179.7" class="st13" width="181.9" height="19.3"/>
</g>
<g id="Calque_3">
	<rect x="158.6" y="262.5" class="st13" width="181.9" height="19.3"/>
	<rect x="165.2" y="228.6" class="st14" width="164.9" height="12.3"/>
	<text transform="matrix(1 0 0 1 165.1812 236.4428)"><tspan x="0" y="0" class="st15 st16">      04/2021                      </tspan><tspan x="113.1" y="0" class="st17 st15 st16">+ 660,00 </tspan></text>
	<text transform="matrix(1 0 0 1 210.8732 109.55)"><tspan x="0" y="0" class="st18 st19 st20">SOLDE</tspan><tspan x="33.7" y="0" class="st21 st19 st20">  : </tspan><tspan x="43.9" y="0" class="st22 st19 st20">1 578 </tspan></text>
	<rect x="167.5" y="184.9" class="st14" width="164.9" height="12.3"/>
	<text transform="matrix(1 0 0 1 167.5444 192.7427)"><tspan x="0" y="0" class="st15 st16">11/05/2021                      </tspan><tspan x="112.5" y="0" class="st17 st15 st16">+ 660,00 </tspan></text>
	<rect x="168" y="207.5" class="st14" width="164.9" height="12.3"/>
	<text transform="matrix(1 0 0 1 167.9612 215.3488)"><tspan x="0" y="0" class="st15 st16">03/05/2021                      </tspan><tspan x="112.5" y="0" class="st17 st15 st16">- 10,30   </tspan></text>
	<rect x="162.2" y="248.5" class="st14" width="170.2" height="12.3"/>
	<text transform="matrix(1 0 0 1 162.1812 256.3164)"><tspan x="0" y="0" class="st15 st16">       04/2021                       </tspan><tspan x="118.4" y="0" class="st17 st15 st16">- 360,00 </tspan></text>
	<rect x="166.7" y="268.6" class="st14" width="164.9" height="12.3"/>
	<text transform="matrix(1 0 0 1 166.6783 276.4668)"><tspan x="0" y="0" class="st15 st16">   1/03/2021                     </tspan><tspan x="112.3" y="0" class="st17 st15 st16">+ 660,00 </tspan></text>
	<line class="st23" x1="184.8" y1="294.5" x2="317.5" y2="294.8"/>
	<rect x="202.9" y="309.4" class="st24" width="106.4" height="19.8"/>
	<text transform="matrix(1 0 0 1 211.897 322.417)" class="st18 st15 st16">PLus doprations</text>
</g>
</svg>
