<?xml version="1.0" encoding="utf-8"?>
<!-- Generator: Adobe Illustrator 22.0.1, SVG Export Plug-In . SVG Version: 6.00 Build 0)  -->
<svg version="1.1" xmlns="http://www.w3.org/2000/svg" xmlns:xlink="http://www.w3.org/1999/xlink" x="0px" y="0px"
	 viewBox="0 0 500 500" style="enable-background:new 0 0 500 500;" xml:space="preserve">
<style type="text/css">
	.st0{fill:#F5F5F5;}
	.st1{fill:#EBEBEB;}
	.st2{fill:#E0E0E0;}
	.st3{fill:#FFFFFF;}
	.st4{fill:#455A64;}
	.st5{fill:#263238;}
	.st6{display:none;fill:#263238;}
	.st7{fill:#E92911;}
	.st8{opacity:0.5;}
	.st9{fill:#FAFAFA;}
	.st10{opacity:0.4;}
	.st11{opacity:0.6;}
	.st12{fill:#FFBE9D;}
	.st13{fill:#EB996E;}
	.st14{fill:none;}
	.st15{font-family:'RoundedElegance-Regular';}
	.st16{font-size:12px;}
	.st17{stroke:#000000;stroke-width:0.5;stroke-miterlimit:10;}
	.st18{stroke:#000000;stroke-width:0.25;stroke-miterlimit:10;}
	.st19{fill:#DB0C0D;}
	.st20{fill:#FFFFFF;stroke:#FFFFFF;stroke-width:0.5;stroke-miterlimit:10;}
</style>
<g id="Calque_1">
	<g id="freepik--background-complete--inject-2">
		<path class="st0" d="M104.2,145.6c3,20.1-10.9,38.8-31,41.8c-20.1,3-38.8-10.9-41.8-31s10.9-38.8,31-41.8c0,0,0.1,0,0.1,0
			C82.6,111.6,101.3,125.5,104.2,145.6z"/>
		<path class="st1" d="M95.6,146.8c2.2,15.3-8.4,29.5-23.7,31.7c-15.3,2.2-29.5-8.4-31.7-23.7c-2.2-15.3,8.3-29.5,23.6-31.7
			C79.1,120.9,93.3,131.5,95.6,146.8C95.6,146.8,95.6,146.8,95.6,146.8z"/>
		<path class="st2" d="M95.4,146c-0.2,0-0.5-1.2-1.2-3.2c-1.1-2.9-2.6-5.6-4.4-8c-1.3-1.7-2.8-3.2-4.4-4.5c-1.9-1.5-3.9-2.8-6.1-3.8
			c-2.4-1.1-5-1.8-7.6-2.2c-1.4-0.2-2.8-0.3-4.2-0.2c-2.9,0.1-5.8,0.6-8.5,1.5c-2.6,0.9-5.1,2.2-7.3,3.8c-1.1,0.8-2.1,1.6-3,2.5
			c-1.7,1.7-3.2,3.6-4.5,5.7c-1.1,1.8-1.9,3.8-2.6,5.8c-0.9,2.9-1.4,6-1.4,9.1c0,2.2,0.1,3.4,0,3.4s-0.5-1.2-0.8-3.4
			c-0.3-3.2-0.1-6.4,0.8-9.6c0.6-2.2,1.4-4.2,2.5-6.2c1.2-2.3,2.8-4.3,4.6-6.2c1-1,2-1.9,3.1-2.8c1.2-0.9,2.4-1.7,3.7-2.4
			c1.3-0.7,2.7-1.3,4.2-1.8c2.9-1,6-1.6,9.2-1.6c1.5,0,3,0.1,4.5,0.3c1.4,0.2,2.9,0.6,4.3,1c1.3,0.4,2.6,0.9,3.9,1.5
			c2.3,1.1,4.5,2.5,6.4,4.2c1.7,1.5,3.2,3.2,4.5,5c1.9,2.6,3.2,5.6,4,8.7C95.6,144.7,95.6,146,95.4,146z"/>
		<path class="st2" d="M73.4,167l0.8,4.8l-4.3,0.7l-0.8-4.7c-4.3,0.4-8.6-0.3-11.3-1.7l1.5-5.6c2.7,1.3,5.8,1.9,8.8,1.7L67,155
			c-5-0.4-10.6-1.1-11.5-7.3c-0.7-4.6,2-9,8.6-10.9l-0.7-4.8l4.3-0.7l0.8,4.7c3.1-0.3,6.3,0.1,9.2,1.2l-1.3,5.6
			c-2.2-0.9-4.6-1.3-7-1.2l1.2,7.3c5,0.4,10.5,1.1,11.4,7.2C82.7,160.7,80,165.1,73.4,167z M66,148.6l-1-6.1
			c-2.2,0.9-2.9,2.3-2.7,3.7S64,148.3,66,148.6z M75.1,157.8c-0.2-1.5-1.6-2.1-3.6-2.5l0.9,5.9C74.5,160.5,75.3,159.2,75.1,157.8
			L75.1,157.8z"/>
		<path class="st0" d="M372.7,66.6c3,20.4-11.1,39.4-31.5,42.4c-20.4,3-39.4-11.1-42.4-31.5c-3-20.4,11.1-39.4,31.5-42.4
			c0,0,0.1,0,0.1,0C350.8,32.2,369.7,46.3,372.7,66.6z"/>
		<path class="st1" d="M363.9,67.9c2.3,15.5-8.5,30-24,32.3c-15.5,2.3-30-8.5-32.3-24s8.5-30,24-32.3c0,0,0,0,0.1,0
			C347.2,41.6,361.7,52.4,363.9,67.9C363.9,67.9,363.9,67.9,363.9,67.9z"/>
		<path class="st2" d="M363.8,67c-0.2,0-0.5-1.2-1.2-3.3c-1.8-5-4.9-9.4-9-12.7c-1.9-1.5-4-2.8-6.2-3.8c-1.2-0.6-2.4-1-3.7-1.4
			c-1.3-0.4-2.6-0.7-4-0.9c-1.4-0.2-2.8-0.3-4.2-0.2c-1.5,0-2.9,0.2-4.4,0.4c-1.4,0.3-2.9,0.6-4.2,1.1c-1.3,0.5-2.7,1-3.9,1.7
			c-1.2,0.6-2.4,1.4-3.5,2.2c-1.1,0.8-2.1,1.6-3,2.6c-1.7,1.7-3.3,3.6-4.5,5.8c-1.1,1.8-2,3.8-2.6,5.8c-1,3-1.4,6.1-1.4,9.2
			c0,2.2,0.1,3.5,0,3.5s-0.5-1.2-0.8-3.5c-0.3-3.2-0.1-6.5,0.8-9.7c0.6-2.2,1.4-4.3,2.5-6.3c1.3-2.3,2.8-4.4,4.7-6.2
			c2-2.1,4.4-3.8,6.9-5.2c1.3-0.7,2.8-1.4,4.2-1.9c3-1,6.1-1.6,9.3-1.7c1.5,0,3.1,0.1,4.6,0.3c1.5,0.2,2.9,0.6,4.3,1
			c1.4,0.4,2.7,0.9,4,1.5c4.4,2.1,8.2,5.3,11.1,9.3c1.9,2.7,3.3,5.6,4.1,8.8C363.9,65.7,363.9,67,363.8,67z"/>
		<path class="st2" d="M341.4,88.3l0.8,4.9l-4.4,0.7l-0.8-4.8c-4.4,0.4-8.7-0.3-11.4-1.8l1.5-5.7c2.8,1.4,5.9,2,9,1.8l-1.2-7.3
			c-5-0.4-10.7-1.2-11.7-7.4c-0.7-4.6,2-9.1,8.8-11l-0.8-4.8l4.4-0.7l0.8,4.8c3.2-0.3,6.3,0.1,9.3,1.2l-1.3,5.7
			c-2.2-0.9-4.6-1.3-7-1.2l1.2,7.4c5,0.4,10.6,1.1,11.6,7.3C350.8,81.9,348.1,86.4,341.4,88.3z M334,69.7l-1-6.2
			c-2.2,0.9-2.9,2.3-2.7,3.8S332,69.4,334,69.7z M343.2,79c-0.2-1.5-1.6-2.2-3.6-2.5l1,6C342.6,81.7,343.4,80.4,343.2,79L343.2,79z"
			/>
		<path class="st0" d="M470.9,186.3c2.3,15.5-8.5,30-24,32.2c-15.5,2.3-30-8.5-32.2-24s8.5-30,24-32.2c0,0,0,0,0,0
			C454.2,160,468.6,170.7,470.9,186.3C470.9,186.3,470.9,186.3,470.9,186.3z"/>
		<path class="st1" d="M464.2,187.2c1.8,11.8-6.4,22.8-18.2,24.6c-11.8,1.8-22.8-6.4-24.6-18.2c-1.8-11.8,6.4-22.8,18.2-24.6
			c0,0,0,0,0.1,0C451.5,167.3,462.4,175.4,464.2,187.2z"/>
		<path class="st2" d="M464.1,186.6c-0.4-0.8-0.7-1.6-0.9-2.5c-0.8-2.2-2-4.3-3.4-6.2c-1-1.3-2.1-2.4-3.4-3.5
			c-1.4-1.2-3-2.2-4.7-2.9c-0.9-0.4-1.9-0.7-2.8-1c-2-0.6-4.2-0.9-6.3-0.8c-1.1,0-2.2,0.1-3.3,0.3c-1.1,0.2-2.2,0.5-3.2,0.8
			c-3,1-5.7,2.7-7.9,4.9c-1.3,1.3-2.5,2.8-3.4,4.4c-0.8,1.4-1.5,2.9-2,4.4c-0.7,2.3-1.1,4.6-1.1,7c0.1,0.9,0.1,1.8,0,2.7
			c-0.4-0.8-0.6-1.7-0.6-2.6c-0.3-2.5-0.1-5,0.6-7.4c0.4-1.7,1.1-3.3,1.9-4.8c1-1.7,2.1-3.3,3.5-4.8c0.7-0.8,1.6-1.5,2.4-2.1
			c0.9-0.7,1.8-1.3,2.8-1.8c1-0.6,2.1-1,3.2-1.4c1.1-0.4,2.3-0.7,3.5-0.9c1.2-0.2,2.4-0.3,3.6-0.3c1.2,0,2.3,0.1,3.5,0.2
			c2.2,0.3,4.3,1,6.3,1.9c3.4,1.6,6.3,4,8.4,7.1c1.4,2,2.5,4.3,3.1,6.7C464.1,184.8,464.2,185.7,464.1,186.6z"/>
		<path class="st2" d="M447,202.8l0.6,3.7l-3.3,0.5l-0.6-3.6c-3,0.4-6-0.1-8.7-1.3l1.2-4.4c2.1,1,4.5,1.5,6.8,1.3l-0.9-5.6
			c-3.8-0.3-8.1-0.9-8.9-5.6c-0.6-3.5,1.5-7,6.7-8.4l-0.6-3.7l3.3-0.5l0.6,3.6c2.4-0.2,4.8,0.1,7.1,1l-1,4.4c-1.7-0.7-3.5-1-5.4-0.9
			l0.9,5.6c3.8,0.3,8.1,0.9,8.8,5.6C454.2,197.9,452.2,201.3,447,202.8z M441.3,188.6l-0.8-4.7c-1.7,0.7-2.2,1.8-2.1,2.9
			S439.8,188.4,441.3,188.6L441.3,188.6z M448.3,195.7c-0.2-1.2-1.2-1.6-2.8-1.9l0.7,4.6C448,197.8,448.5,196.8,448.3,195.7
			L448.3,195.7z"/>
		<path class="st0" d="M205.4,389.7c-3.9,17.5-21.2,28.5-38.7,24.6s-28.5-21.2-24.6-38.7c3.9-17.5,21.2-28.5,38.7-24.6c0,0,0,0,0,0
			C198.4,354.9,209.3,372.2,205.4,389.7C205.4,389.7,205.4,389.7,205.4,389.7z"/>
		<path class="st1" d="M197.9,388c-3,13.3-16.2,21.7-29.5,18.7c-13.3-3-21.7-16.2-18.7-29.5c3-13.3,16.2-21.7,29.5-18.7
			c0,0,0,0,0.1,0C192.5,361.5,200.9,374.7,197.9,388C197.9,388,197.9,388,197.9,388z"/>
		<path class="st2" d="M198.1,387.2c-0.1-1-0.1-2,0-3c0-2.7-0.3-5.4-1.1-8c-0.5-1.8-1.3-3.5-2.2-5.1c-1.1-1.8-2.4-3.5-3.9-5
			c-0.8-0.8-1.7-1.6-2.6-2.3c-0.9-0.7-1.9-1.4-3-1.9c-1.1-0.6-2.2-1.1-3.4-1.5c-2.4-0.9-4.9-1.4-7.5-1.4c-1.2,0-2.5,0-3.7,0.2
			c-1.2,0.1-2.4,0.4-3.5,0.7c-1.1,0.3-2.2,0.7-3.2,1.1c-1.9,0.8-3.8,1.9-5.4,3.3c-1.4,1.2-2.8,2.5-3.9,3.9c-1.7,2.1-3,4.5-4,7
			c-0.3,1-0.6,1.9-1.1,2.8c-0.1,0-0.1-1.1,0.4-3.1c0.7-2.7,2-5.3,3.6-7.6c1.2-1.6,2.5-3,4-4.3c1.7-1.5,3.7-2.7,5.7-3.6
			c1.1-0.5,2.3-1,3.5-1.4c2.5-0.7,5.1-1.1,7.8-1c2.7,0.1,5.5,0.6,8.1,1.5c1.2,0.5,2.5,1,3.6,1.7c1.1,0.6,2.2,1.3,3.2,2.1
			c1,0.8,1.9,1.6,2.7,2.5c1.6,1.6,2.9,3.5,4,5.5c0.9,1.7,1.6,3.6,2.1,5.5c0.7,2.7,0.9,5.6,0.6,8.4
			C198.6,386.2,198.2,387.3,198.1,387.2z"/>
		<path class="st2" d="M173.3,397.6l-0.9,4.2l-3.8-0.8l0.9-4.1c-3.7-1-7-2.9-8.7-5l3-4.1c1.8,2,4.2,3.4,6.7,4.2l1.3-6.3
			c-4-1.9-8.3-4.3-7.2-9.6c0.8-4,4.4-6.8,10.5-6.2l0.9-4.2l3.8,0.8l-0.9,4.1c2.7,0.7,5.1,2.1,7.1,3.9l-2.9,4.2
			c-1.6-1.4-3.4-2.5-5.3-3.2l-1.3,6.4c4,1.9,8.3,4.2,7.1,9.5C182.9,395.3,179.4,398.1,173.3,397.6z M173,380.1l1.1-5.3
			c-2.1,0-3.1,1-3.4,2.2S171.5,379.3,173,380.1z M177.6,390.6c0.3-1.3-0.7-2.3-2.2-3.2l-1.1,5.2
			C176.3,392.6,177.3,391.8,177.6,390.6L177.6,390.6z"/>
		<path class="st1" d="M330.6,358.6l-26-16.2c-2.1-1.3-4.6-1.7-6.9-1l-64.4,18.5c-4.6,1.3-7.2,6.1-5.9,10.7c0,0,0,0.1,0,0.1
			l13.5,45.5c1.4,4.6,6.2,7.2,10.7,5.8c0,0,0,0,0,0l64-19.1c2.4-0.7,4.4-2.4,5.4-4.7l12.9-28.6C335.7,365.5,334.3,360.9,330.6,358.6
			z M322.1,369.7c-0.4,3.9-3.9,6.8-7.8,6.4c-3.9-0.4-6.8-3.9-6.4-7.8c0.4-3.9,3.9-6.8,7.8-6.4C319.6,362.3,322.5,365.8,322.1,369.7z
			"/>
		<path class="st3" d="M253.3,379.8c-1.6-5.5,0.8-10,5.6-11.4s9.1,1.2,10.7,6.8s-0.8,10-5.5,11.4S254.9,385.3,253.3,379.8z
			 M264.9,376.5c-1-3.5-2.8-4.8-4.9-4.2s-3,2.7-2,6.2s2.9,4.8,4.9,4.2S265.9,380,264.9,376.5z M278.5,363.2l5.6-1.6L271,400.8
			l-5.6,1.6L278.5,363.2z M280,388.9c-1.6-5.5,0.8-10,5.5-11.4s9.2,1.2,10.7,6.7s-0.8,10-5.6,11.4S281.6,394.4,280,388.9z
			 M291.5,385.6c-1-3.5-2.8-4.8-4.9-4.2s-2.9,2.7-1.9,6.2s2.9,4.8,4.9,4.2S292.5,389.1,291.5,385.6L291.5,385.6z"/>
		<path class="st2" d="M332.5,372.8c0.3,0.1,0.5,0.2,0.8,0.3c0.5,0.2,1.2,0.5,2.1,0.9s2.1,0.9,3.4,1.6s2.8,1.4,4.3,2.4
			c1.7,1,3.3,2.2,4.8,3.5l0.6,0.5l0.6,0.6c0.4,0.4,0.8,0.8,1.2,1.2c0.8,0.9,1.4,2,1.9,3.1c0.2,0.6,0.3,1.3,0.3,1.9
			c0,0.7-0.2,1.3-0.5,1.9c-0.6,1.2-1.6,2.3-2.8,2.9c-1.2,0.6-2.6,1-4,1.1c-1.4,0.1-2.8,0-4.2-0.3c-2.7-0.5-5.3-1.5-7.7-2.8
			c-1.1-0.6-2.2-1.3-3.3-2.1c-1-0.7-2-1.5-2.9-2.2c-3.4-2.6-6.5-5.7-9.1-9c-0.6-0.7-1.1-1.4-1.5-2.1c-0.2-0.3-0.5-0.7-0.6-1
			c-0.2-0.3-0.4-0.7-0.5-1c-0.3-0.7-0.3-1.4-0.1-2.1c0.2-0.6,0.6-1,1.1-1.4c0.2-0.1,0.4-0.3,0.7-0.4c0.2-0.1,0.4-0.1,0.6-0.2
			c0.3-0.1,0.7-0.1,1-0.1c0.2,0,0.4,0.1,0.6,0.2l0.2,0.1c0,0-0.1,0-0.2,0c-0.2-0.1-0.4-0.1-0.6-0.1c-0.3,0-0.6,0-0.9,0.1
			c-0.2,0.1-0.4,0.1-0.6,0.2c-0.2,0.1-0.4,0.2-0.6,0.4c-0.4,0.3-0.8,0.8-0.9,1.2c-0.2,0.6-0.1,1.2,0.1,1.8c0.2,0.3,0.3,0.7,0.5,1
			c0.2,0.3,0.4,0.6,0.7,1c0.5,0.7,1,1.4,1.6,2c2.7,3.2,5.8,6.2,9.2,8.8c0.9,0.7,1.9,1.5,2.9,2.2c1,0.7,2.1,1.4,3.2,2
			c2.3,1.3,4.8,2.2,7.4,2.7c1.3,0.2,2.7,0.3,4,0.3c1.3-0.1,2.5-0.4,3.7-1c1.1-0.6,1.9-1.5,2.5-2.5c0.5-1,0.6-2.2,0.2-3.3
			c-0.4-1.1-0.9-2-1.7-2.9c-0.4-0.4-0.7-0.8-1.1-1.2l-0.6-0.6l-0.6-0.5c-1.5-1.3-3-2.5-4.7-3.5c-1.5-1-3-1.8-4.2-2.5
			s-2.4-1.2-3.3-1.7l-2.1-1.1C332.9,373.2,332.7,373,332.5,372.8z"/>
		<path class="st1" d="M217.1,60.1L210.7,43c-0.5-1.4-1.6-2.5-2.9-3l-37.1-14.5c-2.6-1.1-5.6,0.2-6.7,2.8c0,0,0,0.1,0,0.1
			l-10.1,26.4c-1,2.6,0.3,5.6,3,6.6c0,0,0,0,0,0L194,75.5c1.4,0.5,2.9,0.4,4.2-0.3l16.4-8.8C217,65.2,218,62.5,217.1,60.1z
			 M209,62.2c-1.6,1.7-4.3,1.8-6,0.2s-1.8-4.3-0.2-6c1.6-1.7,4.3-1.8,6-0.2C210.5,57.8,210.6,60.5,209,62.2
			C209,62.2,209,62.2,209,62.2z"/>
		<path class="st3" d="M173,42c1.3-3.2,4-4.4,6.8-3.3s3.9,3.8,2.6,7s-4,4.4-6.7,3.3S171.7,45.2,173,42z M179.6,44.6
			c0.8-2,0.4-3.3-0.8-3.8s-2.4,0.2-3.1,2.2s-0.4,3.3,0.8,3.8S178.8,46.7,179.6,44.6L179.6,44.6z M190.9,43.3l3.2,1.3l-20.4,13.8
			l-3.2-1.3L190.9,43.3z M182.2,56c1.3-3.2,4-4.4,6.7-3.3s3.9,3.9,2.6,7.1s-4,4.4-6.8,3.3S181,59.2,182.2,56z M188.9,58.6
			c0.8-2,0.4-3.3-0.8-3.8s-2.4,0.2-3.1,2.2s-0.4,3.3,0.8,3.8S188.1,60.7,188.9,58.6L188.9,58.6z"/>
		<path class="st2" d="M212.8,67.4c0.1,0.1,0.2,0.3,0.3,0.4c0.2,0.3,0.4,0.7,0.7,1.2s0.6,1.2,1,2s0.8,1.7,1.2,2.7
			c0.4,1.1,0.8,2.3,1,3.4l0.1,0.5c0,0.2,0.1,0.3,0.1,0.5c0.1,0.3,0.1,0.7,0.1,1c0.1,0.7,0,1.4-0.3,2.1c-0.1,0.4-0.3,0.7-0.6,1
			c-0.3,0.3-0.6,0.6-0.9,0.7c-0.7,0.4-1.6,0.5-2.4,0.4c-0.8-0.1-1.6-0.5-2.3-0.9c-0.7-0.5-1.3-1-1.8-1.7c-1.1-1.2-2-2.6-2.6-4.1
			c-0.3-0.7-0.6-1.4-0.8-2.2c-0.2-0.7-0.4-1.4-0.6-2.1c-0.6-2.5-1-5-1.1-7.6c0-0.5,0-1.1,0-1.5c0-0.2,0-0.5,0.1-0.7
			c0-0.2,0.1-0.5,0.1-0.7c0.1-0.4,0.4-0.8,0.7-1c0.3-0.2,0.6-0.3,1-0.2c0.1,0,0.3,0,0.4,0.1c0.1,0,0.3,0.1,0.4,0.1
			c0.2,0.1,0.4,0.2,0.5,0.3c0.1,0.1,0.2,0.2,0.2,0.3c0,0.1,0.1,0.1,0,0.1s0,0-0.1-0.1c-0.1-0.1-0.2-0.2-0.2-0.2
			c-0.1-0.1-0.3-0.2-0.5-0.3c-0.1,0-0.2-0.1-0.3-0.1c-0.1,0-0.3,0-0.4,0c-0.3,0-0.6,0-0.8,0.2c-0.3,0.2-0.5,0.5-0.6,0.9
			c0,0.2-0.1,0.4-0.1,0.6c0,0.2,0,0.5-0.1,0.7c0,0.5,0,1,0,1.5c0.1,2.5,0.5,5,1.1,7.4c0.2,0.7,0.4,1.4,0.6,2.1
			c0.2,0.7,0.5,1.4,0.8,2.1c0.6,1.5,1.5,2.8,2.5,4c0.5,0.6,1.1,1.1,1.8,1.5c0.6,0.4,1.3,0.7,2.1,0.9c0.7,0.1,1.4,0,2.1-0.3
			c0.6-0.3,1.1-0.8,1.3-1.5c0.2-0.6,0.3-1.3,0.3-2c0-0.3,0-0.7-0.1-1c0-0.2,0-0.3-0.1-0.5l-0.1-0.5c-0.2-1.2-0.5-2.3-0.9-3.4
			c-0.4-1-0.8-1.9-1.1-2.7s-0.7-1.4-0.9-2l-0.6-1.3C212.9,67.7,212.9,67.6,212.8,67.4z"/>
	</g>
	<g id="freepik--Device--inject-2">
		<path class="st4" d="M94.5,305.5L94.6,92c0-6.6,5.4-11.9,12-11.9l316.8,0.2c6.6,0,11.9,5.4,11.9,12l-0.1,213.5
			c0,6.6-5.3,11.9-11.9,11.9c0,0,0,0-0.1,0l-316.8-0.2C99.9,317.5,94.5,312.2,94.5,305.5z"/>
		<rect x="127.2" y="87.2" class="st3" width="284.5" height="222.4"/>
		<path class="st5" d="M111.7,207.9c-5,0-9.1-4.1-9.1-9.1s4.1-9.1,9.1-9.1c5,0,9.1,4.1,9.1,9.1C120.8,203.8,116.7,207.9,111.7,207.9
			C111.7,207.9,111.7,207.9,111.7,207.9z"/>
		<path class="st5" d="M425.5,164.4l0,69.1c0,0.7-0.5,1.2-1.2,1.2l-1.3,0c-0.7,0-1.2-0.5-1.2-1.2l0-69.1c0-0.7,0.5-1.2,1.2-1.2
			l1.3,0C424.9,163.2,425.5,163.8,425.5,164.4z"/>
		<path class="st2" d="M148.5,93.8h242.4c7,0,12.6,5.6,12.6,12.6l0,0v160.1l0,0H135.9l0,0V106.4C135.9,99.4,141.5,93.8,148.5,93.8
			L148.5,93.8z"/>
		<path class="st1" d="M383,279.1c0,3.2-51.5,5.7-115.1,5.7s-115.1-2.6-115.1-5.7s51.6-5.7,115.1-5.7S383,276,383,279.1z"/>
		<path class="st5" d="M381.9,111.9c0,0-0.1-0.1-0.1-0.1l-9.8-0.1h-3.7l-0.1-0.6l-0.1-1.1c0-0.1-0.1-0.1-0.2-0.1h-2.7
			c-0.2,0-0.4,0-0.4,0.2s0.1,0.2,0.4,0.2l2.5,0.1l1.4,10.7c0,0.1,0.1,0.1,0.2,0.2h8h3c0.2,0,0.4,0,0.4-0.2s-0.1-0.2-0.4-0.2
			l-10.7-0.1l-0.3-1.9l11.3,0.2l0,0c0.1,0,0.1-0.1,0.2-0.1l0.8-4.5L381.9,111.9C381.9,112,381.9,111.9,381.9,111.9z M368.3,112.2
			l13.1,0.2l-1.1,6.3h-8h-3L368.3,112.2z"/>
		<path class="st6" d="M372.2,123.8c-0.1-0.3-0.2-0.6-0.5-0.7c-0.4-0.3-0.8-0.4-1.3-0.2c-0.7,0.3-1.1,1-0.8,1.7
			c0.1,0.4,0.4,0.7,0.8,0.8c0.1,0,0.3,0.1,0.5,0.1c0.3,0,0.6-0.1,0.8-0.3c0.2-0.2,0.4-0.5,0.5-0.8c0-0.1,0-0.2,0-0.3
			C372.2,124,372.2,123.9,372.2,123.8z M370.6,124.9c-0.5-0.2-0.7-0.7-0.5-1.2c0.1-0.2,0.3-0.4,0.5-0.5c0.1,0,0.2,0,0.3-0.1
			c0.2,0,0.4,0.1,0.5,0.2c0.2,0.1,0.3,0.3,0.4,0.5v0.2v0.1c0,0.1,0,0.1,0,0.2c-0.1,0.2-0.2,0.4-0.4,0.5
			C371.2,125,370.9,125,370.6,124.9L370.6,124.9z"/>
		<path class="st6" d="M379.4,123.8c-0.1-0.3-0.2-0.6-0.5-0.8c-0.6-0.5-1.4-0.4-1.9,0.2c-0.5,0.6-0.4,1.4,0.2,1.9
			c0.1,0.1,0.2,0.2,0.4,0.2c0.1,0.1,0.3,0.1,0.5,0.1c0.6,0,1.1-0.4,1.3-1c0-0.1,0-0.2,0-0.3C379.4,124.1,379.4,124,379.4,123.8z
			 M377.8,125c-0.3-0.1-0.6-0.5-0.6-0.8c0-0.4,0.2-0.7,0.6-0.8c0.1,0,0.2,0,0.3,0c0.2,0,0.4,0.1,0.5,0.2c0.2,0.1,0.3,0.3,0.4,0.5
			c0,0.1,0,0.2,0,0.2v0.1c0,0.1,0,0.1,0,0.2c-0.1,0.2-0.2,0.4-0.4,0.5C378.4,125.1,378.1,125.1,377.8,125z"/>
		<path class="st6" d="M156.4,128.4l0.4-0.7c0.8,0.7,1.7,1,2.8,1c1.6,0,2.2-0.6,2.2-1.5c0-2.3-5.1-0.9-5.1-4c0-1.2,1-2.3,3.1-2.3
			c0.9,0,1.8,0.2,2.6,0.7l-0.3,0.7c-0.7-0.4-1.5-0.7-2.3-0.7c-1.5,0-2.2,0.7-2.2,1.5c0,2.3,5.1,0.9,5.1,3.9c0,1.2-1,2.3-3.1,2.3
			C158.4,129.5,157.3,129.1,156.4,128.4z"/>
		<path class="st6" d="M164.5,125.8v-4.8h0.9v4.7c0,2,0.9,2.9,2.6,2.9s2.6-0.9,2.6-2.9v-4.7h0.9v4.8c0,2.4-1.3,3.6-3.4,3.6
			S164.5,128.2,164.5,125.8z"/>
		<path class="st6" d="M180.5,123.9c0,1.8-1.3,2.8-3.4,2.8h-2.2v2.6H174v-8.3h3.1C179.2,121.1,180.5,122.1,180.5,123.9z
			 M179.6,123.9c0-1.3-0.9-2.1-2.5-2.1h-2.2v4.2h2.2C178.7,126,179.6,125.2,179.6,123.9z"/>
		<path class="st6" d="M188.3,128.6v0.8h-5.9v-8.3h5.7v0.8h-4.8v3h4.3v0.8h-4.3v3.1L188.3,128.6z"/>
		<path class="st6" d="M196.1,129.4l-1.9-2.7c-0.2,0-0.4,0-0.7,0h-2.2v2.6h-0.9V121h3.1c2.1,0,3.4,1.1,3.4,2.8
			c0.1,1.2-0.7,2.3-1.9,2.6l2,2.9L196.1,129.4z M196,123.9c0-1.3-0.9-2.1-2.6-2.1h-2.2v4.2h2.2C195.1,126,196,125.2,196,123.9
			L196,123.9z"/>
		<path class="st6" d="M209.2,124.1c0,1.9-1.4,3-3.6,3h-1.7v2.3H202v-8.3h3.6C207.8,121.1,209.2,122.2,209.2,124.1z M207.2,124.1
			c0-0.9-0.6-1.4-1.8-1.4h-1.6v2.9h1.6C206.6,125.5,207.2,125,207.2,124.1z"/>
		<path class="st6" d="M215.9,129.4l-1.6-2.3h-1.8v2.3h-1.9v-8.3h3.6c2.2,0,3.6,1.2,3.6,3c0,1.2-0.6,2.2-1.7,2.6l1.9,2.7H215.9z
			 M214.1,122.6h-1.6v2.9h1.6c1.2,0,1.8-0.6,1.8-1.4S215.2,122.6,214.1,122.6z"/>
		<path class="st6" d="M219.3,121.1h1.9v8.3h-1.9V121.1z"/>
		<path class="st6" d="M222.7,125.2c0.1-2.5,2.3-4.5,4.8-4.4c1.2,0.1,2.4,0.6,3.2,1.5l-1.2,1.1c-0.5-0.6-1.3-1-2.1-1
			c-1.5-0.1-2.7,1-2.8,2.5c-0.1,1.5,1,2.7,2.5,2.8c0.1,0,0.2,0,0.3,0c0.8,0,1.6-0.4,2.1-1l1.2,1.1c-1.7,1.9-4.6,2.1-6.5,0.4
			C223.3,127.6,222.8,126.4,222.7,125.2L222.7,125.2z"/>
		<path class="st6" d="M238.4,127.8v1.5H232v-8.3h6.3v1.5h-4.4v1.8h3.9v1.5h-3.9v1.9L238.4,127.8z"/>
		<path class="st6" d="M163.5,157v3.1h-2.3V157c-2.4-0.1-4.8-0.9-6.7-2.3l1.2-2.8c1.6,1.2,3.5,1.9,5.5,2.1v-5.5
			c-3-0.7-6.3-1.7-6.3-5.6c0-2.8,2-5.2,6.3-5.7v-3.1h2.3v3.1c2,0.1,3.9,0.7,5.5,1.7l-1.1,2.8c-1.4-0.8-2.9-1.3-4.4-1.5v5.5
			c3,0.8,6.4,1.7,6.4,5.5C169.8,154.1,167.8,156.6,163.5,157z M161.2,145.2v-4.9c-1.9,0.3-2.8,1.3-2.8,2.5S159.6,144.8,161.2,145.2
			L161.2,145.2z M166.3,151.6c0-1.3-1.2-2-2.9-2.4v4.9C165.5,153.7,166.3,152.8,166.3,151.6L166.3,151.6z"/>
		<path class="st6" d="M185.9,153.8v3h-14.2v-2.4l7.6-7.2c1.9-1.8,2.2-2.9,2.2-4c0-1.8-1.2-2.8-3.6-2.8c-1.7-0.1-3.4,0.7-4.5,2
			l-2.5-1.9c1.8-2.2,4.5-3.3,7.3-3.2c4.2,0,6.9,2.1,6.9,5.5c0,1.9-0.5,3.6-3.2,6.1l-5.1,4.9L185.9,153.8z"/>
		<path class="st6" d="M203.2,150.8c0,3.8-3.1,6.2-7,6.2c-5.2,0-8.3-3.4-8.3-9.6c0-6.6,3.8-10.2,9.4-10.2c1.8-0.1,3.5,0.4,5.1,1.2
			l-1.3,2.7c-1.1-0.7-2.4-1-3.7-0.9c-3.6,0-5.9,2.2-5.9,6.6l0,0c1.3-1.4,3.2-2.1,5.1-2C200.4,144.9,203.2,147.2,203.2,150.8z
			 M199.8,151c0-2-1.5-3.3-3.8-3.3s-3.9,1.4-3.9,3.3s1.4,3.2,4,3.2C198.2,154.3,199.8,153,199.8,151L199.8,151z"/>
		<path class="st6" d="M205.3,154.7c0-1.2,1-2.2,2.2-2.2s2.2,1,2.2,2.2s-1,2.2-2.2,2.2S205.3,155.9,205.3,154.7z"/>
		<path class="st6" d="M211.8,147.2c0-6.3,3.5-9.9,8-9.9s8,3.6,8,9.9s-3.5,9.9-8,9.9S211.8,153.5,211.8,147.2z M224.2,147.2
			c0-4.6-1.8-6.8-4.4-6.8s-4.4,2.1-4.4,6.8s1.8,6.8,4.4,6.8S224.2,151.8,224.2,147.2z"/>
		<path class="st6" d="M230.2,147.2c0-6.3,3.5-9.9,8-9.9s8,3.6,8,9.9s-3.5,9.9-8,9.9S230.2,153.5,230.2,147.2z M242.7,147.2
			c0-4.6-1.8-6.8-4.4-6.8s-4.4,2.1-4.4,6.8s1.8,6.8,4.4,6.8S242.7,151.8,242.7,147.2z"/>
		<path class="st6" d="M248.7,147.2c0-6.3,3.5-9.9,8-9.9s8,3.6,8,9.9s-3.5,9.9-8,9.9S248.7,153.5,248.7,147.2z M261.2,147.2
			c0-4.6-1.8-6.8-4.4-6.8s-4.4,2.1-4.4,6.8s1.8,6.8,4.4,6.8S261.2,151.8,261.2,147.2z"/>
		<rect x="154.4" y="167.9" class="st7" width="34.3" height="17"/>
		<path class="st3" d="M166.4,173.7v6.3h-1l-3.4-4.3v4.3h-1.2v-6.3h1l3.5,4.3v-4.3H166.4z"/>
		<path class="st3" d="M172.9,179v1h-4.8v-6.3h4.6v1h-3.4v1.6h3.1v1h-3.1v1.7H172.9z"/>
		<path class="st3" d="M183.4,173.7l-2.1,6.3H180l-1.6-4.7l-1.6,4.7h-1.3l-2.1-6.3h1.2l1.6,4.8l1.6-4.8h1.1l1.6,4.8l1.6-4.8H183.4z"
			/>
		<path class="st2" d="M350.3,256.9c0,0.1-42.2,0.3-94.2,0.3s-94.3-0.1-94.3-0.3s42.2-0.3,94.3-0.3S350.3,256.8,350.3,256.9z"/>
		<rect x="156.9" y="224.1" class="st7" width="222.5" height="32.6"/>
		<g class="st8">
			<rect x="156.9" y="224.1" width="222.5" height="32.6"/>
		</g>
		<path class="st5" d="M165.4,256.2c-0.2,11.9,9.3,21.6,21.1,21.8c11.9,0.2,21.6-9.3,21.8-21.1c0.2-11.9-9.3-21.6-21.1-21.8
			c0,0,0,0,0,0C175.3,234.9,165.5,244.4,165.4,256.2z"/>
		<path class="st5" d="M165.4,256.2C165.4,256.2,165.4,256.2,165.4,256.2c-0.4,11.9,8.9,21.8,20.8,22.2c11.8,0.4,21.7-8.9,22.1-20.8
			c0-0.2,0-0.5,0-0.7v0L165.4,256.2z"/>
		<path class="st9" d="M171.7,256.3c-0.1,8.3,6.5,15.2,14.8,15.3c8.3,0.1,15.2-6.5,15.3-14.8c0.1-8.3-6.5-15.2-14.8-15.3
			c0,0,0,0,0,0C178.7,241.4,171.9,248,171.7,256.3z"/>
		<path class="st2" d="M187,241.5c-8.3-0.1-15.2,6.5-15.3,14.8l30.1,0.4C202,248.5,195.3,241.6,187,241.5z"/>
		<path class="st5" d="M177.6,256.4c-0.1,5.1,3.9,9.3,9,9.4c5.1,0.1,9.3-3.9,9.4-9c0.1-5.1-3.9-9.3-9-9.4c0,0,0,0,0,0
			C181.9,247.4,177.7,251.4,177.6,256.4z"/>
		<path class="st5" d="M329.4,256.2c-0.2,11.9,9.3,21.6,21.1,21.8s21.6-9.3,21.8-21.1c0.2-11.9-9.3-21.6-21.1-21.8c0,0,0,0,0,0
			C339.3,234.9,329.6,244.4,329.4,256.2z"/>
		<path class="st5" d="M329.4,256.2C329.4,256.2,329.4,256.2,329.4,256.2c-0.4,11.9,8.9,21.8,20.8,22.2c11.8,0.4,21.7-8.9,22.1-20.8
			c0-0.2,0-0.5,0-0.7v0L329.4,256.2z"/>
		<path class="st9" d="M335.8,256.3c-0.1,8.3,6.5,15.2,14.9,15.3c8.3,0.1,15.2-6.5,15.3-14.9c0.1-8.3-6.5-15.2-14.8-15.3
			C342.8,241.4,335.9,248,335.8,256.3C335.8,256.3,335.8,256.3,335.8,256.3z"/>
		<path class="st2" d="M351.1,241.5c-8.3-0.1-15.2,6.5-15.3,14.8c0,0,0,0,0,0l30.1,0.4C366,248.5,359.4,241.6,351.1,241.5z"/>
		<path class="st5" d="M341.7,256.4c-0.1,5.1,3.9,9.3,9,9.4c5.1,0.1,9.3-3.9,9.4-9c0.1-5.1-3.9-9.3-9-9.4c0,0,0,0,0,0
			C346,247.4,341.8,251.4,341.7,256.4z"/>
		<path class="st7" d="M214.9,205.8c0,0-31.6,2.3-43.3,5c-8.3,1.9-24.2,5-24,15.1l1.3,7.2c-3.6,1.8-5.9,5.5-5.9,9.6
			c0,6.9-1.4,17.5,12.3,18c2.3,0.1,6.6,0,6.6,0s-2.6-29.3,24.3-30.2c27.4-0.9,25.6,29.9,25.6,29.9h114.5c0,0-4.7-30,24.8-30.1
			s25,30.3,25,30.3s10.9,0.9,15.9-8.2s3.7-15.6,3.7-15.6l-0.2-5.8c-0.1-2-1.6-3.6-3.6-3.6l0,0c0,0,2-14.5-1.1-17
			s-19.6-17.7-19.6-17.7l0.8-0.5c0.9-0.5,1.1-1.7,0.6-2.6c-0.2-0.4-0.6-0.6-1-0.8c-6.3-2.2-18.8-6.4-21.7-7.5
			c-0.4-0.2-0.9-0.3-1.4-0.3c-1.8-0.1-6.7-0.4-15.8-0.5c-11.1-0.1-55,0-55,0s-15.1,1.2-23.5,4.9
			C245.6,189.2,214.9,205.8,214.9,205.8z"/>
		<g class="st10">
			<path d="M151,241.7c-1.1-0.2-2.9-0.3-3.8,0.5c-0.6,0.7-0.9,1.5-0.9,2.4c-0.2,1.2-0.2,2.4,0.1,3.6c0.2,1.2,1,2.2,2,2.8
				c1.1,0.6,2.4,0.4,3.3-0.4c0.7-0.9,0.9-2,0.8-3.1c0.1-1.5,0-2.9-0.2-4.4c-0.1-0.3-0.2-0.6-0.4-0.9
				C151.7,242,151.4,241.8,151,241.7"/>
		</g>
		<path class="st9" d="M148.9,233c3.4,0,6.6-0.2,10-0.4c0.4,0,0.7-0.1,1-0.3c0.3-0.3,0.4-0.8,0.4-1.2c0-1.8-0.1-3.8-1.4-5
			c-0.9-0.6-2-1-3.1-1c-2.7-0.3-5.5,0-8.1,0.8L148.9,233z"/>
		<path class="st3" d="M218.6,259.3c0-0.1,0-0.2,0-0.3l-0.1-0.8c0-0.8-0.1-1.8-0.2-3.2s-0.2-3.1-0.4-5.1c-0.2-2.3-0.6-4.5-1.2-6.7
			c-0.7-2.6-1.8-5.2-3.2-7.5c-1.6-2.7-3.7-5.1-6.2-7c-5.4-3.9-12.7-6-20.4-6.1c-7.3-0.2-14.4,2.1-20.2,6.4c-2.5,1.9-4.7,4.1-6.6,6.7
			c-1.6,2.2-2.9,4.7-3.9,7.2c-0.8,2.1-1.3,4.3-1.6,6.6c-0.2,1.7-0.3,3.4-0.2,5.1c0.1,1.1,0.2,2.1,0.4,3.2c0.1,0.4,0.1,0.6,0.1,0.8
			s0,0.3,0,0.3l-0.1-0.3c0-0.2-0.1-0.5-0.2-0.8c-0.2-1.1-0.4-2.1-0.4-3.2c-0.1-1.7,0-3.4,0.2-5.1c0.3-2.3,0.8-4.5,1.6-6.6
			c1-2.6,2.2-5,3.8-7.3c1.8-2.6,4-4.9,6.6-6.8c5.9-4.3,13-6.6,20.3-6.4c7.7,0.1,15,2.3,20.5,6.2c2.5,1.9,4.7,4.3,6.3,7
			c1.4,2.4,2.5,4.9,3.2,7.6c0.6,2.2,1,4.4,1.2,6.7c0.2,2,0.3,3.7,0.3,5.1c0.1,1.4,0.1,2.5,0.1,3.2c0,0.4,0,0.6,0,0.9
			S218.6,259.3,218.6,259.3z"/>
		<path class="st5" d="M219.8,259.8c0-0.1,0-0.2,0-0.2v-0.7c0-0.6,0-1.6-0.1-2.8c-0.1-2.4-0.2-6-0.3-10.5s-0.3-10-0.4-16.3
			c0-1.6-0.1-3.2-0.1-4.9c0-0.9,0-1.7,0.1-2.6l0.2-1.3l0.3-1.3c0.9-3.6,2.5-7,4.7-10l0,0l19.8-12.5l5.4-3.4c1.8-1.2,3.7-2.3,5.7-3.2
			c2-0.9,4.1-1.8,6.2-2.5c1-0.4,2.1-0.7,3.2-1s2.2-0.6,3.3-0.8c4.2-0.9,8.5-1.4,12.8-1.6c4.2-0.2,8.3-0.2,12.4,0h0.1v0.1
			c-1.9,8.5-3.7,16.5-5.3,23.8l0,0l0,0c-1,1.6-1.8,3.3-2.4,5.1c-0.6,1.7-0.9,3.5-0.8,5.3c0.1,1.8,0.2,3.5,0.2,5.1s0.1,3.3,0.1,4.9
			c0.1,6.3,0.1,11.8,0.1,16.3s0,8.1,0,10.5c0,1.2,0,2.1,0,2.8v0.7c0,0.1,0,0.2,0,0.2c0,0,0-0.1,0-0.2v-0.7c0-0.6,0-1.6,0-2.8
			c0-2.4,0-6-0.1-10.5s-0.1-10-0.2-16.3c0-1.6-0.1-3.2-0.1-4.9s-0.1-3.4-0.2-5.1c-0.1-1.8,0.2-3.6,0.8-5.4c0.6-1.8,1.4-3.5,2.4-5.2
			l0,0c1.6-7.3,3.4-15.3,5.3-23.8l0.1,0.1c-4.1-0.2-8.2-0.2-12.4,0c-4.3,0.2-8.5,0.7-12.7,1.6c-1.1,0.2-2.2,0.5-3.3,0.8
			s-2.1,0.6-3.2,1c-2.1,0.7-4.1,1.5-6.1,2.4c-2,0.9-3.8,2-5.6,3.1l-5.5,3.4l-19.8,12.5l0,0c-2.2,3-3.8,6.3-4.7,9.9
			c-0.9,3.4-0.4,6.8-0.4,10c0.1,6.3,0.3,11.8,0.4,16.3s0.2,8.1,0.2,10.5c0,1.2,0.1,2.1,0.1,2.8L219.8,259.8L219.8,259.8z"/>
		<path class="st5" d="M292.6,185h0.2h0.5l2.1-0.1l7.9-0.2l26.6-0.4h0l0,0l3.7,4.6l10.7,13.1c0.4,0.5,0.8,1,1.2,1.5
			c0.4,0.5,0.7,1,1,1.6c1,2.1,1.1,4.6,0.1,6.8c-0.4,1-0.8,1.9-1.2,2.8l-3.7,8.5l-1,2.3c-0.1,0.3-0.2,0.5-0.3,0.6
			c0,0.1-0.1,0.1-0.1,0.2l0.1-0.2l0.2-0.6c0.2-0.5,0.5-1.3,1-2.3l3.6-8.5c0.7-1.8,1.9-3.7,1.8-6c0-1.2-0.3-2.3-0.8-3.4
			c-0.3-0.6-0.6-1.1-1-1.6l-1.2-1.5l-10.7-13l-3.7-4.6h0.1l-26.6,0.4l-7.9,0.1h-2.1L292.6,185L292.6,185z"/>
		<path class="st5" d="M279.1,220.4c0,0,0.1,0,0.3,0c0.3-0.1,0.6-0.2,0.8-0.3c0.4-0.3,0.7-0.7,0.9-1.1c0.1-0.3,0.1-0.6,0.1-0.9
			c0-0.3-0.1-0.7-0.2-1c-0.4-0.7-1.1-1.1-1.9-1.1h-8.9c-1.1,0-2,0.8-2.1,1.9c-0.1,0.5,0,1,0.2,1.4c0.2,0.4,0.6,0.7,1,0.9
			c0.4,0.1,0.9,0.2,1.3,0.2h3.7h3.4h0.9h0.3c-0.1,0-0.2,0-0.3,0h-0.9h-3.4h-4.4c-0.2,0-0.5-0.1-0.7-0.2c-0.5-0.2-0.9-0.6-1.1-1
			c-0.3-0.5-0.4-1-0.3-1.5c0.1-1.2,1.1-2,2.3-2.1h8.9c0.8,0,1.6,0.5,2,1.2c0.2,0.3,0.2,0.7,0.2,1c0,0.3,0,0.6-0.1,0.9
			c-0.2,0.5-0.5,0.9-0.9,1.1c-0.3,0.2-0.6,0.3-0.9,0.3C279.4,220.3,279.3,220.4,279.1,220.4z"/>
		<path class="st5" d="M338.5,220.4c0,0,0.1,0,0.3,0c0.3-0.1,0.6-0.2,0.8-0.3c0.4-0.3,0.7-0.7,0.9-1.1c0.1-0.3,0.1-0.6,0.1-0.9
			c0-0.3-0.1-0.7-0.2-1c-0.4-0.7-1.1-1.1-1.9-1.1h-8.9c-0.5,0-1,0.2-1.4,0.6c-0.4,0.3-0.6,0.8-0.7,1.3c-0.1,0.5,0,1,0.3,1.4
			c0.2,0.4,0.6,0.7,1,0.9c0.4,0.1,0.9,0.2,1.3,0.2h3.7h3.4h0.9h0.3c-0.1,0-0.2,0-0.3,0h-0.9h-3.4h-4.4c-0.2,0-0.5-0.1-0.7-0.2
			c-0.5-0.2-0.9-0.6-1.1-1c-0.3-0.5-0.3-1-0.3-1.5c0.1-0.6,0.3-1.1,0.7-1.4c0.4-0.4,1-0.6,1.5-0.6h8.9c1.2,0,2.2,1,2.2,2.2
			c0,0.3,0,0.6-0.1,0.9c-0.2,0.5-0.5,0.9-0.9,1.1c-0.3,0.2-0.6,0.3-0.9,0.3C338.7,220.3,338.6,220.4,338.5,220.4z"/>
		<path class="st9" d="M390.5,210.8h-11.9c-1.6,0-3.1,0.9-3.9,2.3l0,0c-0.6,1.2-0.7,2.6-0.1,3.8l4.7,10.6l11.9-0.1
			C391.1,227.4,393.7,214,390.5,210.8z"/>
		<path class="st5" d="M225.6,209.3l61.2-1.1l39.9-0.7l13.1-7.6c1-0.5,1.3-1.7,0.8-2.7c-0.1-0.1-0.1-0.2-0.2-0.3l-8.2-10.8
			c-0.9-1.1-2.2-1.8-3.6-1.8l-44.6-0.4c0,0-16.8-1-30,6.4C244.3,196.1,234.7,202.4,225.6,209.3z"/>
		<path class="st4" d="M254.2,185.4c0,0,2.6,1,0.6,2.3s-33,20.9-33,20.9l-6.8-2.8C227.6,198.7,240.5,191.9,254.2,185.4z"/>
		<path class="st5" d="M222.7,209.1h-0.2l-0.6,0.1l-2.2,0.4c-1.9,0.4-4.6,0.9-8,1.5c-6.8,1.2-16.2,2.5-26.8,3.4
			c-2.6,0.2-5.2,0.4-7.7,0.6s-4.9,0.3-7.1,0.5c-4,0.3-8,0.9-11.9,2c-2.6,0.7-5.1,1.8-7.5,3.1c-0.9,0.4-1.5,0.9-1.9,1.2l-0.5,0.3
			l-0.2,0.1l0.2-0.1l0.5-0.3c0.4-0.3,1-0.7,1.9-1.2c2.4-1.4,4.9-2.5,7.5-3.2c3.9-1.1,7.9-1.8,11.9-2.1c2.3-0.2,4.7-0.4,7.1-0.5
			s5-0.4,7.7-0.6c10.5-0.9,19.9-2.2,26.7-3.4c3.4-0.6,6.1-1.1,8-1.4l2.2-0.4l0.6-0.1L222.7,209.1z"/>
		<path class="st5" d="M395.2,236.5c0,0.1-4.1,0.1-9.1,0.1s-9.1-0.1-9.1-0.1s4.1-0.1,9.1-0.1S395.2,236.4,395.2,236.5z"/>
		<path class="st5" d="M320.5,246.9c0,0.1-23,0.1-51.5,0.1s-51.5,0-51.5-0.1s23-0.1,51.5-0.1S320.5,246.8,320.5,246.9z"/>
		<path class="st5" d="M159.2,236.8c0,0-3.3,0.1-7.3,0.1s-7.3-0.1-7.3-0.1s3.3-0.1,7.3-0.1S159.2,236.8,159.2,236.8z"/>
		<path class="st4" d="M371.1,192.1c0,0-2.7,3.1-1.7,5.3s12.2,10.1,12.2,10.1l8.1,1.5L371.1,192.1z"/>
		<polygon class="st4" points="294.4,186.6 292.6,206.2 325,205.3 338.1,197.6 329.6,186.6 		"/>
		<path class="st4" d="M233.3,207.2c0,0,19.6-14.1,27.3-17c7.5-2.7,11.3-3.4,18.3-3.6c6.7-0.2,10.8,0,10.8,0l-5.2,19.9L233.3,207.2z
			"/>
		<path class="st7" d="M230.4,207.2L230.4,207.2c0-1.2,0.7-2.4,1.8-3l4.5-2.5c1.3-0.7,2.7-1.1,4.2-1.1l0,0c0.9,0,1.8,0.1,2.7,0.4
			c1.9,0.7,3.2,2.4,3.3,4.5l0,0c0.1,2.8-2.1,5.1-4.9,5.1c0,0-0.1,0-0.1,0h-8C232,210.6,230.5,209.1,230.4,207.2z"/>
		<path class="st5" d="M230.4,207.2c0,0,0,0.1,0.1,0.4c0.1,0.4,0.2,0.8,0.4,1.2c0.3,0.6,0.8,1,1.4,1.4c0.4,0.2,0.8,0.3,1.2,0.4
			c0.4,0,0.9,0,1.4,0h6.9c0.7,0,1.3-0.1,1.9-0.3c0.6-0.2,1.2-0.6,1.7-1.1c0.5-0.5,0.9-1.1,1.1-1.7c0.3-0.7,0.4-1.4,0.3-2.1
			c-0.1-1.4-0.8-2.8-2-3.6c-0.6-0.4-1.2-0.6-1.9-0.8c-0.7-0.2-1.3-0.2-2-0.2c-1.2,0-2.4,0.3-3.5,0.8c-0.5,0.2-1,0.5-1.5,0.8
			l-1.3,0.7l-2.3,1.3c-0.6,0.3-1.1,0.8-1.4,1.4c-0.2,0.4-0.3,0.8-0.4,1.2C230.5,207,230.4,207.1,230.4,207.2c0-0.1,0-0.3,0-0.4
			c0-0.4,0.2-0.8,0.4-1.2c0.3-0.6,0.8-1.1,1.4-1.4l2.3-1.3l1.3-0.8c0.5-0.3,0.9-0.6,1.5-0.8c1.1-0.5,2.4-0.8,3.6-0.8
			c0.7,0,1.3,0.1,2,0.2c0.7,0.1,1.3,0.4,1.9,0.8c1.2,0.9,2,2.2,2.1,3.8c0.1,0.8-0.1,1.5-0.3,2.2c-0.3,0.7-0.7,1.3-1.2,1.8
			c-0.5,0.5-1.1,0.9-1.8,1.1c-0.6,0.2-1.3,0.3-2,0.3h-6.9c-0.5,0-0.9,0-1.4,0c-0.4-0.1-0.8-0.2-1.2-0.4c-0.6-0.3-1.1-0.8-1.4-1.4
			c-0.2-0.4-0.3-0.8-0.4-1.2C230.4,207.6,230.4,207.4,230.4,207.2z"/>
		<path class="st3" d="M381.3,259.5c0,0,0-0.1,0-0.3s0-0.5,0-0.8s0.1-0.8,0.1-1.3s0-1.1,0.1-1.8s0-1.4,0-2.3s0-1.7-0.2-2.7
			c-0.2-2.2-0.6-4.3-1.2-6.4c-0.3-1.2-0.8-2.4-1.3-3.6c-1.7-4.1-4.6-7.6-8.2-10.2c-2.7-2-5.8-3.5-9-4.4c-3.5-1-7-1.5-10.6-1.4
			c-3.6,0-7.2,0.5-10.7,1.6c-1.6,0.5-3.2,1.2-4.8,2c-1.5,0.8-2.8,1.7-4.1,2.7c-2.4,1.9-4.5,4.1-6.4,6.5c-0.8,1.1-1.5,2.3-2.1,3.5
			c-0.6,1.2-1.1,2.4-1.5,3.5c-1.3,3.6-2.1,7.4-2.3,11.2c-0.1,1.4-0.1,2.4,0,3.1c0,0.4,0,0.6,0,0.8s0,0.3,0,0.3v-0.3
			c0-0.2,0-0.5-0.1-0.8c0-0.7-0.1-1.8,0-3.1c0.2-3.9,1-7.7,2.3-11.3c0.4-1.2,0.9-2.4,1.5-3.6c0.6-1.2,1.3-2.4,2.1-3.6
			c1.8-2.5,4-4.7,6.4-6.6c1.3-1,2.7-1.9,4.1-2.7c1.5-0.8,3.1-1.5,4.8-2c3.5-1.1,7.1-1.6,10.7-1.6c3.6,0,7.3,0.4,10.8,1.4
			c3.2,1,6.3,2.5,9,4.5c1.3,0.9,2.5,2,3.5,3.1c1,1.1,2,2.2,2.8,3.5c0.8,1.2,1.4,2.4,1.9,3.7c0.5,1.2,0.9,2.4,1.3,3.6
			c0.6,2.1,1,4.3,1.1,6.5c0.1,1,0.1,1.9,0.1,2.7s0,1.6,0,2.3s-0.1,1.3-0.1,1.8s-0.1,1-0.1,1.3s-0.1,0.6-0.1,0.8V259.5z"/>
		<path class="st3" d="M283.7,209.3h-0.4h-1l-3.8,0.1c-3.2,0.1-7.7,0.2-12.7,0.3s-9.5,0.2-12.7,0.2h-5.2h0.3h1.1l3.8-0.1
			c3.3-0.1,7.7-0.2,12.7-0.3s9.5-0.2,12.7-0.3h3.8h1L283.7,209.3L283.7,209.3z"/>
		<path class="st3" d="M278.4,215.3c-2.3,0.1-4.7,0.1-7,0C273.7,215.1,276,215.1,278.4,215.3z"/>
		<path class="st3" d="M279.7,193.8c0,0-4.3,1.9-9.7,4s-9.8,3.9-9.8,3.9s4.3-1.9,9.7-4.1S279.6,193.8,279.7,193.8z"/>
		<path class="st3" d="M270.8,195.2c0,0.1-4.1,1.9-9.3,4.1s-9.3,3.9-9.4,3.9s4.1-1.9,9.3-4.1S270.8,195.1,270.8,195.2z"/>
		<path class="st3" d="M326.9,193.1c0,0.1-4.3,1.9-9.7,4.1s-9.8,3.9-9.8,3.9s4.3-1.9,9.7-4.1S326.9,193,326.9,193.1z"/>
		<path class="st3" d="M318,194.4c0,0.1-4.1,1.9-9.3,4.1s-9.3,3.9-9.4,3.9s4.1-1.9,9.3-4.1S318,194.4,318,194.4z"/>
		<path class="st3" d="M327.7,209.2c0,0.1-8.7,0.2-19.4,0.2s-19.4,0.1-19.4,0s8.7-0.1,19.4-0.2S327.7,209.2,327.7,209.2z"/>
		<path class="st3" d="M337.3,215c0,0.1-2.4,0.1-5.4,0.2s-5.4,0-5.4-0.1s2.4-0.1,5.4-0.1S337.3,214.9,337.3,215z"/>
		<path class="st3" d="M171.2,212H171l-0.7,0.1c-0.3,0-0.6,0.1-1.1,0.1s-0.9,0.1-1.4,0.2c-1,0.2-2.3,0.5-3.6,0.8
			c-1.5,0.4-2.9,0.9-4.3,1.4c-1.4,0.6-2.8,1.2-4.2,1.9c-1.2,0.7-2.3,1.3-3.2,1.9c-0.4,0.3-0.8,0.6-1.2,0.8s-0.6,0.4-0.9,0.6
			l-0.6,0.4l-0.2,0.1c0,0,0.1-0.1,0.2-0.2l0.5-0.4c0.2-0.2,0.5-0.4,0.9-0.6s0.7-0.5,1.2-0.8c0.9-0.6,2-1.2,3.2-1.9
			c1.4-0.7,2.7-1.4,4.2-1.9c1.4-0.6,2.9-1,4.4-1.4c1.4-0.4,2.6-0.6,3.7-0.8c0.5-0.1,1-0.1,1.4-0.2s0.8-0.1,1.1-0.1h0.7
			C171.1,212,171.2,212,171.2,212z"/>
		<path class="st3" d="M242.9,202.5c-0.1-0.1-0.2-0.3-0.4-0.4c-0.4-0.3-0.8-0.5-1.3-0.5c-0.7-0.1-1.4,0-2.1,0.2
			c-0.9,0.2-1.7,0.5-2.5,0.9c-1.5,0.6-2.9,1.5-4.1,2.6c-0.9,0.8-1.5,1.4-1.5,1.4c0.1-0.2,0.2-0.3,0.3-0.4c0.3-0.4,0.7-0.7,1.1-1
			c1.2-1.1,2.6-2,4.1-2.6c0.8-0.4,1.7-0.7,2.6-0.9c0.7-0.2,1.5-0.3,2.2-0.2c0.5,0.1,1,0.3,1.4,0.6
			C242.6,202.2,242.7,202.3,242.9,202.5C242.9,202.5,242.9,202.5,242.9,202.5z"/>
		<path class="st5" d="M372,191.9c-0.6,0.1-1.1,0.2-1.7,0.2c-0.7,0-1.3-0.1-2-0.2c-0.9-0.2-1.7-0.5-2.6-0.8c-0.9-0.4-1.9-0.8-3-1.2
			l-1.7-0.7c-0.6-0.2-1.2-0.4-1.8-0.6c-2.7-0.9-5.4-1.7-8.2-2.2c-5-1.1-10.1-1.7-15.3-1.9c-1-0.1-1.9-0.1-2.7-0.1h-2h-1.3h-0.3
			c-0.1,0-0.1,0-0.1,0h0.1h0.3l1.3-0.1h2c0.8,0,1.7,0,2.7,0c5.1,0.2,10.3,0.8,15.3,1.8c2.8,0.6,5.5,1.3,8.2,2.2
			c0.6,0.2,1.2,0.4,1.8,0.7l1.7,0.7c1.1,0.5,2,0.9,3,1.3c0.8,0.3,1.7,0.6,2.5,0.8c0.7,0.2,1.3,0.2,2,0.3c0.4,0,0.8,0,1.3-0.1
			L372,191.9L372,191.9z"/>
		<circle class="st1" cx="267.9" cy="296.7" r="10.4"/>
		<path class="st5" d="M268.2,301.2c-0.1,0-0.3-0.1-0.4-0.2l-5.2-6.1c-0.2-0.2-0.2-0.5,0.1-0.7c0.2-0.2,0.5-0.2,0.7,0.1l4.8,5.6
			l4.3-5.6c0.2-0.2,0.5-0.3,0.7-0.1c0.2,0.2,0.3,0.5,0.1,0.7c0,0,0,0,0,0l-4.7,6.1C268.5,301.1,268.3,301.2,268.2,301.2L268.2,301.2
			z"/>
	</g>
	<g id="freepik--Character--inject-2">
		<path class="st4" d="M101.9,437.1l-0.6,17.5c0,0,17.6,6.5,17.8,9.8H85l-0.1-27.4L101.9,437.1z"/>
		<path class="st2" d="M90.7,453.2c-0.7,0.2-1.1,0.9-1,1.6c0.2,0.7,0.9,1.1,1.6,1c0.7-0.2,1.1-1,1-1.7c-0.3-0.7-1-1.1-1.7-0.8"/>
		<path class="st5" d="M85,464.4l0.1-2.8l32.6,1.1c0,0,1.5,0.7,1.3,1.7L85,464.4z"/>
		<path class="st3" d="M101.8,454.5c0,0.2-0.8,0.2-1.7,0.8s-1.2,1.2-1.4,1.2s0.1-1,1.1-1.7S101.8,454.3,101.8,454.5z"/>
		<path class="st3" d="M105.4,456c0,0.2-0.7,0.4-1.2,1.1s-0.7,1.5-0.9,1.4s-0.3-1,0.4-1.8S105.4,455.8,105.4,456z"/>
		<path class="st3" d="M107.4,460.2c-0.2,0-0.4-0.8,0-1.7s1.2-1.3,1.3-1.1s-0.4,0.6-0.8,1.4S107.6,460.2,107.4,460.2z"/>
		<path class="st3" d="M101.5,450.5c-0.1,0.1-0.8-0.1-1.8,0s-1.7,0.4-1.8,0.2s0.6-0.7,1.7-0.8S101.6,450.3,101.5,450.5z"/>
		<path class="st4" d="M62.8,438.7l-1.3,21.2l3.8,17.1c0.3,1.2-0.5,2.3-1.7,2.6c0,0-0.1,0-0.1,0l0,0c-0.7,0.1-1.4-0.1-1.9-0.6
			c-3.1-3.2-14.5-15.2-14.3-16.8c0.2-1.8-0.1-22.5-0.1-22.5L62.8,438.7z"/>
		<path class="st5" d="M63.4,479.6l-16.1-18.8v0.9c0,0.8,0.2,1.5,0.7,2.2c1.3,1.6,4.9,6.1,13.5,15.1C62,479.5,62.8,479.8,63.4,479.6
			L63.4,479.6z"/>
		<g class="st11">
			<path class="st3" d="M51.9,454.1c0.5,0.4,0.7,1.2,0.3,1.7c-0.4,0.5-1.2,0.7-1.7,0.3c-0.6-0.4-0.7-1.2-0.3-1.8
				C50.7,453.8,51.5,453.8,51.9,454.1"/>
		</g>
		<path class="st3" d="M59,470.1c0.5-0.6,1.2-1.2,1.9-1.6c0.8-0.3,1.6-0.4,2.5-0.4c0,0-0.2-0.2-0.7-0.3c-1.3-0.2-2.7,0.4-3.4,1.5
			C59,469.8,58.9,470.1,59,470.1z"/>
		<path class="st3" d="M60.4,473c0.6-0.3,1.3-0.6,1.9-0.8c0.7-0.1,1.4-0.2,2.1-0.2c-0.6-0.4-1.5-0.5-2.2-0.3
			C60.9,472.1,60.2,473,60.4,473z"/>
		<path class="st3" d="M56.3,466.4c0.9-0.6,1.9-1.1,2.9-1.5c1-0.3,2.1-0.5,3.2-0.6C60.1,463.7,57.7,464.6,56.3,466.4z"/>
		<path class="st3" d="M56.2,459.9c0.1,0.1,1.2-0.3,2.8-0.3s2.7,0.4,2.8,0.3c-0.8-0.6-1.8-0.8-2.8-0.8C58,459.1,57,459.3,56.2,459.9
			z"/>
		<path class="st3" d="M56.4,453.7c0.9-0.3,1.9-0.4,2.9-0.4c1,0.1,1.9,0.4,2.8,0.8c0,0-0.2-0.3-0.7-0.6c-1.3-0.8-2.9-0.9-4.2-0.3
			C56.6,453.4,56.4,453.6,56.4,453.7z"/>
		<path class="st3" d="M59.3,452.1c0.1-0.3,0.1-0.5,0.1-0.8c0-0.7-0.2-1.5-0.5-2.1c-0.2-0.5-0.5-0.9-1-1.2c-0.3-0.2-0.7-0.1-1,0.1
			c-0.2,0.3-0.4,0.6-0.4,1c0.1,1.5,1.1,2.7,2.6,2.9c1.4,0.2,2.8-0.5,3.6-1.7c0.2-0.3,0.2-0.7,0.1-1c-0.2-0.3-0.5-0.5-0.9-0.5
			c-0.5,0.1-1,0.3-1.4,0.7c-0.6,0.4-1.1,0.9-1.5,1.5c-0.2,0.2-0.3,0.5-0.4,0.7c0.6-0.8,1.3-1.4,2.1-2c0.4-0.3,0.8-0.5,1.3-0.5
			c0.2,0,0.4,0.1,0.5,0.3c0.1,0.2,0,0.5-0.1,0.7c-0.7,1.1-1.9,1.6-3.1,1.5c-1.2-0.2-2.2-1.2-2.2-2.5c0-0.2,0.1-0.5,0.2-0.7
			c0.1-0.1,0.4-0.2,0.5-0.1c0.4,0.2,0.7,0.6,0.9,1C58.9,450.2,59.2,451.1,59.3,452.1z"/>
		<path class="st5" d="M116.8,288.9c1.8,7.2,2.5,14.7,2.2,22.1c-0.2,4.7-15.4,141.1-15.4,141.1l-19.3-1.7l3.3-127.5l-0.8,0.7
			c0,0-11.5,53.6-12.2,62.1c-0.7,7.6-9.9,68.9-9.9,68.9L46,453.7l4.2-77.4l5.7-70.2l2.3-20.5L116.8,288.9z"/>
		<path class="st4" d="M83.9,311.9c0.3,0.2,0.6,0.4,0.9,0.5c0.8,0.4,1.8,0.7,2.7,0.9c0.7,0.1,1.3,0.1,2,0c0.7-0.1,1.4-0.5,2-1
			c0.6-0.6,1-1.4,1.2-2.2c0.2-0.8,0.3-1.7,0.5-2.6c0.6-3.5,1-6.8,1.2-9.1c0.1-1.2,0.2-2.1,0.2-2.8c0-0.3,0-0.7,0-1
			c-0.1,0.3-0.2,0.7-0.2,1c-0.1,0.8-0.2,1.7-0.3,2.8c-0.3,2.3-0.7,5.6-1.3,9.1c-0.3,1.8-0.5,3.5-1.6,4.6c-1,0.9-2.4,1.3-3.7,1
			c-0.9-0.1-1.8-0.4-2.7-0.7C84.6,312.1,84.2,312,83.9,311.9z"/>
		<path class="st4" d="M90,295.1c0,0-0.1-0.1-0.4-0.1c-0.4,0-0.9,0.2-1.2,0.4c-0.5,0.4-0.9,1-0.9,1.7c0.1,1.2,1.1,2,2.3,1.9
			c0.5,0,1-0.3,1.3-0.7c0.4-0.5,0.5-1.2,0.4-1.9c-0.1-0.4-0.3-0.8-0.7-1.1c-0.2-0.2-0.4-0.2-0.4-0.2c0.4,0.3,0.7,0.8,0.8,1.3
			c0.1,0.5,0,1.1-0.4,1.5c-0.5,0.5-1.2,0.6-1.8,0.4c-0.6-0.2-1.1-0.7-1.1-1.4c0-0.5,0.2-1.1,0.7-1.4C89,295.3,89.5,295.1,90,295.1z"
			/>
		<path class="st4" d="M56.2,304.7c0.2,0.1,0.5,0.1,0.7,0.1c0.7,0,1.3,0,2,0c2.2-0.2,4.4-0.7,6.4-1.6c2-0.9,3.9-2.2,5.5-3.7
			c0.5-0.5,0.9-1,1.3-1.5c0.2-0.2,0.3-0.4,0.4-0.6c-0.1,0-0.7,0.8-2,1.9c-3.3,2.9-7.4,4.7-11.8,5.3
			C57.2,304.7,56.2,304.6,56.2,304.7z"/>
		<path class="st4" d="M108.2,295.1c0.3,0.8,0.7,1.5,1.2,2.2c2.2,3.3,5.2,6.1,8.6,8c0.7,0.4,1.5,0.8,2.2,1c-0.7-0.5-1.4-0.9-2.1-1.3
			c-1.7-1-3.2-2.2-4.7-3.5c-1.4-1.3-2.7-2.8-3.9-4.4C109.2,296.3,108.7,295.7,108.2,295.1z"/>
		<path class="st12" d="M104.1,151.4c-1.3-8.7-9.1-14.9-17.9-14.3l-0.9,0.1c-9.4,1.2-13.6,9.9-12.1,19.2l3.3,33.1l0.2,6.9l22.3,2
			l-0.5-14.4c0,0,8.9-2.1,8.4-11.1C106.7,168.4,105.4,159.5,104.1,151.4z"/>
		<path class="st13" d="M98.6,183.9c-4.2,0.3-8.4-0.6-12.1-2.6c0,0,3.3,6.3,12.2,4.8L98.6,183.9z"/>
		<path class="st5" d="M102.8,159.8c0.1,0.7-0.5,1.3-1.2,1.4c-0.7,0.1-1.3-0.4-1.4-1c0,0,0,0,0,0c-0.1-0.7,0.5-1.3,1.2-1.4
			C102.1,158.6,102.7,159.1,102.8,159.8C102.8,159.8,102.8,159.8,102.8,159.8z"/>
		<path class="st5" d="M102.5,156c-0.1,0.2-1.2-0.5-2.6-0.4s-2.4,0.9-2.5,0.7s0.1-0.4,0.5-0.7c0.6-0.5,1.3-0.7,2-0.8
			c0.7-0.1,1.4,0.1,2.1,0.5C102.4,155.6,102.6,155.9,102.5,156z"/>
		<path class="st5" d="M89.7,161.3c0.1,0.7-0.5,1.3-1.2,1.4c-0.7,0.1-1.3-0.4-1.4-1c0,0,0,0,0,0c-0.1-0.7,0.5-1.3,1.2-1.4
			C89,160.2,89.6,160.6,89.7,161.3C89.7,161.3,89.7,161.3,89.7,161.3z"/>
		<path class="st5" d="M88.9,157.2c-0.2,0.2-1.2-0.5-2.6-0.4s-2.3,0.9-2.5,0.7s0.1-0.4,0.5-0.7c0.6-0.5,1.3-0.7,2-0.8
			c0.7,0,1.4,0.1,2,0.5C88.8,156.8,88.9,157.1,88.9,157.2z"/>
		<path class="st5" d="M94.7,167.1c0.7-0.3,1.5-0.5,2.2-0.6c0.3-0.1,0.7-0.2,0.7-0.4c0-0.4-0.1-0.7-0.3-1c-0.4-0.8-0.8-1.7-1.2-2.6
			c-1.7-3.7-3-6.8-2.9-6.9s1.7,2.9,3.4,6.6l1.2,2.6c0.3,0.4,0.4,0.9,0.3,1.4c-0.1,0.3-0.3,0.5-0.6,0.6c-0.2,0.1-0.4,0.1-0.5,0.1
			C96.2,167.1,95.4,167.2,94.7,167.1z"/>
		<path class="st5" d="M90.6,168.4c0.2,0,0.3,1.5,1.7,2.4s3,0.7,3,0.9s-0.3,0.3-1,0.4c-0.9,0.1-1.8-0.2-2.5-0.7
			c-0.7-0.5-1.2-1.2-1.3-2.1C90.4,168.8,90.5,168.4,90.6,168.4z"/>
		<path class="st5" d="M88.8,151.7c-0.1,0.4-1.5,0.3-3.1,0.6s-2.9,0.9-3.2,0.5c-0.1-0.1,0.1-0.5,0.6-0.9c0.7-0.5,1.5-0.9,2.3-1
			c0.8-0.2,1.7-0.1,2.5,0.1C88.6,151.3,88.9,151.6,88.8,151.7z"/>
		<path class="st5" d="M101.7,152c-0.2,0.3-1.2,0.1-2.3,0.1s-2.1,0.4-2.4,0c-0.1-0.1,0-0.5,0.4-0.8c0.5-0.4,1.2-0.6,1.9-0.6
			c0.7,0,1.3,0.1,1.9,0.5C101.6,151.5,101.8,151.8,101.7,152z"/>
		<path class="st12" d="M75.4,165.1c-0.1-1.4-1.4-2.3-2.7-2.2c0,0-0.1,0-0.1,0c-1.7,0.3-3.5,1.4-3.1,4.9c0.7,6.2,6.7,4.2,6.7,4.1
			S75.7,167.7,75.4,165.1z"/>
		<path class="st13" d="M74.6,169.6c0,0-0.1,0.1-0.3,0.2c-0.2,0.1-0.5,0.2-0.8,0.1c-0.9-0.4-1.4-1.3-1.5-2.3c-0.1-0.5,0-1.1,0.1-1.6
			c0.1-0.4,0.4-0.7,0.7-0.9c0.2-0.1,0.5,0,0.7,0.2c0.1,0.2,0.1,0.3,0.1,0.3s0.1-0.1,0-0.4c0-0.1-0.1-0.3-0.3-0.4
			c-0.2-0.1-0.4-0.1-0.6-0.1c-0.5,0.2-0.9,0.6-1,1.1c-0.2,0.6-0.3,1.2-0.2,1.8c0.1,1.1,0.8,2.1,1.8,2.5c0.4,0.1,0.7,0,1-0.3
			C74.6,169.8,74.6,169.7,74.6,169.6z"/>
		<path class="st12" d="M128.8,218c2.9,8.4,3.8,8.5,6.4,32.6c0.5,4.7-0.8,11.8-4.9,14s-11.5-0.2-14-4.2l-2.8-17.8L128.8,218z"/>
		<path class="st13" d="M118.5,253.5c0.5-1.2,1-2.4,1.6-3.6c0.7-1.1,1.4-2.2,2.2-3.2c-0.3,0.2-0.6,0.5-0.8,0.8
			c-0.6,0.7-1.2,1.5-1.6,2.3c-0.4,0.8-0.8,1.7-1.1,2.6C118.6,252.7,118.6,253.1,118.5,253.5z"/>
		<path class="st7" d="M58.2,263.3l0.1-19.9l-0.1-1.9L38,236.8c0,0,4-13,7.6-27.1c2.1-8.1,9.1-12.2,10.8-13l0,0l0.4-0.2l0,0
			l19.8-7.6c3.9,4.2,9.3,6.8,14.8,5.2c3-0.8,5.6-2.5,7.6-4.9l13.4,3.9l0,0c3.8,1.3,7,3.9,9,7.3c2.7,4.8,11.5,27,11.6,27.5l-16.2,1.5
			c0,0,2.9,52.6,1.9,61.9c0,0-3.9,2.7-13.9,3.2c-20.1,1-50.1-0.5-50.1-0.5c0.5-3,1-8.1,1.2-10.7L58.2,263.3z"/>
		<path class="st5" d="M116.3,210c-0.1,0,0.3,12.5,1,28s1.2,28,1.2,28s-0.3-12.5-1-28S116.4,210,116.3,210z"/>
		<path class="st5" d="M134.7,220.5l-6.3,26.1c-0.4,1.4-1.6,2.5-3.7,3l-35.5,0.1c-1.7-0.7-2.8-2.5-2.6-4.4l4.6-24.9
			c0.3-1.5,1.6-2.6,3.1-2.6l37.4-0.9c1.6,0,2.9,1.2,3,2.9C134.8,220,134.8,220.3,134.7,220.5z"/>
		<path class="st12" d="M137.1,225.7c0.6-0.8,0.6-2-0.1-2.8c-0.7-0.8-1.7-1.2-2.7-1.2c-1,0-2,0.3-2.9,0.7c-1.2,0.5-2.3,1.1-3.3,1.8
			c-0.8,0.4-1.4,1.1-1.6,2c-0.1,0.9,0.8,1.9,1.6,1.4c-1.1,0.5-1.9,1.5-2.1,2.6c-0.1,1.1,0.5,1.7,1.6,2c-0.8,0.4-1.2,1.3-0.9,2.2
			c0.5,0.8,1.6,1.1,2.5,0.7c0.8-0.4,1.5-1,2.1-1.8c-0.5,1.3-0.6,2.7-0.3,4c2.4-0.9,4.7-3.5,4-6c1.2-1,1.6-2.6,0.9-4
			c1.1-0.5,1.8-1.6,1.9-2.8"/>
		<path class="st13" d="M130.6,237.2c0.3-0.3,0.6-0.5,0.9-0.7c0.7-0.5,1.4-1.1,2-1.8c0.6-0.7,0.9-1.5,1-2.4c0-0.4,0-0.8,0.1-1.1
			c0.1,0.4,0.2,0.8,0.1,1.1c0,1-0.4,1.9-1,2.6c-0.6,0.7-1.3,1.3-2.1,1.8C131.3,236.9,131,237.1,130.6,237.2z"/>
		<path class="st13" d="M127.5,232.2c0.4-0.2,0.7-0.5,1-0.8c0.8-0.7,1.7-1.2,2.7-1.4c0.5-0.1,1.1-0.1,1.6,0c0.4,0.1,0.9,0.3,1.2,0.6
			c0.3,0.3,0.6,0.6,0.8,1c0-0.1,0-0.2-0.1-0.3c-0.1-0.3-0.3-0.6-0.6-0.8c-0.4-0.3-0.8-0.5-1.3-0.7c-0.6-0.1-1.2-0.1-1.8,0
			c-1,0.3-2,0.8-2.7,1.6C128,231.5,127.7,231.8,127.5,232.2z"/>
		<path class="st13" d="M127.6,227.6c0.4-0.1,0.8-0.3,1.2-0.5c0.4-0.2,0.9-0.4,1.3-0.6c0.5-0.2,1.1-0.4,1.7-0.5
			c0.6-0.1,1.2-0.1,1.7-0.1c0.5,0.1,0.9,0.3,1.3,0.5c0.4,0.3,0.7,0.6,0.9,1c0-0.1,0-0.2-0.1-0.4c-0.2-0.3-0.4-0.6-0.6-0.8
			c-0.4-0.3-0.9-0.5-1.4-0.6c-0.6-0.1-1.2-0.1-1.8,0c-0.6,0.1-1.2,0.3-1.7,0.5c-0.5,0.2-0.9,0.4-1.3,0.7
			C128.4,227.2,128,227.4,127.6,227.6z"/>
		<path class="st5" d="M70.4,158.8c0.5,1.8,0.3,4.7,1.9,4.3c3.1-0.8,2.4,5.6,3.9,5s2.8-2.4,2.9-6.4c0.1-5-1.9-8.6,0.1-14.4
			c1.3-2.3,3.7-3.8,6.3-3.9c2.7-0.1,5.2,1.3,6.7,3.5c0.3-1.8,1.1-4.4,2.7-5.2c1.6-0.9,3.6-0.7,5,0.4c1.4,1.2,1.7,3.3,0.7,4.8
			c0.8,0.2,1.6-0.1,2-0.7c0.1,0.8-0.2,1.6-0.8,2.2c0.6-0.2,1.2-0.6,1.6-1.1c-0.2,0.7-0.3,1.4-0.5,2.2c2.6,0.1,5.2-2.5,6-4.8
			c1.1-3.4,0.2-6.9-1.7-10c-1.9-3.1-5.3-5.1-9-5.2c-3.5-0.2-6.7,1.9-8.1,5.1c-2.3-1.7-7.1-2.2-9.8-1c-2.7,1.2-4.5,3.8-4.8,6.7
			c-1.7-0.6-3.6-0.2-5,1c-0.1,0.1-0.2,0.2-0.3,0.3c-1.9,1.8-2.7,4.4-2.2,7c0.2,1,0.5,2,0.7,2.9C69.3,153.7,70.4,158.8,70.4,158.8z"
			/>
		<path class="st4" d="M102.9,146c0.1,0,0.1-0.1,0.2-0.2c0.2-0.2,0.4-0.4,0.5-0.6c0.6-0.8,0.9-1.7,1-2.6c0.2-1.4-0.3-2.9-1.2-3.9
			c-1.2-1.3-2.9-2-4.7-1.8c-0.9,0.1-1.8,0.5-2.5,1c-0.7,0.5-1.3,1-1.8,1.7c-0.9,1.1-1.5,2.4-1.9,3.7c-0.2,0.9-0.3,1.9-0.3,2.8
			c0,0.3,0,0.5,0.1,0.8c0,0.1,0,0.2,0.1,0.3c-0.1-1.3,0-2.6,0.4-3.8c0.4-1.3,1-2.6,1.9-3.6c1-1.3,2.5-2.2,4.2-2.6
			c1.7-0.2,3.4,0.4,4.5,1.7c0.9,1,1.4,2.4,1.2,3.8c-0.1,0.9-0.4,1.8-0.9,2.6C103.2,145.7,102.9,146,102.9,146z"/>
		<path class="st4" d="M104.1,148.8c0.1-0.1,0.1-0.2,0.2-0.3c0.1-0.2,0.3-0.5,0.5-0.9c0.6-1.1,1.1-2.3,1.5-3.4
			c0.2-0.8,0.4-1.7,0.4-2.6c0-1-0.2-2-0.5-2.9c-0.4-1-1.2-1.9-2.1-2.5c-1-0.6-2.2-1-3.4-1.1c-1.2-0.1-2.4,0.1-3.5,0.6
			c-1,0.4-2,0.9-2.9,1.6c-1.5,1.1-2.6,2.7-3.1,4.5c-0.3,1.2-0.3,2.5,0.2,3.7c0.1,0.3,0.3,0.6,0.5,0.9c0.1,0.2,0.2,0.3,0.2,0.3
			c-0.2-0.4-0.4-0.8-0.6-1.2c-0.4-1.2-0.4-2.4-0.1-3.6c0.5-1.8,1.6-3.3,3.1-4.4c1.7-1.4,3.9-2.2,6.2-2.1c1.2,0.1,2.3,0.4,3.2,1.1
			c0.9,0.6,1.6,1.4,2,2.4c0.4,0.9,0.6,1.9,0.5,2.8c0,0.8-0.1,1.7-0.4,2.5c-0.4,1.2-0.8,2.3-1.4,3.4l-0.4,0.9
			C104.2,148.5,104.1,148.6,104.1,148.8z"/>
		<path class="st4" d="M72.6,154.8c0,0-0.6-0.5-1.3-1.4c-2-2.3-2.7-5.6-1.8-8.5c0.3-1.1,0.7-1.7,0.7-1.8c-0.1,0.1-0.2,0.3-0.3,0.4
			c-0.2,0.4-0.4,0.8-0.6,1.3c-0.5,1.5-0.6,3.1-0.3,4.6c0.3,1.5,1,2.9,2.1,4.1c0.3,0.4,0.6,0.7,1,1C72.3,154.7,72.4,154.7,72.6,154.8
			z"/>
		<path class="st4" d="M78.2,154.6c0,0-0.3-0.1-0.8-0.5c-0.7-0.5-1.2-1.1-1.6-1.9l-0.3-0.6l0.1,0.6c0.1,0.9,0.2,1.9,0.3,2.9l0.2-0.1
			c-1.8-1.2-3-3.1-3.4-5.2c-0.2-1-0.2-1.9,0-2.9c0.2-0.9,0.5-1.7,0.9-2.6c0,0-0.1,0.1-0.1,0.1c-0.1,0.2-0.2,0.3-0.3,0.5
			c-0.3,0.6-0.5,1.2-0.7,1.9c-0.2,1-0.2,2-0.1,3c0.4,2.2,1.6,4.2,3.5,5.4l0.2,0.1v-0.3c-0.1-1.1-0.2-2.1-0.3-2.9l-0.2,0.1
			c0.4,0.8,1,1.4,1.7,1.9c0.2,0.1,0.4,0.2,0.6,0.3C78.1,154.6,78.2,154.6,78.2,154.6z"/>
		<path class="st4" d="M80,141.6c0.4-0.7,0.8-1.3,1.4-1.8c0.7-0.5,1.4-0.8,2.2-1c1-0.2,2-0.1,3,0.3c0.9,0.4,1.8,0.9,2.5,1.7
			c0.6,0.6,1,1.3,1.3,2.1c0.3,0.7,0.5,1.5,0.7,2.2c0-0.2,0-0.4,0-0.6c-0.1-0.6-0.2-1.1-0.4-1.7c-0.3-0.8-0.8-1.5-1.3-2.2
			c-0.7-0.8-1.6-1.4-2.6-1.8c-1-0.4-2.1-0.5-3.1-0.3c-0.8,0.2-1.6,0.6-2.3,1.1c-0.5,0.3-0.9,0.8-1.2,1.3c-0.1,0.1-0.1,0.3-0.2,0.4
			C80,141.6,79.9,141.6,80,141.6z"/>
		<path class="st4" d="M81.4,136.9c0.5-0.3,1.1-0.5,1.7-0.6c1.4-0.3,2.9-0.1,4.2,0.6c1.3,0.7,2.3,1.8,3,3.1c0.5,1,0.7,1.7,0.8,1.7
			c0-0.2,0-0.3-0.1-0.5c-0.1-0.4-0.3-0.9-0.5-1.3c-0.6-1.4-1.7-2.5-3-3.3c-1.4-0.7-2.9-0.9-4.4-0.6c-0.4,0.1-0.9,0.3-1.3,0.5
			C81.7,136.7,81.5,136.8,81.4,136.9z"/>
		<path class="st5" d="M60.4,213.5c0.1,0-0.3,11.1-0.9,24.8s-1.3,24.8-1.5,24.8s0.3-11.1,0.9-24.8S60.2,213.5,60.4,213.5z"/>
		<path class="st12" d="M37.9,246.3c0.7-4.9,1.2-9.3,1.2-9.3l16.1,3.7l-0.7,2.6L67,230.7l2,0.2l6.3,6.5c0,0-5.5,11.6-8.7,16.1
			c-4.1,5.9-10.7,14.8-19.6,14C38.8,266.7,36.8,255.1,37.9,246.3z"/>
		<path class="st13" d="M46.7,249.2c1-1.3,2.2-2.4,3.6-3.2c1.3-1,2.7-1.8,4.2-2.3c0.1,0.1-1.8,1.2-3.9,2.8S46.8,249.3,46.7,249.2z"
			/>
		<path class="st12" d="M88.8,214.1l-5.5-2.8l-7.2,2.3l-3.6,3.3L67,230.7l-4.4,5.6l7.7,10.1l4.9-8.9c0,0,4.2-1.8,5.8-4.4
			s2.4-4,2.4-4s2.4-1.2,2.8-2.3c0.3-0.6,0.4-1.3,0.4-2l-1.2-1.8c0.1-0.8,0-1.6-0.4-2.3c-0.2-0.3-0.6-0.6-0.9-0.8c0,0,0.3-1.5-0.2-2
			c-1.1-0.6-2.2-1.1-3.3-1.5l0,0l2.4-1.4C83.1,215,88.5,216.6,88.8,214.1z"/>
		<path class="st13" d="M80.6,219.1c0,0.1,0.8,0.1,1.9,0.3s1.8,0.5,1.8,0.5c-0.5-0.4-1.1-0.6-1.8-0.7C81.9,219,81.2,219,80.6,219.1z
			"/>
		<path class="st13" d="M82.2,222.2c0.5,0.1,1.1,0.2,1.6,0.2c0.5,0.1,1.1,0.2,1.6,0.3C84.5,222.2,83.3,222,82.2,222.2z"/>
		<path class="st13" d="M84.6,227.1c0.1,0,0.1-0.3,0.1-0.7s-0.1-0.7-0.1-0.7s-0.1,0.3-0.1,0.7S84.5,227.1,84.6,227.1z"/>
		<path class="st13" d="M83.5,228.6c0.1-0.9,0.7-1.8,1.6-2.1c0,0-0.2-0.1-0.4,0c-0.3,0.1-0.6,0.3-0.9,0.6c-0.2,0.3-0.4,0.6-0.4,1
			C83.4,228.4,83.5,228.6,83.5,228.6z"/>
		<path class="st13" d="M79.2,224.1c0.1,0,0.3-0.6,1-1c0.4-0.2,0.9-0.3,1.3-0.3c0,0-0.2-0.1-0.4-0.1c-0.4,0-0.7,0.1-1,0.2
			c-0.3,0.2-0.6,0.4-0.7,0.7C79.2,224,79.2,224.1,79.2,224.1z"/>
		<path class="st13" d="M76.7,221.1c0.1,0,0.3-0.5,0.9-0.9c0.4-0.2,0.8-0.3,1.2-0.4c0,0-0.2-0.1-0.4-0.1c-0.7,0-1.3,0.4-1.6,1
			C76.7,220.9,76.7,221.1,76.7,221.1z"/>
		<path class="st13" d="M75,219.6c0,0,0-0.2,0.1-0.5c0.1-0.8,0.6-1.4,1.3-1.7c0.2-0.1,0.3-0.1,0.4-0.2c0,0-0.2-0.1-0.5,0
			c-0.4,0.1-0.7,0.4-1,0.7c-0.2,0.3-0.4,0.7-0.4,1.1C74.9,219.4,75,219.6,75,219.6z"/>
		<path class="st13" d="M77.3,216c0,0.1,1.2,0.1,2.6,0.3s2.4,0.7,2.5,0.6c-0.7-0.5-1.6-0.8-2.4-0.9c-0.6-0.1-1.2-0.1-1.8-0.1
			C77.8,215.9,77.6,215.9,77.3,216z"/>
	</g>
	<g id="freepik--Floor--inject-2">
		<path class="st5" d="M468.5,464.8c0,0.1-96.1,0.3-214.5,0.3S39.5,465,39.5,464.8s96-0.3,214.5-0.3S468.5,464.7,468.5,464.8z"/>
	</g>
	<g id="freepik--Plant--inject-2">
		<path class="st7" d="M382.3,378.3c-4-2.5-8.5-4-13.2-4.5c-2.2-0.2-4.5-0.2-6.2,1.1c-0.4,0.2-0.7,0.7-0.6,1.1
			c0.1,0.3,0.3,0.6,0.6,0.8C368.5,380.9,376,381.5,382.3,378.3"/>
		<path class="st7" d="M381.9,377.9c-3-2.2-5.9-4.7-8.5-7.5c-2.6-2.8-4.5-6.2-5.3-9.9c-0.3-1.1-0.2-2.3,0.4-3.3
			C375.3,362.6,380.6,369.4,381.9,377.9"/>
		<path class="st7" d="M382.2,378.2c-0.6-3.7-0.6-7.5,0.2-11.2c0.8-3.7,2.9-7,6-9.2c1.2,2.7,0.7,5.9-0.2,8.8
			c-1.3,4.4-3.3,8.6-5.9,12.4"/>
		<path class="st7" d="M388.9,390.1c-4,0.6-7.7,2.5-10.6,5.3c-3,2.8-5.1,6.4-6,10.4c4-0.2,7.3-3,9.8-6.2S386.2,393.1,388.9,390.1"/>
		<path class="st7" d="M390.3,392c-3.2-8.2-2.1-17.5,3-24.6C395.6,375.6,394.8,384.8,390.3,392"/>
		<path class="st7" d="M399.1,402.5c-7.5-0.5-14.6,3.6-18,10.4c-0.3,0.4-0.3,1-0.1,1.4c0.3,0.3,0.8,0.4,1.2,0.4
			c3.5-0.2,6.7-2.4,9.3-4.8S396.3,404.6,399.1,402.5"/>
		<path class="st7" d="M398.8,401.9c-1.9-6.1-2-12.6-0.3-18.7c0.7-2.4,1.8-5,4-6.1c0.2-0.1,0.4-0.2,0.6-0.1c0.2,0.1,0.3,0.2,0.4,0.4
			c0.7,1.7,1.1,3.5,0.9,5.4c-0.1,1.8-0.4,3.7-0.8,5.4c-0.7,3.3-1.1,6.9-2.9,9.8c-0.4,0.7-0.8,1.4-1.2,2.1c-0.4,0.7-0.4,1-0.7,1.6"/>
		<path class="st7" d="M422,405.4c-1.6-6.9,0-14.2,4.2-19.9c0.3-0.4,0.7-0.8,1.2-0.8c0.8,0.1,1,1.1,0.9,1.8
			C428,393.3,425.8,399.9,422,405.4"/>
		<path class="st7" d="M424.1,406.8c8.2,1.9,16.9,0.2,23.7-4.8c-4-2-8.5-2.5-12.8-1.6C430.7,401.4,426.8,403.3,424.1,406.8"/>
		<path class="st7" d="M425.9,402.5c4.5-7.3,13-12,21.5-12.4c-1,3.5-3.8,6.2-7,7.8c-3.3,1.5-6.8,2.5-10.3,3
			C428.7,401.1,426.8,401.4,425.9,402.5"/>
		<path class="st7" d="M422.5,381.3c1.3-4.1,2.3-8.3,2.8-12.6c0.5-4.3-0.4-8.7-2.5-12.5c-4.2,8.1-4.6,17.5-0.4,25.5"/>
		<path class="st7" d="M436.5,374.2c4.9-8.8,14.8-15.9,24.9-16.9C457.5,367,446.9,374.4,436.5,374.2"/>
		<path class="st7" d="M433.4,376c7.3,1.1,13.4,5.7,20.2,8.5c1.4,0.7,3,1,4.6,0.9c2,0,3.6-1.6,3.5-3.6c0-1-0.5-2-1.3-2.7
			c-1-0.9-2.1-1.6-3.3-2c-7.4-3.1-15.3-3.1-23.1-1.3"/>
		<path class="st7" d="M429.2,381c1.6,0.5,2.2,1.3,3.5,2.4c4.4,3.8,9.7,6.5,15.3,7.9c0.6,0.1,1.4,0.2,1.6-0.3s-0.1-1-0.4-1.4
			c-2.5-2.9-5.7-5.1-9.3-6.3c-3.5-1.3-6.6-2.9-10.8-2.6"/>
		<path class="st7" d="M424.5,350.3c6,5.5,14.1,8.3,22.3,7.6c0.4,0,0.7-0.1,1-0.4c0.6-0.6-0.1-1.5-0.8-2.1
			C440.4,350.3,432.5,348.2,424.5,350.3"/>
		<path class="st7" d="M430.1,348.2c8-5.9,18.3-7.6,27.8-4.6c-3.6,3.4-8.3,5.4-13.2,5.8C439.8,349.9,434.9,349.5,430.1,348.2"/>
		<path class="st7" d="M427.9,334.1c-0.6-6.5-0.2-11.7-0.7-18.2c0-0.5-0.1-1.2-0.6-1.4c-0.7-0.3-1.2,0.6-1.5,1.3
			c-1.9,6.2-0.9,12.9,2.8,18.2"/>
		<path class="st7" d="M427.4,334.8c4.3-2.8,7.9-6.3,10.8-10.5c2.1-2.9,3.9-6.4,3.5-10c-3,0.1-5.9,1.5-7.8,3.9c-1.9,2.4-3.2,5.1-4,8
			C429,329,428.4,332,427.4,334.8"/>
		<path class="st7" d="M438,331.9c9.7-3.6,18.8-8.9,26.6-15.7c-3.2-1.3-6.8-0.5-10,0.8c-7.2,2.7-13.2,8-16.7,14.9"/>
		<path class="st7" d="M430.4,338.4c4.9,0.7,9.9,0.7,14.8,0.1c4.8-0.8,9.3-2.7,13.8-4.6c0.4-0.1,0.7-0.4,0.9-0.7
			c0.1-0.4,0-0.9-0.3-1.2c-0.3-0.3-0.7-0.5-1.2-0.5c-4.9-1.4-10.1-0.7-14.9,0.9C438.9,333.9,434.5,335.9,430.4,338.4"/>
		<path class="st7" d="M402.3,350.5c-3.4-6.8-3.1-14.7-0.2-21.6c2,3.1,2.3,7.1,1.9,10.8s-1.5,7.5-1.6,11.2"/>
		<path class="st7" d="M388.9,343.8c-8.5-0.1-16.6,3.4-22.4,9.6c4.2,0.5,8.5-0.3,12.3-2.3c3.7-2,7.3-4.3,10.5-7"/>
		<path class="st7" d="M379.9,340.7c-4.1-0.3-8-0.8-12,0.4c-4,1.1-7.4,4-9.1,7.7c3.9,0.3,7.7-0.4,11.2-2.1
			C373.5,345,376.8,343,379.9,340.7"/>
		<path class="st7" d="M393.3,340.9c-3.7-2.4-7.5-4.9-11.8-5.9s-9.3-0.3-12.2,3c3.5,2,7.7,2.3,11.7,2.3s9,0,12.8,1.3"/>
		<path class="st7" d="M393.3,341.1c-6.3-6.2-8.7-17.3-6.2-25.8C392.1,322.9,394.3,332,393.3,341.1"/>
		<path class="st7" d="M410.6,323.5c1.2-2.8,2-5.7,3.1-8.5c1-2.9,2.5-5.5,4.4-7.8c2-2.3,4.8-3.7,7.8-4c-2,8.6-7.5,16-15.1,20.4"/>
		<path class="st7" d="M407.5,327.2c-2-2.7-4.2-6.4-6.9-8.4s-6.1-3.2-9.4-2.5C394.6,322.3,400.6,326.4,407.5,327.2"/>
		<path class="st7" d="M408.1,323.8c-1.4-3.2-2.5-6.6-3.1-10.1c-0.6-3.5-0.1-7.1,1.6-10.2c3.5,6.5,4.6,13.6,1.7,20.4"/>
		<path class="st7" d="M410.6,303.5c2-6.5,7.9-11.2,14.3-13.4c0.8-0.3,1.6-0.5,2.5-0.4c0.9,0.1,1.6,0.7,1.9,1.5
			c0.2,1.1-0.7,2.1-1.5,2.8C422.7,298.3,416.9,301.5,410.6,303.5"/>
		<path class="st7" d="M410.7,298.2c0.2-4.2,0.5-8.4,1.9-12.4s4-7.7,7.8-9.4c0.6,4.2-1.2,8.4-3.5,12s-5,7.1-6.3,11.1"/>
		<path class="st7" d="M410.6,301c-1.6-4.7-1.8-10.7-4.6-14.8c-2-2.9-5.1-4.8-6.9-7.9c-1,2.9-0.9,6.1,0.4,8.9
			c1.3,2.8,3.1,5.3,5.2,7.5C406.9,297,408.7,298.7,410.6,301"/>
		<path class="st5" d="M410.6,440.1c-0.1,0-0.2-31.5-0.2-70.4s0.1-70.4,0.2-70.4s0.2,31.5,0.2,70.4S410.8,440.1,410.6,440.1z"/>
		<path class="st5" d="M438.2,345.8c-0.4,0.2-0.8,0.3-1.2,0.5l-3.3,1.1c-2.8,0.9-6.5,2.3-10.6,4s-7.9,3.1-10.1,5
			c-0.9,0.7-1.5,1.6-2,2.7c-0.3,0.7-0.4,1.2-0.4,1.2c0-0.1,0-0.2,0-0.3c0-0.3,0.1-0.6,0.2-0.9c0.4-1.1,1.1-2.1,2-2.9
			c1.3-1.1,2.8-2,4.4-2.7c1.8-0.8,3.7-1.7,5.7-2.5c4.1-1.7,7.9-3,10.7-3.9c1.4-0.4,2.5-0.8,3.3-1
			C437.4,345.9,437.8,345.8,438.2,345.8z"/>
		<path class="st5" d="M447.2,323.6c-0.1,0.1-0.2,0.2-0.3,0.4l-1,0.9l-3.8,3.4l-12.6,11.2c-4.9,4.4-9.1,8.5-12.1,11.7
			c-1.5,1.6-2.6,2.9-3.4,3.8c-0.4,0.4-0.7,0.8-0.9,1s-0.3,0.4-0.3,0.4c0.1-0.1,0.2-0.3,0.3-0.4c0.2-0.3,0.5-0.6,0.9-1.1
			c0.8-1,1.9-2.3,3.3-3.9c3.8-4.1,7.8-8.1,12-11.8c4.9-4.4,9.4-8.3,12.7-11.1l3.9-3.3l1.1-0.9C446.9,323.7,447.1,323.7,447.2,323.6z
			"/>
		<path class="st5" d="M424.2,344c-0.1-0.1,0.9-2.4,1.9-5.4s1.5-5.5,1.6-5.5c-0.1,1.9-0.5,3.8-1.2,5.6c-0.4,1.3-0.9,2.6-1.5,3.8
			C424.8,343.1,424.6,343.5,424.2,344z"/>
		<path class="st5" d="M410.7,363c-0.3-0.3-0.5-0.6-0.8-0.9l-1.9-2.5c-1.6-2.1-3.9-5-6.4-8.2s-4.8-6-6.5-8.1l-2-2.5
			c-0.3-0.3-0.5-0.6-0.7-0.9c0.3,0.2,0.6,0.5,0.8,0.8c0.5,0.5,1.2,1.4,2.1,2.4c1.7,2,4.1,4.8,6.6,8s4.7,6.1,6.3,8.3
			c0.8,1.1,1.4,2,1.8,2.6C410.3,362.3,410.5,362.7,410.7,363z"/>
		<path class="st5" d="M404.6,355.3c-1.2-1.3-2.1-3-2.5-4.7c-0.5-1.5-0.7-3.2-0.6-4.8h0.2c-0.1,0.4-0.2,0.5-0.2,0.5s0-0.2,0-0.6h0.2
			c0.1,1.6,0.4,3.1,0.8,4.6C403.1,352.1,403.8,353.7,404.6,355.3z"/>
		<path class="st5" d="M396.8,345.5c-0.5-0.4-1.1-0.7-1.8-1c-1.6-0.5-3.3-0.6-4.9-0.4c-1.7,0.1-3.3,0.4-4.9,0.8
			c-0.7,0.2-1.3,0.4-2,0.5c0.6-0.4,1.3-0.6,2-0.8c1.6-0.5,3.3-0.8,5-0.9c1.7-0.2,3.4,0,5.1,0.5C395.9,344.4,396.5,344.9,396.8,345.5
			z"/>
		<path class="st5" d="M395,343.1c0,0.1-1-0.4-2.7-1c-4.4-1.5-9.1-1.8-13.6-1c-1.7,0.3-2.8,0.6-2.8,0.6c0.2-0.1,0.5-0.2,0.7-0.3
			c0.7-0.2,1.3-0.4,2-0.6c4.6-1,9.4-0.6,13.8,1c0.7,0.3,1.3,0.5,1.9,0.9C394.8,342.9,395,343.1,395,343.1z"/>
		<path class="st5" d="M410.6,333c-0.8-2.2-1.5-4.5-2-6.9c-0.7-2.3-1.2-4.6-1.5-7c0.8,2.2,1.5,4.5,2,6.9
			C409.7,328.3,410.2,330.6,410.6,333z"/>
		<path class="st5" d="M410.7,333c-0.6-1.4-1.4-2.8-2.2-4.1c-0.9-1.2-2-2.4-3.2-3.3c0.5,0.1,0.9,0.3,1.2,0.6
			c0.9,0.7,1.7,1.5,2.4,2.4C409.9,329.9,410.5,331.4,410.7,333z"/>
		<path class="st5" d="M410.6,423.4c0,0-0.1-0.8-0.5-2.1c-0.5-1.9-1.2-3.7-2.1-5.5c-3-5.7-6.8-11-11.2-15.7c-2.5-2.9-4.9-5.5-7-8.1
			c-1.8-2.3-3.5-4.7-5-7.2c-1-1.7-1.8-3.5-2.5-5.3c-0.2-0.7-0.4-1.2-0.5-1.5c-0.1-0.2-0.1-0.4-0.1-0.5c0,0,0.3,0.7,0.8,2
			c0.7,1.8,1.6,3.6,2.6,5.2c1.5,2.5,3.2,4.8,5,7.1c2.1,2.5,4.5,5.2,7,8.1c4.4,4.8,8.2,10.1,11.1,15.9c0.9,1.8,1.5,3.6,2,5.5
			c0.1,0.5,0.2,1,0.3,1.6C410.6,423,410.6,423.2,410.6,423.4z"/>
		<path class="st5" d="M435.5,395.2c-0.4,0.3-0.9,0.5-1.3,0.7c-1.2,0.7-2.3,1.4-3.4,2.2c-1.6,1.2-3.1,2.6-4.4,4.1
			c-1.6,1.6-3.2,3.6-4.8,5.6c-3.3,4.1-6.3,7.8-8.2,10.7c-0.9,1.4-1.6,2.7-2.1,3.5c-0.2,0.5-0.4,0.9-0.7,1.3c0,0,0-0.1,0.1-0.4
			s0.2-0.6,0.4-1c0.6-1.2,1.2-2.4,1.9-3.6c2.5-3.7,5.2-7.3,8.1-10.8c1.6-2,3.3-4,4.9-5.6c1.4-1.5,2.9-2.8,4.5-4
			c1.1-0.8,2.3-1.5,3.5-2.1c0.4-0.2,0.8-0.4,1-0.5S435.5,395.2,435.5,395.2z"/>
		<path class="st5" d="M436,404.4c-0.9,0.2-1.8,0.3-2.8,0.4c-2.2,0.2-4.4,0.7-6.5,1.3c-2.1,0.7-4.1,1.7-5.9,3.1c-1.4,1-2,1.9-2,1.9
			c0.1-0.2,0.2-0.5,0.4-0.6c0.4-0.5,0.9-1,1.4-1.5c1.7-1.5,3.8-2.6,5.9-3.2c2.2-0.6,4.4-1,6.6-1.2
			C434.1,404.3,435.1,404.3,436,404.4z"/>
		<path class="st5" d="M419.6,410c-0.1-0.1,1.1-2,2.1-4.5s1.1-4.8,1.3-4.8c0.1,0.5,0.1,1,0,1.5c-0.1,1.2-0.4,2.4-0.8,3.5
			c-0.4,1.1-1,2.2-1.6,3.2C420,409.6,419.7,410,419.6,410z"/>
		<path class="st5" d="M443.6,370.8c-0.1,0.1-0.3,0.2-0.4,0.2l-1.3,0.6c-0.6,0.2-1.3,0.5-2,1s-1.7,0.8-2.6,1.4l-1.5,0.9
			c-0.5,0.3-1,0.7-1.6,1c-1.1,0.7-2.2,1.5-3.4,2.4c-2.5,1.9-4.9,4-7.1,6.2c-2.2,2.3-4.2,4.7-6,7.3c-0.8,1.2-1.6,2.4-2.2,3.5
			c-0.3,0.6-0.7,1.1-0.9,1.6l-0.8,1.5c-0.5,1-0.9,1.9-1.3,2.7s-0.7,1.5-0.9,2.1l-0.5,1.3c-0.1,0.2-0.1,0.3-0.2,0.4
			c0-0.2,0.1-0.3,0.1-0.5c0.1-0.4,0.3-0.8,0.5-1.3c0.2-0.7,0.5-1.4,0.8-2.1c0.4-0.8,0.7-1.8,1.2-2.7l0.8-1.5
			c0.3-0.5,0.6-1.1,0.9-1.6c0.6-1.1,1.4-2.3,2.2-3.5c1.8-2.6,3.8-5.1,6-7.4c2.2-2.3,4.6-4.4,7.2-6.3c1.2-0.8,2.3-1.7,3.5-2.3
			c0.6-0.3,1.1-0.7,1.6-1l1.5-0.8c1-0.5,1.9-1,2.7-1.3s1.5-0.7,2.1-0.9l1.3-0.5C443.3,370.9,443.4,370.8,443.6,370.8z"/>
		<path class="st5" d="M423.9,384c0.2-0.6,0.6-1.2,1.1-1.6c1.2-1.1,2.8-1.6,4.4-1.7c1.6,0,3.1,0.3,4.6,0.9c0.6,0.2,1.2,0.5,1.7,0.9
			c-0.6-0.1-1.2-0.3-1.9-0.5c-1.4-0.5-2.9-0.8-4.5-0.8c-1.5,0-3,0.5-4.2,1.5C424.7,383.1,424.3,383.5,423.9,384z"/>
		<path class="st5" d="M420.9,387c0.6-1.3,1-2.6,1.2-4c0.1-1.4,0-2.8-0.3-4.2c0.3,0.3,0.4,0.7,0.5,1.2c0.3,1,0.3,2.1,0.2,3.1
			c-0.1,1-0.4,2.1-0.9,3C421.3,386.7,421,387,420.9,387z"/>
		<path class="st4" d="M388.9,427.9c0.7,12,4.3,24.3,9.9,36.7H423c5.3-12.3,8.7-24.5,9.3-36.7H388.9z"/>
		<path class="st9" d="M428.4,447.4c0,0.1-8,0.2-17.9,0.2s-17.8-0.1-17.8-0.2s8-0.2,17.8-0.2S428.4,447.2,428.4,447.4z"/>
		<path class="st9" d="M427.9,451.7c0,0.1-7.5,0.2-16.7,0.2s-16.7-0.1-16.7-0.2s7.5-0.2,16.7-0.2S427.9,451.6,427.9,451.7z"/>
	</g>
</g>
<g id="Calque_2">
	<rect x="151" y="106" class="st14" width="105" height="26"/>
	<text transform="matrix(1 0 0 1 151 115.3984)"><tspan x="0" y="0" class="st15 st16">SUPER </tspan><tspan x="38.9" y="0" class="st17 st15 st16">PRIX</tspan><tspan x="0" y="14.4" class="st18 st15 st16"> partir de </tspan><tspan x="63.6" y="14.4" class="st17 st15 st16">3 500 </tspan></text>
	<rect x="151.4" y="136.9" class="st14" width="171.8" height="21.4"/>
	<text transform="matrix(1 0 0 1 151.3784 146.3231)" class="st17 st15 st16">2 ANS DE GARANTIE MOTEUR</text>
	<rect x="148.3" y="168" class="st19" width="90.4" height="17"/>
</g>
<g id="Calque_3">
	<rect x="150.5" y="172" class="st14" width="85.8" height="12"/>
	<text transform="matrix(1 0 0 1 150.5047 181.3984)" class="st20 st15 st16">EUROPE OCAZ</text>
</g>
</svg>
