<?xml version="1.0" encoding="utf-8"?>
<!-- Generator: Adobe Illustrator 22.0.1, SVG Export Plug-In . SVG Version: 6.00 Build 0)  -->
<svg version="1.1" id="Calque_1" xmlns="http://www.w3.org/2000/svg" xmlns:xlink="http://www.w3.org/1999/xlink" x="0px" y="0px"
	 viewBox="0 0 500 500" style="enable-background:new 0 0 500 500;" xml:space="preserve">
<style type="text/css">
	.st0{fill:#F5F5F5;}
	.st1{fill:#F0F0F0;}
	.st2{fill:#E6E6E6;}
	.st3{fill:#37474F;}
	.st4{fill:#455A64;}
	.st5{opacity:0.2;fill:#FFFFFF;enable-background:new    ;}
	.st6{opacity:0.1;enable-background:new    ;}
	.st7{opacity:0.3;fill:#FFFFFF;enable-background:new    ;}
	.st8{opacity:0.4;fill:#FFFFFF;enable-background:new    ;}
	.st9{fill:#E92911;}
	.st10{opacity:0.1;fill:#FFFFFF;enable-background:new    ;}
	.st11{fill:#263238;}
	.st12{opacity:0.3;enable-background:new    ;}
	.st13{opacity:0.4;enable-background:new    ;}
	.st14{opacity:0.7;enable-background:new    ;}
	.st15{fill:#FFA8A7;}
	.st16{fill:#F28F8F;}
</style>
<g id="freepik--Floor--inject-2">
	<path class="st0" d="M417.1,244.5c-92.9-53.6-243-53.6-335.3,0S-10,385.1,82.9,438.8s243,53.6,335.3,0S510,298.2,417.1,244.5z"/>
</g>
<g id="freepik--Bricks--inject-2">
	<path class="st1" d="M103.1,148c0.6-0.3,1-0.1,1,0.6v6.1c0,0.7-0.4,1.3-1,1.7l-16.2,9.4c-0.6,0.3-1,0.1-1-0.6v-6.1
		c0-0.7,0.4-1.3,1-1.7L103.1,148z"/>
	<path class="st1" d="M103.1,169.1c0.6-0.3,1-0.1,1,0.6v6.1c0,0.7-0.4,1.3-1,1.7l-16.2,9.3c-0.6,0.3-1,0.1-1-0.6v-6.1
		c0-0.7,0.4-1.3,1-1.7L103.1,169.1z"/>
	<path class="st1" d="M113.8,152.2c0.6-0.3,1-0.1,1,0.6v6.1c0,0.7-0.4,1.3-1,1.7L97.7,170c-0.6,0.3-1,0.1-1-0.6v-6.1
		c0-0.7,0.4-1.4,1-1.7L113.8,152.2z"/>
	<path class="st1" d="M172.8,71.2c0.6-0.3,1-0.1,1,0.6v6.1c0,0.7-0.4,1.3-1,1.7l-16.2,9.3c-0.6,0.3-1,0.1-1-0.6v-6.1
		c0-0.7,0.4-1.3,1-1.7L172.8,71.2z"/>
	<path class="st1" d="M172.8,92.2c0.6-0.3,1-0.1,1,0.6v6.1c0,0.7-0.4,1.4-1,1.7l-16.2,9.3c-0.6,0.3-1,0.1-1-0.6v-6.1
		c0-0.7,0.4-1.3,1-1.7L172.8,92.2z"/>
	<path class="st1" d="M163.2,87.3c0.6-0.3,1-0.1,1,0.6V94c0,0.7-0.4,1.3-1,1.7L147,105c-0.6,0.3-1,0.1-1-0.6v-6.1
		c0-0.7,0.4-1.3,1-1.7L163.2,87.3z"/>
	<path class="st1" d="M183.5,75.4c0.6-0.3,1-0.1,1,0.6v6.1c0,0.7-0.4,1.3-1,1.7l-16.2,9.3c-0.6,0.3-1,0.1-1-0.6v-6.1
		c0-0.7,0.4-1.3,1-1.7L183.5,75.4z"/>
	<path class="st1" d="M418,73.8c-0.5-0.3-1-0.1-1,0.6v6.1c0,0.7,0.4,1.3,1,1.7l16.2,9.3c0.5,0.3,1,0.1,1-0.6v-6.1
		c0-0.7-0.4-1.4-1-1.7L418,73.8z"/>
	<path class="st1" d="M418,94.9c-0.5-0.3-1-0.1-1,0.6v6.1c0,0.7,0.4,1.3,1,1.7l16.2,9.3c0.5,0.3,1,0.1,1-0.6V106
		c0-0.7-0.4-1.4-1-1.7L418,94.9z"/>
	<path class="st1" d="M427.6,90c-0.5-0.3-1-0.1-1,0.6v6.1c0,0.7,0.4,1.3,1,1.7l16.2,9.3c0.5,0.3,1,0.1,1-0.6v-6.1
		c0-0.7-0.4-1.3-1-1.7L427.6,90z"/>
	<path class="st1" d="M407.2,78.1c-0.5-0.3-1-0.1-1,0.6v6.1c0,0.7,0.4,1.4,1,1.7l16.2,9.3c0.5,0.3,1,0.1,1-0.6v-6.1
		c0-0.7-0.4-1.3-1-1.7L407.2,78.1z"/>
	<path class="st1" d="M445.7,217.3c-0.5-0.3-1-0.1-1,0.6v6.1c0,0.7,0.4,1.3,1,1.7l16.2,9.3c0.5,0.3,1,0.1,1-0.6v-6.1
		c0-0.7-0.4-1.3-1-1.7L445.7,217.3z"/>
	<path class="st1" d="M445.7,238.4c-0.5-0.3-1-0.1-1,0.6v6.1c0,0.7,0.4,1.3,1,1.7l16.2,9.4c0.5,0.3,1,0.1,1-0.6v-6.1
		c0-0.7-0.4-1.3-1-1.7L445.7,238.4z"/>
	<path class="st1" d="M455.3,233.4c-0.5-0.3-1-0.1-1,0.6v6.1c0,0.7,0.4,1.4,1,1.7l16.2,9.3c0.5,0.3,1,0.1,1-0.6v-6.1
		c0-0.7-0.4-1.3-1-1.7L455.3,233.4z"/>
</g>
<g id="freepik--Shadows--inject-2">
	<path class="st2" d="M267.8,240.5l-65.5-37.8c-1.7-1-3.8-1-5.5,0l-65.1,37.8c-1.3,0.8-1.8,2.4-1,3.7c0.2,0.4,0.6,0.8,1,1l65.5,37.8
		c1.7,1,3.8,1,5.5,0l65.1-37.8c1.3-0.8,1.8-2.4,1-3.7C268.5,241.1,268.2,240.7,267.8,240.5z"/>
	<path class="st2" d="M169.9,296l-65.5-37.8c-1.7-1-3.8-1-5.5,0l-65.1,37.8c-1.3,0.8-1.8,2.4-1,3.7c0.2,0.4,0.6,0.8,1,1l65.5,37.8
		c1.7,1,3.8,1,5.5,0l65.1-37.8c1.3-0.8,1.7-2.5,0.9-3.8C170.6,296.5,170.3,296.2,169.9,296z"/>
	<path class="st2" d="M191.7,395.3l-65.5-37.8c-1.7-1-3.8-1-5.5,0l-65.1,37.8c-1.3,0.8-1.8,2.4-1,3.7c0.2,0.4,0.6,0.8,1,1l65.5,37.8
		c1.7,1,3.8,1,5.5,0l65.1-37.8c1.5,0,2.7-0.9,2.7-2.4C194.5,396.2,193.2,395,191.7,395.3z"/>
	<path class="st2" d="M292.8,426.3l-65.5-37.8c-1.7-1-3.8-1-5.5,0l-65.1,37.8c-1.3,0.8-1.8,2.4-1,3.7c0.2,0.4,0.6,0.8,1,1l65.5,37.8
		c1.7,1,3.8,1,5.5,0l65.1-37.8c1.3-0.8,1.7-2.4,1-3.7C293.6,426.9,293.2,426.6,292.8,426.3z"/>
	<path class="st2" d="M449.1,328.7c-34.5-19.9-90.2-19.9-124.4,0s-34.1,52.2,0.4,72.1s90.2,19.9,124.4,0S483.6,348.6,449.1,328.7z"
		/>
</g>
<g id="freepik--Boxes--inject-2">
	<polygon class="st3" points="264.7,184.1 231.5,164.8 225.3,161.2 225.3,161.2 199.8,146.4 134.6,184.1 134.7,243.3 199.6,281 
		264.9,243.3 	"/>
	<polygon class="st4" points="134.6,184.1 199.8,146.4 264.7,184.1 199.4,221.8 	"/>
	<polygon class="st4" points="199.4,221.8 199.6,281 134.7,243.3 134.6,184.1 	"/>
	<polygon class="st4" points="264.7,184.1 264.9,243.3 199.6,281 199.4,221.8 	"/>
	<polygon class="st5" points="134.6,184.1 199.8,146.4 264.7,184.1 199.4,221.8 	"/>
	<polygon class="st6" points="264.7,184.1 264.9,243.3 199.6,281 199.4,221.8 	"/>
	<polygon class="st7" points="225.3,161.2 237.9,168.5 172.7,206.2 160.1,198.9 	"/>
	<polygon class="st7" points="160.1,221.8 172.7,229.1 172.7,206.2 160.1,198.9 	"/>
	<polygon class="st7" points="160.1,258 172.7,265.3 172.7,250.2 160.1,242.9 	"/>
	<polygon class="st8" points="213.3,209.1 199.7,201.3 186.1,209.1 199.8,217 	"/>
	<polygon class="st3" points="101.7,201.8 76.2,216.6 76.2,216.6 73.5,218.2 36.9,239.5 36.7,298.8 102,336.5 166.8,298.8 
		167,239.5 	"/>
	<polygon class="st4" points="167,239.5 101.7,201.8 36.9,239.5 102.1,277.2 	"/>
	<polygon class="st4" points="102.1,277.2 102,336.5 166.8,298.8 167,239.5 	"/>
	<polygon class="st4" points="36.9,239.5 36.7,298.8 102,336.5 102.1,277.2 	"/>
	<polygon class="st8" points="167,239.5 101.7,201.8 36.9,239.5 102.1,277.2 	"/>
	<polygon class="st7" points="36.9,239.5 36.7,298.8 102,336.5 102.1,277.2 	"/>
	<polygon class="st7" points="76.2,216.6 63.6,224 128.9,261.7 141.5,254.3 	"/>
	<polygon class="st7" points="141.5,277.2 128.9,284.5 128.9,261.7 141.5,254.3 	"/>
	<polygon class="st7" points="141.5,313.4 128.9,320.8 128.9,305.6 141.5,298.3 	"/>
	<polygon class="st9" points="127.2,201.5 107.6,190.1 101.6,186.6 101.6,186.6 85,176.9 42.5,201.5 42.6,240 84.8,264.6 127.3,240 
			"/>
	<polygon class="st9" points="42.5,201.5 85,176.9 127.2,201.5 84.7,226 	"/>
	<polygon class="st9" points="84.7,226 84.8,264.6 42.6,240 42.5,201.5 	"/>
	<polygon class="st9" points="127.2,201.5 127.3,240 84.8,264.6 84.7,226 	"/>
	<polygon class="st8" points="42.5,201.5 85,176.9 127.2,201.5 84.7,226 	"/>
	<polygon class="st10" points="84.7,226 84.8,264.6 42.6,240 42.5,201.5 	"/>
	<polygon class="st7" points="127.2,201.5 127.3,240 84.8,264.6 84.7,226 	"/>
	<polygon class="st7" points="101.6,186.6 109.8,191.4 67.3,215.9 59.1,211.1 	"/>
	<polygon class="st7" points="59.1,226 67.3,230.8 67.3,215.9 59.1,211.1 	"/>
	<polygon class="st7" points="59.1,249.6 67.3,254.4 67.3,244.5 59.1,239.7 	"/>
	<polygon class="st8" points="120.8,201.2 112,196.1 103.1,201.2 112,206.3 	"/>
	<polygon class="st9" points="188.7,338.9 154.8,319.2 149.3,316 149.3,316 123.8,301.2 58.5,338.9 58.7,398.1 123.6,435.8 
		188.9,398.1 	"/>
	<polygon class="st9" points="58.5,338.9 123.8,301.2 188.7,338.9 123.4,376.6 	"/>
	<polygon class="st9" points="123.4,376.6 123.6,435.8 58.7,398.1 58.5,338.9 	"/>
	<polygon class="st9" points="188.7,338.9 188.9,398.1 123.6,435.8 123.4,376.6 	"/>
	<polygon class="st5" points="58.5,338.9 123.8,301.2 188.7,338.9 123.4,376.6 	"/>
	<polygon class="st6" points="188.7,338.9 188.9,398.1 123.6,435.8 123.4,376.6 	"/>
	<polygon class="st7" points="149.3,316 161.9,323.4 96.7,361.1 84,353.7 	"/>
	<polygon class="st7" points="84,376.6 96.7,383.9 96.7,361.1 84,353.7 	"/>
	<polygon class="st7" points="84,412.8 96.7,420.1 96.7,405 84,397.7 	"/>
	<polygon class="st8" points="95,337.8 81.3,329.9 67.8,337.8 81.4,345.7 	"/>
	<polygon class="st9" points="224.6,332.2 199.2,347 199.2,347 193.7,350.2 159.8,369.9 159.6,429.1 224.9,466.8 289.8,429.1 
		289.9,369.9 	"/>
	<polygon class="st9" points="289.9,369.9 224.6,332.2 159.8,369.9 225.1,407.6 	"/>
	<polygon class="st9" points="225.1,407.6 224.9,466.8 289.8,429.1 289.9,369.9 	"/>
	<polygon class="st9" points="159.8,369.9 159.6,429.1 224.9,466.8 225.1,407.6 	"/>
	<polygon class="st5" points="289.9,369.9 224.6,332.2 159.8,369.9 225.1,407.6 	"/>
	<polygon class="st10" points="159.8,369.9 159.6,429.1 224.9,466.8 225.1,407.6 	"/>
	<polygon class="st7" points="199.2,347 186.5,354.4 251.8,392 264.4,384.7 	"/>
	<polygon class="st7" points="264.4,407.6 251.8,414.9 251.8,392 264.4,384.7 	"/>
	<polygon class="st7" points="264.4,443.8 251.8,451.1 251.8,436 264.4,428.7 	"/>
	<polygon class="st3" points="224.7,292.4 204.5,304.2 204.5,304.2 198.3,307.8 173.2,322.3 173.1,369.3 224.9,399.2 276.3,369.3 
		276.5,322.3 	"/>
	<polygon class="st4" points="276.5,322.3 224.7,292.4 173.2,322.3 225,352.2 	"/>
	<polygon class="st4" points="225,352.2 224.9,399.2 276.3,369.3 276.5,322.3 	"/>
	<polygon class="st4" points="173.2,322.3 173.1,369.3 224.9,399.2 225,352.2 	"/>
	<polygon class="st8" points="276.5,322.3 224.7,292.4 173.2,322.3 225,352.2 	"/>
	<polygon class="st10" points="225,352.2 224.9,399.2 276.3,369.3 276.5,322.3 	"/>
	<polygon class="st7" points="173.2,322.3 173.1,369.3 224.9,399.2 225,352.2 	"/>
	<polygon class="st7" points="204.5,304.2 194.4,310 246.2,339.9 256.2,334.1 	"/>
	<polygon class="st7" points="256.2,352.2 246.2,358 246.2,339.9 256.2,334.1 	"/>
	<polygon class="st7" points="256.2,381 246.2,386.8 246.2,374.8 256.2,369 	"/>
	<polygon class="st8" points="235.6,342.4 224.8,336.1 214.1,342.4 224.9,348.6 	"/>
</g>
<g id="freepik--Character--inject-2">
	<path class="st4" d="M313.9,351.7c2.7,2.6,6.5,4,10.3,3.8c3.8-0.2,7.5-1.2,10.9-2.7c3.5-1.4,7.8-5.4,11.6-5.3c3.7,0,7.4-0.3,11-0.8
		c0.1-5-0.4-10-1.6-14.9l-17.5-0.5c-4.7,6.5-13.9,11.9-20.9,13.9c-2.2,0.6-3.8,2.4-4.3,4.6c0,0,0,0.1,0,0.1
		C313.4,350.5,313.6,351.1,313.9,351.7z"/>
	<path class="st11" d="M346.5,347.4c-3.8-0.1-8.1,3.9-11.6,5.3c-3.4,1.6-7.1,2.5-10.9,2.7c-3.8,0.2-7.5-1.1-10.3-3.8
		c-0.3-0.6-0.5-1.2-0.6-1.8c0,0,0-0.1,0-0.1c-0.2,0.8-0.2,1.6,0,2.3c0.1,0.6,0.3,1.2,0.6,1.8c2.7,2.6,6.5,4,10.3,3.8
		c3.8-0.2,7.4-1.2,10.9-2.7c3.5-1.4,7.8-5.4,11.6-5.4c3.6,0,7.2-0.2,10.8-0.6c0.1-0.8,0.1-1.6,0.2-2.4
		C353.9,347.1,350.2,347.3,346.5,347.4z"/>
	<path class="st11" d="M444.6,368c0,1.9-0.2,3.8-0.6,5.7c-0.6,3.3-2.5,6.3-5.2,8.3c-2.4,1.6-5.4,2-8.3,2.2c-2.6,0.3-5.1,0-7.6-0.8
		c-1.8-0.7-3.4-1.9-4.4-3.6c0,0,0,0.1,0,0.1c0.7,2.5,2.6,4.5,5.1,5.3c2.4,0.8,5,1.1,7.6,0.8c2.9-0.2,5.9-0.6,8.3-2.2
		c2.7-2,4.6-5,5.2-8.3c0.4-1.9,0.6-3.8,0.6-5.7c0-2.7,1.1-5.2,3.1-7c0.5-0.4,0.9-0.9,1.3-1.4c0.6-0.7,0.9-1.6,0.8-2.5
		c0-0.4-0.1-0.7-0.1-1c-0.7,0.8-2.3,2.7-2.7,3.1C445.7,362.8,444.6,365.4,444.6,368z"/>
	<path class="st4" d="M430.2,348.1c0.6,3.9,0.1,7.9-1.5,11.5c-1.6,3.6-3.6,7-6.1,10.1c-1.2,1.5-2.3,3-3.2,4.7
		c-0.9,1.6-1.2,3.5-0.9,5.4c1,1.7,2.6,3,4.4,3.6c2.4,0.8,5,1.1,7.6,0.8c2.9-0.2,5.9-0.6,8.3-2.2c2.7-2,4.6-5,5.2-8.3
		c0.4-1.9,0.6-3.8,0.6-5.7c0-2.7,1.1-5.2,3-7c0.4-0.4,2-2.3,2.7-3.1c-0.4-2.9-1.3-5.6-2.8-8.1L430.2,348.1z"/>
	<path class="st3" d="M365.9,184.7c0,0-34.8,61.6-34.4,77.8s4.2,69.8,4.2,69.8c9.1,5.3,22.2,1.3,22.2,1.3c1.1-51,8.2-52.8,5-71.5
		c8.6-15,26.8-38.9,26.8-38.9c3.3,28.6,8,51.9,10.2,62.2c0.8,3.7,2,7.3,3.6,10.7l25.2,53.9c8.9,4.6,20,0,20,0
		c-7-43.3-5.7-41.9-19.7-65.8c-0.2-45.1-2.3-98.8-2.3-98.8L365.9,184.7z"/>
	<path class="st12" d="M376.7,210.2c0.9,6.6,7.3,11.4,7.3,11.4c-9.3,11.4-15,24.5-16.1,32.2c9.2-14.2,21.7-30.6,21.7-30.6
		c-0.5-6.2-1-9-1-9C384,214.6,378,211.4,376.7,210.2z"/>
	<path class="st9" d="M345.6,115.8c-9.4-0.5-11.9,4.4-17.9,9.9c-6,5.6-17.2,16.4-17.2,16.4c0.9,7.6,5.6,14.2,12.4,17.6l20.8-15.3
		L345.6,115.8z"/>
	<path class="st13" d="M345.6,115.8c-9.4-0.5-11.9,4.4-17.9,9.9c-6,5.6-17.2,16.4-17.2,16.4c0.9,7.6,5.6,14.2,12.4,17.6l20.8-15.3
		L345.6,115.8z"/>
	<path class="st9" d="M420.7,196.9c-12.4,4.3-36.9,9.8-57.2-4.6c-2.5-1.8-3.6-5-2.7-7.9c0.8-2.6,1-2.7-1.9-14.6
		c-2.9-11.6-20.2-29.4-20.8-35.6s0.2-16.9,7.5-18.5c13.5-2.9,38.9,0,38.9,0l13.4,5.6c14.1,17.2,26.4,46.5,29.9,63.1
		C428.9,189.8,425.9,195.1,420.7,196.9z"/>
	<path class="st12" d="M420.7,196.9c-12.4,4.3-36.9,9.8-57.2-4.6c-2.5-1.8-3.6-5-2.7-7.9c0.8-2.6,1-2.7-1.9-14.6
		c-2.9-11.6-20.2-29.4-20.8-35.6s0.2-16.9,7.5-18.5c13.5-2.9,38.9,0,38.9,0l13.4,5.6c14.1,17.2,26.4,46.5,29.9,63.1
		C428.9,189.8,425.9,195.1,420.7,196.9z"/>
	<path class="st11" d="M327.3,93.6c-2.9-2.1-2.5-5.2-3.2-8.6s0.4-7.9,2.2-10.9c2-10.7,39.9-9.4,40.2-1.6c1.7-0.8,2.7,6.8,2.9,8.7
		c0.5,7.2,1.7,13.1-0.5,19.9c-1.2,3.5-2.9,7.2-6.2,8.8L327.3,93.6z"/>
	<path class="st9" d="M372.8,109.8c-2.4-0.9-7.6-1.1-7.6-1.1l4.5,7.1L372.8,109.8z"/>
	<path class="st14" d="M372.8,109.8c-2.4-0.9-7.6-1.1-7.6-1.1l4.5,7.1L372.8,109.8z"/>
	<path class="st9" d="M356.3,113.4c-3.1,1.2-6,3-8.5,5.2c-0.2,2.5-0.8,5-1.6,7.4c2.1-0.9,4-2,5.8-3.4c1.2,1.2,2.7,2.1,4.3,2.5
		c0.4-1.9,0.6-3.8,0.8-5.8C357.1,117.3,356.8,115.3,356.3,113.4z"/>
	<path class="st13" d="M356.3,113.4c-3.1,1.2-6,3-8.5,5.2c-0.2,2.5-0.8,5-1.6,7.4c2.1-0.9,4-2,5.8-3.4c1.2,1.2,2.7,2.1,4.3,2.5
		c0.4-1.9,0.6-3.8,0.8-5.8C357.1,117.3,356.8,115.3,356.3,113.4z"/>
	<path class="st13" d="M349,124.7c1-0.6,2-1.3,3-2c-0.9-0.9-1.7-1.8-2.3-2.9C349.7,121.4,349.5,123.1,349,124.7z"/>
	<path class="st15" d="M345.3,108.6c0,0,9,8.1,8.1,11.5c-0.4,1.3-0.6,4,3,5.3c4.8,1.9,12.1-2.8,15.1-6.9c0.7-0.7,1.2-1.7,1.3-2.8
		l-8.4-19.6L345.3,108.6z"/>
	<path class="st16" d="M362.9,106.3c0.6-3,0.6-6-0.1-9l-17.4,11.4c0,0,5.2,4.6,7.3,8.3c1.6-0.5,3.1-1.2,4.5-2.2
		C360,112.7,362,109.7,362.9,106.3z"/>
	<path class="st9" d="M357.1,125.6c1.7-1.4,3.3-6.2,3.3-6.2c4.8-2.3,9-5.6,12.5-9.6l3,5.2c-1.2,6-10,15.3-10,15.3l-2.5-5.5
		C361.6,126.2,359.2,126.5,357.1,125.6z"/>
	<path class="st13" d="M357.1,125.6c1.7-1.4,3.3-6.2,3.3-6.2c4.8-2.3,9-5.6,12.5-9.6l3,5.2c-1.2,6-10,15.3-10,15.3l-2.5-5.5
		C361.6,126.2,359.2,126.5,357.1,125.6z"/>
	<path class="st13" d="M359.1,126.1c1.5,0.2,3.1-0.3,4.3-1.2l-1.6-3.5C361.2,123.1,360.3,124.7,359.1,126.1z"/>
	<polygon class="st9" points="304.1,96.3 275.3,113 275.3,113 270.7,115.7 230.8,138.9 230.6,205.8 304.4,248.4 377.7,205.8 
		377.9,138.9 	"/>
	<polygon class="st9" points="377.9,138.9 304.1,96.3 230.8,138.9 304.6,181.5 	"/>
	<polygon class="st9" points="304.6,181.5 304.4,248.4 377.7,205.8 377.9,138.9 	"/>
	<polygon class="st9" points="230.8,138.9 230.6,205.8 304.4,248.4 304.6,181.5 	"/>
	<polygon class="st8" points="377.9,138.9 304.1,96.3 230.8,138.9 304.6,181.5 	"/>
	<polygon class="st10" points="304.6,181.5 304.4,248.4 377.7,205.8 377.9,138.9 	"/>
	<polygon class="st7" points="230.8,138.9 230.6,205.8 304.4,248.4 304.6,181.5 	"/>
	<polygon class="st7" points="275.3,113 261,121.3 334.8,163.9 349.1,155.6 	"/>
	<polygon class="st7" points="349.1,181.5 334.8,189.8 334.8,163.9 349.1,155.6 	"/>
	<polygon class="st7" points="349.1,222.5 334.8,230.8 334.8,213.6 349.1,205.3 	"/>
	<polygon class="st8" points="319.6,167.5 304.5,158.8 289.5,167.5 304.6,176.2 	"/>
	<path class="st15" d="M377.8,161.1l-0.4,21.2c-9,10.3-25.2,30.9-25.2,30.9c-4.3-2.4-9.7,0.4-11.9-1.6c-0.8-0.5-1.9-0.4-2.6,0.3
		c-0.6,0.6-0.8,1.6-0.5,2.4c0.3,0.8,0.9,1.5,1.7,1.9c0.8,0.4,1.6,0.7,2.5,0.8c0.8,0.1,1.6,0.2,2.3,0.5c0.8,0.2,1.4,0.8,1.7,1.6
		c-1.1,2.9-2.6,5.6-4.4,8.2l-4,2.3c1.5,1.2,3.1,2.5,5,2.6c1.7,0,3.3-1,4-2.5c1.2,1,3.3,0.9,4.8,0.6c1.5-0.4,2.9-1.2,4-2.3
		c3.2-2.7,5.5-6.3,6.7-10.3l28.6-18.8c4.7-3.1,7.8-8.1,8.5-13.6l2.4-19.8L377.8,161.1z"/>
	<path class="st9" d="M384.5,115.8c-8.1,13.9-8.1,37.3-8.6,52c11.3,10.3,26.6,4.2,26.6,4.2C407.9,130.3,408.8,117,384.5,115.8z"/>
	<path class="st13" d="M384.5,115.8c-8.1,13.9-8.1,37.3-8.6,52c11.3,10.3,26.6,4.2,26.6,4.2C407.9,130.3,408.8,117,384.5,115.8z"/>
	<path class="st5" d="M376.1,161.1c-0.1,2.4-0.1,4.6-0.2,6.7c11.3,10.3,26.6,4.2,26.6,4.2c0.3-2.2,0.6-4.4,0.8-6.4
		C399.3,166.5,385.7,168.9,376.1,161.1z"/>
	<path class="st15" d="M326.3,76.3c-1.3,9.7-0.6,19.5,1.9,29c0.5,2.1,1.3,4.1,2.3,6c1.1,1.9,2.7,3.4,4.7,4.2c2.5,0.9,5.2,0.5,7.8,0
		c4.7-0.8,9.6-1.7,13.7-4.2s7.4-7,7-11.8c2.4,1.5,5.3,1.6,7.9,0.4c2.5-1.4,4.1-3.9,4.3-6.7c0.2-2.7-1.4-5.7-4-6.2
		c-1.6-0.2-3.3,0.2-4.6,1.3c-1.2,1.1-2.3,2.3-3.2,3.7c-0.4,0.7-0.9,1.3-1.6,1.7c-0.7,0.5-1.5,0.5-2.2,0c-0.6-0.7-0.8-1.5-0.6-2.4
		l0.3-6.1c0-1-0.5-1.8-1.3-2.3c-1.3-0.7-2.2-1.8-2.8-3.1c-0.4-1.2-0.7-2.4-0.8-3.7c0-0.8-0.7-1.5-1.5-1.5c-0.2,0-0.4,0-0.6,0.1
		C344.9,78.3,334.7,78.5,326.3,76.3z"/>
	<polygon class="st16" points="339.7,91.1 334.2,100.2 340.7,101.5 	"/>
	<path class="st16" d="M338.7,109l6.7-1.8c-0.8-1.6-2.6-2.5-4.4-2.2C339.4,105.4,338.5,107.3,338.7,109z"/>
	<path class="st12" d="M338.7,109l6.7-1.8c-0.8-1.6-2.6-2.5-4.4-2.2C339.4,105.4,338.5,107.3,338.7,109z"/>
	<path class="st11" d="M333.1,86.7l-4.8-1.6c0.6-0.9,1.7-1.4,2.8-1.1C332.3,84.5,333,85.5,333.1,86.7z"/>
	<path class="st11" d="M344.1,85.8l4.8-1.7c-0.6-0.9-1.8-1.3-2.8-1.1C344.9,83.5,344.1,84.6,344.1,85.8z"/>
	<path class="st16" d="M343.9,105.5c-0.7,0.2-2.6,1-2.7,2.8l4.2-1.2C345.1,106.5,344.5,105.9,343.9,105.5z"/>
	<path class="st11" d="M347.6,89.8c0.3-0.2,0.7-0.4,1.1-0.6c-0.9-0.4-1.9-0.2-2.6,0.4c-0.7,0.6-1,1.6-0.7,2.6c1.5-1,3.2-1.5,4.9-1.4
		C349.6,90,348.6,89.6,347.6,89.8z"/>
	<path class="st11" d="M330.9,90.5c-0.3-0.2-0.7-0.4-1.1-0.6c0.9-0.4,1.9-0.2,2.6,0.4c0.7,0.6,1,1.6,0.7,2.6c-1.4-1-3.2-1.5-4.9-1.4
		C328.9,90.7,329.9,90.3,330.9,90.5z"/>
	<path class="st4" d="M327.6,70.5l3.3-8.5c1.6-4.1,5.2-7.1,9.5-7.8c8.2-1.2,17.6-0.4,24.4,3.6c3.5,2.1,5.7,5.9,5.7,10
		c0.2,4.3-0.2,8.5-1.3,12.7c-3.1-1.6-9.3-3.9-9.3-3.9L327.6,70.5z"/>
	<path class="st9" d="M359.9,76.6c-5,2.5-10.3,5.1-15.9,5c-6.2-0.1-12.1-3.3-18.3-2.8c-1.5,0.1-9.1,2.8-9.8-0.9
		c-0.2-1.2,2-3.1,2.4-3.4c2.8-1.9,6.1-3,9.3-4.1C337.8,66.9,350,72.2,359.9,76.6z"/>
	<path class="st12" d="M359.9,76.6c-5,2.5-10.3,5.1-15.9,5c-6.2-0.1-12.1-3.3-18.3-2.8c-1.5,0.1-9.1,2.8-9.8-0.9
		c-0.2-1.2,2-3.1,2.4-3.4c2.8-1.9,6.1-3,9.3-4.1C337.8,66.9,350,72.2,359.9,76.6z"/>
	<path class="st5" d="M343.5,79.3c-3.3-0.5-6.4-1.6-9.6-2.4c-3.2-0.9-6.5-1.1-9.8-0.7c-1.6,0.4-3.1,0.7-4.7,0.9
		c-1.1,0.1-2.1-0.2-3-0.8c-0.3,0.4-0.5,0.9-0.5,1.5c0.7,3.7,8.4,1.1,9.8,0.9c6.2-0.6,12.1,2.7,18.3,2.8c3.9-0.1,7.8-1.1,11.4-2.8
		C351.4,79.7,347.4,79.9,343.5,79.3z"/>
</g>
</svg>
