<?xml version="1.0" encoding="utf-8"?>
<!-- Generator: Adobe Illustrator 22.0.1, SVG Export Plug-In . SVG Version: 6.00 Build 0)  -->
<svg version="1.1" xmlns="http://www.w3.org/2000/svg" xmlns:xlink="http://www.w3.org/1999/xlink" x="0px" y="0px"
	 viewBox="0 0 500 500" style="enable-background:new 0 0 500 500;" xml:space="preserve">
<style type="text/css">
	.st0{fill:#E92913;}
	.st1{opacity:0.7;fill:#FFFFFF;enable-background:new    ;}
	.st2{opacity:0.2;}
	.st3{fill:none;stroke:#000000;stroke-linejoin:round;}
	.st4{fill:#E92913;stroke:#263238;stroke-miterlimit:10;}
	.st5{fill:#C9C9C9;stroke:#263238;stroke-miterlimit:10;}
	.st6{fill:#FFFFFF;stroke:#263238;stroke-miterlimit:10;}
	.st7{fill:none;stroke:#263238;stroke-miterlimit:10;}
	.st8{fill:#263238;stroke:#263238;stroke-miterlimit:10;}
	.st9{fill:none;stroke:#E92913;stroke-width:5;stroke-miterlimit:10;}
	.st10{fill:none;stroke:#E92913;stroke-miterlimit:10;}
	.st11{fill:#263238;}
	.st12{fill:#263238;stroke:#263238;stroke-linecap:round;stroke-linejoin:round;}
	.st13{fill:#FFFFFF;stroke:#263238;stroke-linecap:round;stroke-linejoin:round;}
	.st14{fill:#B5B5B5;stroke:#263238;stroke-miterlimit:10;}
	.st15{fill:#B5B5B5;stroke:#263238;stroke-linecap:round;stroke-linejoin:round;}
	.st16{fill:none;stroke:#263238;stroke-linecap:round;stroke-linejoin:round;}
	.st17{fill:none;stroke:#263238;stroke-width:2;stroke-linecap:round;stroke-linejoin:round;}
	.st18{fill:#FFFFFF;}
	.st19{fill:none;}
	.st20{stroke:#000000;stroke-width:0.5;stroke-miterlimit:10;}
	.st21{font-family:'RoundedElegance-Regular';}
	.st22{font-size:18px;}
</style>
<g id="Calque_1">
	<g id="freepik--background-simple--inject-2">
		<path class="st0" d="M441.7,104.5c-11.6-15.4-26.1-28.4-42.7-38.2c-27.5-16.4-58.6-26.2-90.1-31.7c-99.6-17.2-154.1,1-195.3,30.6
			C86.4,85,77.8,126.8,69.7,157.2c-4.5,17.1-8.5,34.3-14.2,51.1c-8.7,26-28.6,47-35.2,73.8c-7,28.3-6.4,58.1,3.2,85.7
			C42.8,422.4,75.3,454,150,464.5c40,5.6,72.1-10.9,105.3-30.8c20.5-12.3,41.7-23.3,65.1-28.3c24.8-5.3,50.3-6,75.2-10.9
			c55.6-11,73.5-63.6,80.7-113.5C485.1,220.7,479.6,154.7,441.7,104.5z"/>
		<path class="st1" d="M441.7,104.5c-11.6-15.4-26.1-28.4-42.7-38.2c-27.5-16.4-58.6-26.2-90.1-31.7c-99.6-17.2-154.1,1-195.3,30.6
			C86.4,85,77.8,126.8,69.7,157.2c-4.5,17.1-8.5,34.3-14.2,51.1c-8.7,26-28.6,47-35.2,73.8c-7,28.3-6.4,58.1,3.2,85.7
			C42.8,422.4,75.3,454,150,464.5c40,5.6,72.1-10.9,105.3-30.8c20.5-12.3,41.7-23.3,65.1-28.3c24.8-5.3,50.3-6,75.2-10.9
			c55.6-11,73.5-63.6,80.7-113.5C485.1,220.7,479.6,154.7,441.7,104.5z"/>
	</g>
	<g id="freepik--Window--inject-2">
		<g class="st2">
			<polygon class="st3" points="477.5,59.1 286.8,59.1 280,75.3 477.5,75.3 			"/>
			<polygon class="st3" points="477.5,75.3 286.8,75.3 280,91.6 477.5,91.6 			"/>
			<polygon class="st3" points="477.5,91.6 286.8,91.6 280,107.8 477.5,107.8 			"/>
			<polygon class="st3" points="477.5,107.8 286.8,107.8 280,124.1 477.5,124.1 			"/>
			<polygon class="st3" points="477.5,124.1 286.8,124.1 280,140.3 477.5,140.3 			"/>
			<polygon class="st3" points="477.5,140.3 286.8,140.3 280,156.5 477.5,156.5 			"/>
			<polygon class="st3" points="477.5,156.5 286.8,156.5 280,172.8 477.5,172.8 			"/>
			<polygon class="st3" points="477.5,172.8 286.8,172.8 280,189 477.5,189 			"/>
			<polygon class="st3" points="477.5,189 286.8,189 280,205.2 477.5,205.2 			"/>
			<polygon class="st3" points="477.5,205.2 286.8,205.2 280,221.5 477.5,221.5 			"/>
			<polygon class="st3" points="477.5,221.5 286.8,221.5 280,237.7 477.5,237.7 			"/>
			<polygon class="st3" points="477.5,237.7 286.8,237.7 280,253.9 477.5,253.9 			"/>
			<polygon class="st3" points="477.5,253.9 286.8,253.9 280,270.2 477.5,270.2 			"/>
			<polygon class="st3" points="477.5,270.2 286.8,270.2 280,286.4 477.5,286.4 			"/>
			<polygon class="st3" points="477.5,286.4 286.8,286.4 280,302.6 477.5,302.6 			"/>
			<polygon class="st3" points="477.5,302.6 286.8,302.6 280,318.9 477.5,318.9 			"/>
			<rect x="278" y="53.7" class="st3" width="203.6" height="270.6"/>
		</g>
	</g>
	<g id="freepik--Lamp--inject-2">
		<g class="st2">
			<rect x="37.3" y="421.9" class="st3" width="68.4" height="36.1"/>
			<rect x="65.9" y="435.7" class="st3" width="11.1" height="5.4"/>
			<rect x="33.8" y="374.9" class="st3" width="75.4" height="92.4"/>
			<rect x="37.3" y="379.6" class="st3" width="68.4" height="36.1"/>
			<rect x="65.9" y="393.5" class="st3" width="11.1" height="5.4"/>
			<rect x="52.1" y="369.1" class="st3" width="26.9" height="5.9"/>
			<rect x="62" y="351" class="st3" width="4.7" height="18.1"/>
			<rect x="38.7" y="308.9" class="st3" width="50.3" height="42.1"/>
		</g>
	</g>
	<g id="freepik--Couch--inject-2">
		<g class="st2">
			<path class="st3" d="M388.9,423.6v-77.2c0-6.1-5-11.1-11.1-11.1c0,0,0,0,0,0H276.4v89.1"/>
			<path class="st3" d="M277.2,335.3H173.9c-6.1,0-11.1,5-11.1,11.1c0,0,0,0,0,0v77.2"/>
			<path class="st3" d="M398.9,431v26H276.4v-33.4h115.1C395.6,423.6,398.9,426.9,398.9,431C398.9,431,398.9,431,398.9,431z"/>
			<path class="st3" d="M277.4,423.6H160.2c-4.1,0-7.4,3.3-7.4,7.4c0,0,0,0,0,0v26h124.5"/>
			<polyline class="st3" points="152.8,467.8 152.8,456.9 399.1,456.9 399.1,467.8 			"/>
			<path class="st3" d="M162.8,379.3c-1.4-1.5-3.3-2.3-5.4-2.3h-22.3c-4.1,0-7.4,3.3-7.4,7.4c0,0,0,0,0,0v82.9"/>
			<path class="st3" d="M421.4,466.8v-82.3c0-4.1-3.3-7.4-7.4-7.4h-22.3c-1,0-1.9,0.2-2.8,0.5"/>
		</g>
	</g>
	<g id="freepik--Certification--inject-2">
		<path class="st4" d="M438.5,52.1v241c0,6.1-4.9,11-11,11h-348c-6.1,0-11-4.9-11-11v-241c0-5.5,4.5-10,10-10h350
			C434,42.1,438.5,46.5,438.5,52.1L438.5,52.1z"/>
		<path class="st5" d="M438.5,52.1v20.8h-370V52.1c0-5.5,4.5-10,10-10h350C434,42.1,438.5,46.5,438.5,52.1z"/>
		<path class="st6" d="M306.9,68.8H109.5c-1.9,0-3.4-1.5-3.3-3.4l0,0c0-1.9,1.5-3.4,3.3-3.4h197.4c1.9,0,3.4,1.5,3.4,3.4l0,0
			C310.3,67.3,308.8,68.8,306.9,68.8z"/>
		<line class="st7" x1="419.7" y1="62.8" x2="432.5" y2="62.8"/>
		<line class="st7" x1="419.7" y1="65.5" x2="432.5" y2="65.5"/>
		<line class="st7" x1="419.7" y1="68.2" x2="432.5" y2="68.2"/>
		<path class="st8" d="M438.5,52.1v6h-370v-6c0-5.5,4.5-10,10-10h350C434,42.1,438.5,46.5,438.5,52.1z"/>
		<path class="st6" d="M401.6,50.4c0-1.7-1.3-3.1-3-3.1c-1.7,0-3.1,1.3-3.1,3c0,1.7,1.3,3.1,3,3.1c0,0,0,0,0.1,0
			C400.2,53.4,401.6,52.1,401.6,50.4C401.6,50.4,401.6,50.4,401.6,50.4z"/>
		<path class="st6" d="M414.2,50.4c0-1.7-1.3-3.1-3-3.1c-1.7,0-3.1,1.3-3.1,3s1.3,3.1,3,3.1c0,0,0,0,0,0
			C412.8,53.4,414.2,52.1,414.2,50.4C414.2,50.4,414.2,50.4,414.2,50.4z"/>
		<path class="st6" d="M426.9,50.4c0-1.7-1.3-3.1-3-3.1c-1.7,0-3.1,1.3-3.1,3s1.3,3.1,3,3.1c0,0,0,0,0,0
			C425.5,53.4,426.9,52.1,426.9,50.4C426.9,50.4,426.9,50.4,426.9,50.4z"/>
		<rect x="89.4" y="83.1" class="st6" width="329.1" height="206"/>
		<rect x="97.8" y="91.7" class="st9" width="312.3" height="188.9"/>
		<rect x="105.8" y="101.1" class="st10" width="296.4" height="170"/>
		<path class="st11" d="M204.4,121v1.8h-2.1v-1.9c0-1.8-0.7-2.8-2.3-2.8s-2.3,1-2.3,2.8v10.3c0,1.7,0.7,2.8,2.3,2.8s2.3-1.1,2.3-2.8
			v-2.5h2.1v2.4c0,2.9-1.4,4.9-4.4,4.9s-4.4-1.9-4.4-4.9v-10c0-2.9,1.4-4.9,4.4-4.9S204.4,118.1,204.4,121z"/>
		<path class="st11" d="M213.3,124.9v1.9h-4.8v6.9h5.8v2h-8v-19.4h8v2h-5.8v6.6L213.3,124.9z"/>
		<path class="st11" d="M220.7,116.3c3.1,0,4.3,1.6,4.3,4.4v1.6c0,2.1-0.8,3.5-2.4,4c1.8,0.5,2.4,2,2.4,4.1v3
			c-0.1,0.8,0.1,1.6,0.4,2.3h-2.2c-0.3-0.7-0.4-1.5-0.4-2.4v-3.1c0-2.2-1-2.9-2.8-2.9h-1.5v8.3h-2.2v-19.4H220.7z M220.1,125.5
			c1.7,0,2.8-0.6,2.8-2.7v-1.9c0-1.7-0.6-2.7-2.2-2.7h-2.1v7.2L220.1,125.5z"/>
		<path class="st11" d="M230.1,135.7v-17.4h-3.6v-2h9.3v2h-3.6v17.4L230.1,135.7z"/>
		<path class="st11" d="M239.5,116.3v19.4h-2.2v-19.4H239.5z"/>
		<path class="st11" d="M248.3,125.3v2h-4.5v8.4h-2.2v-19.4h7.7v2h-5.6v7.1L248.3,125.3z"/>
		<path class="st11" d="M253.3,116.3v19.4h-2.2v-19.4H253.3z"/>
		<path class="st11" d="M264.1,121v1.8H262v-1.9c0-1.8-0.7-2.8-2.3-2.8s-2.3,1-2.3,2.8v10.3c0,1.7,0.7,2.8,2.3,2.8s2.3-1.1,2.3-2.8
			v-2.5h2v2.4c0,2.9-1.4,4.9-4.4,4.9s-4.4-1.9-4.4-4.9v-10c0-2.9,1.4-4.9,4.4-4.9S264.1,118.1,264.1,121z"/>
		<path class="st11" d="M268.2,131.8l-0.8,3.9h-2l3.7-19.4h3.1l3.7,19.4h-2.1l-0.8-3.9H268.2z M268.5,129.9h4.3l-2.2-11.2
			L268.5,129.9z"/>
		<path class="st11" d="M280.6,135.7v-17.4H277v-2h9.3v2h-3.6v17.4L280.6,135.7z"/>
		<path class="st11" d="M290,116.3v19.4h-2.2v-19.4H290z"/>
		<path class="st11" d="M292,121c0-3,1.5-4.9,4.4-4.9s4.5,1.9,4.5,4.9v10c0,2.9-1.5,4.9-4.5,4.9S292,134,292,131V121z M294.1,131.1
			c0,1.8,0.8,2.8,2.3,2.8s2.3-1,2.3-2.8v-10.3c0-1.8-0.7-2.8-2.3-2.8s-2.3,1-2.3,2.8V131.1z"/>
		<path class="st11" d="M304.9,135.7H303v-19.4h2.7l4.5,14v-14h1.9v19.4h-2.2l-5-15.7L304.9,135.7z"/>
		<line class="st7" x1="181.2" y1="146.5" x2="330.1" y2="146.5"/>
		<line class="st7" x1="382.1" y1="165.5" x2="392.4" y2="165.5"/>
		<line class="st7" x1="294" y1="165.5" x2="376.7" y2="165.5"/>
		<line class="st7" x1="246.1" y1="165.5" x2="289.2" y2="165.5"/>
		<line class="st7" x1="181.9" y1="165.5" x2="241.7" y2="165.5"/>
		<line class="st7" x1="143.1" y1="165.5" x2="175.7" y2="165.5"/>
		<line class="st7" x1="119" y1="165.5" x2="138.4" y2="165.5"/>
		<line class="st7" x1="242.8" y1="174.6" x2="392.4" y2="174.6"/>
		<line class="st7" x1="126.8" y1="174.6" x2="238.1" y2="174.6"/>
		<line class="st7" x1="119" y1="174.6" x2="122.4" y2="174.6"/>
		<line class="st7" x1="381" y1="183.7" x2="392.4" y2="183.7"/>
		<line class="st7" x1="319.7" y1="183.7" x2="375.6" y2="183.7"/>
		<line class="st7" x1="235.2" y1="183.7" x2="315.4" y2="183.7"/>
		<line class="st7" x1="222.9" y1="183.7" x2="230.5" y2="183.7"/>
		<line class="st7" x1="119" y1="183.7" x2="216.4" y2="183.7"/>
		<line class="st7" x1="346.9" y1="192.9" x2="392.4" y2="192.9"/>
		<line class="st7" x1="184.4" y1="192.9" x2="342.6" y2="192.9"/>
		<line class="st7" x1="169.9" y1="192.9" x2="178.6" y2="192.9"/>
		<line class="st7" x1="119" y1="192.9" x2="165.2" y2="192.9"/>
		<line class="st7" x1="364" y1="202" x2="392.4" y2="202"/>
		<line class="st7" x1="242.5" y1="202" x2="358.2" y2="202"/>
		<line class="st7" x1="196" y1="202" x2="237" y2="202"/>
		<line class="st7" x1="131.1" y1="202" x2="190.6" y2="202"/>
		<line class="st7" x1="119" y1="202" x2="127.5" y2="202"/>
		<polygon class="st12" points="130,242.1 139.4,266.5 143.9,255.5 155,260 144.2,237.1 		"/>
		<polygon class="st12" points="126.7,236.8 115.3,260.3 126.5,256.1 130.7,267.2 140.1,243.7 		"/>
		<path class="st4" d="M154.9,230.9c0-0.9,1.9-1.9,1.8-2.8s-2.3-1.3-2.5-2.1s1.3-2.4,0.9-3.2s-2.5-0.6-3-1.4s0.6-2.6,0-3.3
			s-2.6,0.1-3.3-0.4s-0.2-2.7-0.9-3.2s-2.5,0.9-3.3,0.5s-0.9-2.5-1.8-2.8s-2.1,1.5-3,1.4s-1.6-2.2-2.5-2.2s-1.6,2.1-2.5,2.2
			s-2.2-1.6-3-1.4s-1,2.4-1.8,2.8s-2.5-1-3.3-0.5s-0.2,2.6-0.9,3.2s-2.7-0.2-3.3,0.4s0.5,2.6,0,3.3s-2.7,0.6-3,1.4s1.2,2.3,0.9,3.2
			s-2.4,1.3-2.5,2.1s1.8,1.9,1.8,2.8s-1.9,1.9-1.8,2.8s2.3,1.3,2.5,2.1s-1.3,2.4-0.9,3.1s2.5,0.6,3,1.4s-0.6,2.6,0,3.3
			s2.6-0.1,3.3,0.4s0.2,2.7,0.9,3.2s2.5-0.9,3.3-0.5s0.9,2.5,1.8,2.8s2.1-1.5,3-1.4s1.6,2.2,2.5,2.2s1.6-2.1,2.5-2.2s2.2,1.6,3,1.4
			s1-2.4,1.8-2.8s2.5,1,3.3,0.5s0.2-2.6,0.9-3.2s2.7,0.2,3.3-0.4s-0.5-2.6,0-3.3s2.6-0.6,3-1.4s-1.2-2.3-0.9-3.2s2.4-1.3,2.5-2.1
			S154.9,231.8,154.9,230.9z"/>
		<circle class="st12" cx="137.5" cy="230.9" r="12.1"/>
		<polygon class="st0" points="137.5,222.6 139.4,228.3 145.4,228.3 140.5,231.9 142.4,237.6 137.5,234.1 132.7,237.6 134.5,231.9 
			129.6,228.3 135.7,228.3 		"/>
		<line class="st7" x1="169.1" y1="225.1" x2="215.1" y2="225.1"/>
		<line class="st7" x1="169.1" y1="236.1" x2="215.1" y2="236.1"/>
		<circle class="st10" cx="366.7" cy="234.1" r="17.1"/>
		<circle class="st0" cx="366.7" cy="234.1" r="11.6"/>
	</g>
	<g id="freepik--Plant--inject-2">
		<path class="st4" d="M423,426.5c0,0-3.5-6-5.2-9.2c-1.2-2.4-2.3-4.8-3.2-7.2c0,0,4.2,2.5,5.5,3.5s6.5,7.2,6.5,7.2l1.5-1.8
			l-1.8-5.8l5.8,6.5l2.8-11.8l4.2,11.2l8-10l0.5,10l9.8-7.8l-3.5,12.2L450,429h-26.8L423,426.5z"/>
		<path class="st4" d="M421.5,426.5c0,0-2.2-1-6-5.5c-2.4-2.9-4.6-6-6.5-9.2c0,0,8.5,4.8,11.5,7c2.6,2.2,4.9,4.6,7,7.2
			c0,0-2.5-6.2-2.8-9.2s-0.5-9.5-0.5-9.5s7.2,7.2,7.8,9.2s3.2,8.8,3.2,8.8c0.8-3,1.5-6.1,2-9.2c0.5-3.8,4.5-9.8,4.5-9.8
			s0.5,4.2,0.8,8.5s-2.2,12.2-2.2,12.2s3.2-7.8,6.5-11.5c2.6-2.8,5.3-5.4,8.2-7.8c0,0-2.5,7.8-3.5,11.2c-0.9,2.7-2.2,5.3-3.8,7.8
			c2.3-3,4.8-5.8,7.5-8.5c2.4-2,5-3.7,7.8-5.2c0,0-2.8,5.2-4.8,8.2c-1.9,2.6-3.9,5.1-6,7.5h-30.8V426.5z"/>
		<polygon class="st6" points="456.7,426 455,441.2 452,467.3 420.7,467.3 417.7,441.2 416,426 		"/>
		<polygon class="st4" points="455,441.2 452,467.3 420.7,467.3 417.7,441.2 		"/>
		<circle class="st11" cx="423.5" cy="447" r="1.5"/>
		<circle class="st11" cx="434.5" cy="447" r="1.5"/>
		<circle class="st11" cx="427.8" cy="454.8" r="1.5"/>
		<circle class="st11" cx="441" cy="454.8" r="1.5"/>
		<circle class="st11" cx="449.8" cy="454.8" r="1.5"/>
		<circle class="st11" cx="445.5" cy="447" r="1.5"/>
		<circle class="st11" cx="423.5" cy="461" r="1.5"/>
		<circle class="st11" cx="434.5" cy="461" r="1.5"/>
		<circle class="st11" cx="445.5" cy="461" r="1.5"/>
	</g>
	<g id="freepik--Character--inject-2">
		
			<ellipse transform="matrix(2.443132e-03 -1 1 2.443132e-03 -36.8296 559.7596)" class="st13" cx="262.1" cy="298.3" rx="13.8" ry="9"/>
		<path class="st12" d="M273.5,263.8c0,0-4.9,2.8-9.5-0.2s-1.4-4.4-0.5-6.3s-1.4-2.3-1.9-4.9s1.2-4.6,2.1-4.9s0.7-2.8,0.7-5.3
			s3-4.9,4.4-4.9s2.3-1.9,3.2-4.2s2.8-4.4,6-3s4.9,1.4,6.5-0.9s5.6-2.8,7-1.6s2.1,3.5,4.9,1.2s6.3-1.9,7.9-0.2s1.4,3.5,4,2.6
			s6.7,0.5,7.6,3.2s6,5.8,7.9,5.1s5.1,0,3.5,3.5s0.2,5.8,1.6,5.8s4.4,0.9,2.8,3.9s-2.8,5.3-0.9,6.3s4.9,1.2,2.6,5.1s-4.2,3.7-3.5,6
			s2.1,3,0,4.6s-4.6,2.3-4.6,3.7s2.8,2.1-0.5,3.2c-1.9,0.7-3.8,1.2-5.8,1.4c0,0-4.6-12.5-17.9-16.7s-20.9-3.7-23.9-2.1
			S273.5,263.8,273.5,263.8z"/>
		<path class="st6" d="M278.2,348.8l-17,7.8c0,0-8.8,48.7-8.2,62.2s8.2,47.1,8.2,47.1H302c0,0-6.3-41.1-3.1-55.9
			s10.7-55.2,10.7-55.2s-12.6-3.5-16.3-4.1S278.2,348.8,278.2,348.8z"/>
		<path class="st11" d="M258.7,371.6l47,4.1c-0.4,2-0.8,4-1.1,6l-46.8-4C258,375.5,258.4,373.5,258.7,371.6z M298.9,410
			c0.4-1.7,0.8-3.7,1.2-6l-45.7-3.9c-0.3,2.1-0.5,4.1-0.7,6.1L298.9,410L298.9,410z M302.9,389.8l-46.5-4c-0.3,2-0.6,4-0.9,6.1
			l46.2,4C302.1,393.9,302.5,391.9,302.9,389.8L302.9,389.8z M253,415c-0.1,1.4-0.1,2.7,0,3.8c0,0.7,0.1,1.5,0.2,2.4L298,424
			c0-2.1,0-4.2,0-6.1L253,415z M261.5,356.5l-0.3,0.1c0,0-0.4,2.2-1,5.9l47.2,4.1c0.4-2.3,0.8-4.3,1.1-6L261.5,356.5z M299.5,445.9
			l-42.5-0.4c0.4,2.1,0.8,4.2,1.2,6.1l42,0.5C300,450.1,299.7,448.1,299.5,445.9L299.5,445.9z M255.2,435.8l43.6,2.6
			c-0.2-2-0.3-4.1-0.5-6.1l-44.1-2.6C254.6,431.7,254.9,433.8,255.2,435.8L255.2,435.8z"/>
		<path class="st14" d="M275.6,340c0,0-3.5,13.2-3.8,20.1s6.9,12.5,17.3,11.6s12.2-12.2,12.2-15.1S302,330,302,330
			c-3.5,3-7.1,5.7-11,8.2C285.1,341.9,275.6,340,275.6,340z"/>
		<path class="st8" d="M285.1,351.3c9.8-4.7,14.7-13.9,16.9-19.8c0-1,0-1.6,0-1.6c-3.5,3-7.1,5.7-11,8.2c-6,3.8-15.4,1.9-15.4,1.9
			s-2.1,8.2-3.2,15.1C276.8,354.6,281.1,353.3,285.1,351.3z"/>
		<path class="st15" d="M318.7,289.6c0,0-0.4-13.9-5.6-21.9S297,254.9,284.9,257c-15.1,2.6-21.9,13.9-24.3,23.5s0.4,23.5,0.4,33
			s11.1,26.6,14.3,29.4s8.1,3.7,13.7,0.9c5.1-2.6,13.6-11.5,18.8-16.7s8.2-20.5,9-24.1S318.7,289.6,318.7,289.6z"/>
		<path class="st16" d="M276.5,316.7c0,0-0.5,3,6.5,2.5"/>
		<path class="st16" d="M274.4,324.6c0,0,8.1,5.6,16.2,0.2"/>
		<path class="st17" d="M290.7,306c0,0,2.1-3.5,8.1-0.5"/>
		<path class="st11" d="M274.4,303.9c0,1.7-0.8,3-1.7,3s-1.7-1.4-1.7-3s0.8-3,1.7-3S274.4,302.3,274.4,303.9z"/>
		<path class="st16" d="M267,294.4c0,0,2.1-4.6,9-2.3"/>
		<path class="st16" d="M287.6,294c0,0,6.5-3.5,13.7,1.9"/>
		<path class="st12" d="M284.9,257c-15.1,2.6-21.9,13.9-24.3,23.5c-0.5,2.1-0.8,4.3-0.9,6.5c0.8-2.4,4.8-13.1,16.3-16
			c13-3.2,24.4,0.9,28.3,6.5s3,12.8,4.4,16.2c0.9,2.2,5.3,5.5,8.4,7.7c0.7-4.3,1.5-11.7,1.5-11.7s-0.4-13.9-5.6-21.9
			S297,254.9,284.9,257z"/>
		<path class="st4" d="M314.8,292.1c0,0,1.2-12.3-2.3-20.4s-7.6-11.6-7.6-11.6s9.7,5.1,13.2,10s3.9,16.7,3,24.8l-7.2-1.2
			L314.8,292.1z"/>
		<path class="st13" d="M324.1,304.1c-1.4,7.5-6.5,12.8-11.4,11.9s-7.7-7.7-6.3-15.2s6.5-12.8,11.4-11.9S325.5,296.7,324.1,304.1z"
			/>
		
			<ellipse transform="matrix(0.1836 -0.983 0.983 0.1836 -40.2925 559.1929)" class="st4" cx="316.5" cy="303.9" rx="10.5" ry="6.9"/>
		<path class="st4" d="M266.5,435.3c2.3,16.6,5.2,31.5,5.2,31.5h-17.1c0,0-4.4-22.6-9.7-35.2c-3-7.1-3.7-10-3.8-11.2
			c-2.3,5.5-16.9,39.8-19.4,41c-2.8,1.2-13.2-1-17-2.2s-4.1-6.6-3.4-8.8s27-65.9,29.5-70c2.3-4.1,4.1-8.6,5.3-13.2
			c0.3-1.9-0.3-6.3,2.5-7.8c1.7-1,13.7-3.7,23-5.8c6.1-1.4,10.9-2.4,10.9-2.4s-7.5,27.9-8.8,47.7
			C263.2,407.8,264.7,422.1,266.5,435.3C266.6,435.3,266.6,435.3,266.5,435.3z"/>
		<path class="st4" d="M266.5,435.3c-2.2-3.5-10.9-18.8-12.1-34.7c-1.1-14.2,4.6-37.6,7.1-47c6.1-1.4,10.9-2.4,10.9-2.4
			s-7.5,28-8.8,47.7C263.2,407.8,264.7,422.1,266.5,435.3z"/>
		<path class="st7" d="M243.5,387.6c0.8-3.4,1.4-5.2,1.4-5.2"/>
		<path class="st7" d="M241.4,419.7c0,0-1.9-6.6-0.3-18.5c0.4-3.1,0.9-6,1.3-8.4"/>
		<path class="st4" d="M379.6,422.5c-7.2-0.3-43.3-22.8-43.3-22.8s-11.3,22.2-11.6,26.7s8.8,40.5,8.8,40.5h-38.6
			c0,0-1.2-12.6-1.4-26.5c-0.1-6.4,0-13,0.5-18.8c1.6-18.3,7.8-70,7.8-70l6.3,0.6c0,0,1.8,0.6,4.6,1.6c7.4,2.6,22,7.9,28.4,11.6
			c8.8,5.1,21,13.5,27,17.4s20.1,12.5,22.9,24.1S386.8,422.8,379.6,422.5z"/>
		<path class="st7" d="M312.6,353.7c-0.9,12.9-3.4,43.5-8.7,58.3c-5.2,14.2-8.9,24.2-10.4,28.4c-0.1-6.4,0-13,0.5-18.8
			c1.6-18.3,7.8-70,7.8-70l6.3,0.6C308,352.1,309.8,352.7,312.6,353.7z"/>
		<line class="st7" x1="336.2" y1="399.6" x2="321.8" y2="395.2"/>
		<path class="st7" d="M315.7,385.4c0.4,4.8,1.7,10,5.2,12.9"/>
		<path class="st7" d="M315.8,375.6c-0.2,1.8-0.3,3.6-0.3,5.4"/>
		<path class="st7" d="M314,392.3c0,0,3.5,6.4,7.5,8.7"/>
		<path class="st14" d="M335.6,346.2c-0.6-2.4-0.9-4.8-0.9-7.2c0-3.9,0.9-6-0.5-5.9s-3.9,1.9-4.6,5s0.9,5.9,1.2,7
			c0.2,0.6,0.2,1.3,0.3,1.9c0,0-11.2,0.4-13.3,0.4s-4.1,1.2-4.1,3.1s2.2,3,2.2,3l1,0.5c0,0-1.3,2.4-0.4,3.7c0.5,0.7,1.1,1.4,1.8,1.9
			c-0.5,0.8-0.6,1.8-0.3,2.7c0.3,0.9,0.9,1.6,1.7,2.2c0,0-1.7,1.5,0.5,3.6s7,2.2,10.3,2.2s6.2,0.1,6.2,0.1l1.4,0.1l11.8,17.6
			l11.2-12.5c0,0-16.5-16-18.7-18.8S335.6,346.2,335.6,346.2z"/>
		<path class="st4" d="M360.7,374.2l-15.4,14.4c0,0,14.1,18.8,21.7,28.3s21.4,11,27.3,6.3s6.6-15.4,1.3-22S360.7,374.2,360.7,374.2z
			"/>
		<path class="st14" d="M257.8,450.1c0,0,22.6,3.9,24.7,3.9s24.4-5.7,25.9-4.5s11.4,9.6,13.9,12c1.4,1.4,2.6,3,3.6,4.8h-20.8
			l-6.3-1.5c0,0-5.4,2.5-8.4,2.5s-13.1-0.6-13.1-0.6l-17.7-0.3C259.6,466.5,253.6,456.4,257.8,450.1z"/>
		<path class="st7" d="M311.4,466.4c0,0-5.1-5.7-7.2-7.2c-1.3-0.9-2.7-1.6-4.2-2.1"/>
		<path class="st7" d="M318.3,466.7c0,0-9.9-10.8-11.1-11.8c-1.3-0.8-2.7-1.4-4.2-1.8"/>
		<path class="st4" d="M208.4,439.9c0,0-9,7.2-10.5,12s0.6,10.5,5.4,12.4s58.6,2.8,58.6,2.8c-0.9,0.4-4.8-3.3-2.6-8.2
			c1.5-3.3,5.7-8.1,5.7-8.1l-44.9-11.4"/>
	</g>
	<g id="freepik--Device--inject-2">
		<rect x="99.8" y="465" class="st8" width="184.5" height="2.4"/>
		<polygon class="st6" points="217.3,467.3 102.3,467.3 91.6,387.3 206.7,387.3 		"/>
		<polygon class="st6" points="215,467.3 99.9,467.3 89.3,387.3 204.4,387.3 		"/>
		<path class="st8" d="M108.8,467.3h105.8l-8-60.4c-14.2,9-31.4,20.6-50.2,35C142.1,453,126,461.6,108.8,467.3z"/>
		<ellipse class="st6" cx="148.5" cy="426.6" rx="7.6" ry="7"/>
	</g>
	<g id="freepik--Desk--inject-2">
		<line class="st7" x1="11.2" y1="467.3" x2="473" y2="467.3"/>
	</g>
</g>
<g id="Calque_2">
	<rect x="138.4" y="107.8" class="st18" width="242.6" height="32.5"/>
</g>
<g id="Calque_3">
	<rect x="131.5" y="119.9" class="st19" width="253" height="20"/>
	<text transform="matrix(1 0 0 1 131.482 134.0377)" class="st20 st21 st22">ATTESTATION D’INSCRIPTION</text>
</g>
</svg>
